<?xml version="1.0" encoding="utf-8" ?>
<svg xmlns="http://www.w3.org/2000/svg" xmlns:xlink="http://www.w3.org/1999/xlink" width="1024" height="1024">
	<path fill="#FEFEFE" d="M0 0L1024 0L1024 1024L0 1024L0 0Z"/>
	<path d="M480.963 394.084L481.821 394.044C492.316 393.586 502.905 393.886 513.414 393.897L570.747 393.949L602.185 393.906C607.814 393.902 614.156 393.338 619.661 394.352C623.098 394.984 626.395 396.987 628.89 399.38C632.79 403.119 634.335 407.672 634.512 412.972C635.057 429.371 634.485 445.994 634.531 462.418L634.662 563.841L634.569 605.041C634.583 612.108 635.371 620.009 634.284 626.942C633.651 630.977 631.434 635.044 628.582 637.944C620.744 645.915 607.705 644.108 597.462 644.183L597.341 775.129C597.265 805.771 596.894 836.478 597.458 867.114C608.437 867.058 625.572 864.724 634.03 872.879C642.623 881.163 640.178 896.332 640.276 907.279L858.999 907.222L902.503 907.278C910.242 907.239 921.042 906.106 928.415 907.665L928.544 908.186C927.091 909.059 925.719 909.412 924.023 909.546C915.473 910.219 904.214 909.486 895.346 909.484L829.847 909.377L637.681 909.5C637.637 903.908 637.836 898.31 637.895 892.718C637.965 886.154 637.464 879.896 632.451 875.017Q631.918 874.5 631.345 874.027Q630.773 873.554 630.165 873.128Q629.557 872.702 628.917 872.325Q628.276 871.948 627.609 871.624Q626.941 871.299 626.249 871.028Q625.558 870.757 624.847 870.542Q624.136 870.327 623.41 870.169Q622.685 870.01 621.949 869.91C615.782 869.028 609.043 869.53 602.802 869.562L570.744 869.725L472.425 869.53C465.823 869.54 460.323 869.929 455.494 875.022C447.984 882.944 450.595 899.385 450.818 909.525C426.176 910.163 401.403 909.608 376.75 909.565L193.702 909.494L130.084 909.451C120.354 909.437 110.482 909.804 100.768 909.457C99.4362 909.41 98.1273 909.415 97.0026 908.627L97.225 908.058C102.451 906.11 159.454 907.225 171.443 907.227L299.845 907.08C299.001 898.57 298.559 890.241 299.979 881.742C300.81 876.77 302.801 872.465 302.747 867.325C302.603 853.467 301.685 839.56 301.17 825.704Q299.884 785.386 297.927 745.096L282.346 744.998C281.801 732.79 282.06 720.412 282.142 708.19C282.182 702.159 282.725 695.796 281.924 689.819C281.369 685.688 278.431 680.751 276.931 676.799C275.333 672.588 274.119 668.219 273.086 663.839C266.934 637.765 267.008 592.398 274.876 566.705C282.149 542.955 292.876 527.844 314.869 516.215C316.044 510.675 314.513 501.509 319.098 497.399C322.733 494.14 328.687 494.849 333.166 494.97C329.036 492.308 325.302 489.589 322.432 485.502C317.792 478.895 316.269 470.461 317.863 462.592C319.38 455.101 323.663 448.523 330.077 444.3Q330.705 443.881 331.353 443.494Q332.001 443.106 332.667 442.752Q333.333 442.397 334.017 442.075Q334.7 441.754 335.398 441.467Q336.096 441.18 336.807 440.927Q337.519 440.675 338.242 440.458Q338.965 440.242 339.698 440.061Q340.431 439.88 341.172 439.736Q341.913 439.592 342.66 439.485Q343.408 439.377 344.159 439.307Q344.911 439.237 345.665 439.204Q346.419 439.171 347.174 439.175Q347.929 439.18 348.683 439.221Q349.436 439.263 350.187 439.342Q350.938 439.421 351.684 439.537Q352.43 439.653 353.169 439.806C360.678 441.396 367.113 445.617 371.245 452.16Q371.672 452.826 372.065 453.511Q372.458 454.197 372.817 454.902Q373.175 455.607 373.498 456.328Q373.821 457.05 374.108 457.787Q374.395 458.524 374.644 459.274Q374.894 460.024 375.106 460.786Q375.318 461.547 375.492 462.319Q375.665 463.09 375.8 463.869Q375.936 464.648 376.032 465.433Q376.128 466.217 376.185 467.006Q376.242 467.795 376.26 468.585Q376.277 469.375 376.255 470.166Q376.234 470.956 376.173 471.744Q376.112 472.533 376.011 473.317Q375.911 474.101 375.772 474.879Q375.633 475.658 375.455 476.428C373.462 485.117 368.815 490.271 361.411 494.888C366.608 495.087 374.152 494.405 378.266 498.052C383.359 502.567 381.885 513.637 382.115 519.853C405.855 532.62 417.868 559.834 422.146 585.273C423.697 594.495 422.402 605.085 429.098 612.434C437.796 621.978 453.975 621.089 465.898 621.622Q466.467 547.882 465.991 474.141L465.922 435.207C465.881 427.552 465.428 419.682 465.91 412.049C466.125 408.632 466.725 405.287 468.542 402.326C471.389 397.683 475.797 395.288 480.963 394.084Z"/>
	<path fill="#FEFEFE" d="M344.429 866.864C344.693 850.519 346.484 834.029 347.483 817.69Q349.031 791.703 350.88 765.737C351.229 760.208 351.127 754.542 351.569 749.059C351.684 747.625 352.23 747.053 353.203 746.072C354.643 745.64 355.45 745.497 356.983 745.69C357.16 746.014 357.426 746.304 357.514 746.662C358.27 749.742 356.804 778.563 356.697 784.538C356.204 812.088 356.953 839.856 355.735 867.378C355.536 871.873 354.898 876.209 354.042 880.619C351.045 878.051 347.68 875.85 344.458 873.57C344.529 871.333 344.469 869.1 344.429 866.864Z"/>
	<path fill="#F69F94" d="M344.429 866.864C344.469 869.1 344.529 871.333 344.458 873.57C347.68 875.85 351.045 878.051 354.042 880.619C353.153 889.389 352.48 898.06 352.445 906.881Q327.569 906.701 302.693 906.926C300.624 895.531 301.111 883.589 305.221 872.702C317.988 871.979 331.166 872.603 343.976 872.563C344.037 870.655 344.243 868.762 344.429 866.864Z"/>
	<path fill="#F69F94" d="M358.393 872.935C371.765 871.483 385.518 873.705 398.851 872.271C399.749 871.041 399.734 869.259 399.923 867.784C399.937 869.078 399.669 871.655 400.623 872.618C403.49 875.512 408.381 877.388 411.919 879.404C421.737 884.999 430.652 895.547 432.283 907.048C406.536 906.215 380.574 906.885 354.809 906.935C355.33 895.526 355.607 884.07 358.393 872.935Z"/>
	<path fill="#FEFEFE" d="M343.1 442.093C349.345 441.554 355.148 442.284 360.629 445.536C366.903 449.258 371.302 455.969 372.921 463.019C374.54 470.069 373.393 477.725 369.451 483.828C365.066 490.618 358.454 493.724 350.894 495.467C344.717 495.841 339.412 495.309 333.914 492.193Q333.303 491.842 332.71 491.462Q332.117 491.081 331.543 490.672Q330.97 490.262 330.418 489.824Q329.866 489.387 329.336 488.922Q328.806 488.457 328.301 487.966Q327.795 487.476 327.314 486.96Q326.834 486.445 326.379 485.907Q325.925 485.368 325.498 484.807Q325.071 484.247 324.673 483.665Q324.274 483.084 323.906 482.484Q323.537 481.883 323.198 481.265Q322.86 480.647 322.553 480.013Q322.246 479.379 321.97 478.73Q321.695 478.082 321.453 477.42Q321.21 476.758 321.001 476.085Q320.792 475.413 320.617 474.73C318.952 468.009 320.325 460.548 323.93 454.679C328.395 447.411 335.151 444.013 343.1 442.093Z"/>
	<path fill="#F15F4A" d="M608.299 396.795C614.589 396.047 620.98 396.189 626.186 400.336C629.523 402.994 631.195 405.979 631.589 410.181C632.788 422.951 632.014 436.377 632.029 449.212L632.094 521.952L631.994 590.503C631.976 601.817 632.716 613.752 631.739 625.006C631.41 628.793 630.224 632.247 627.775 635.198C624.405 639.26 619.5 641.158 614.333 641.535C610.238 641.834 605.916 641.621 601.817 641.379C601.99 641.347 602.164 641.317 602.337 641.283Q602.826 641.184 603.309 641.06Q603.793 640.936 604.269 640.788Q604.746 640.641 605.214 640.469Q605.683 640.297 606.142 640.103Q606.602 639.908 607.051 639.69Q607.5 639.473 607.938 639.233Q608.375 638.993 608.8 638.732Q609.225 638.47 609.637 638.188Q610.048 637.905 610.445 637.603Q610.841 637.3 611.222 636.978Q611.603 636.656 611.968 636.315Q612.332 635.974 612.679 635.615Q613.026 635.256 613.354 634.881Q613.683 634.505 613.992 634.113Q614.301 633.722 614.59 633.315Q614.88 632.909 615.148 632.488C617.474 628.84 617.587 625.359 617.792 621.188C618.357 609.68 617.739 597.887 617.774 586.341L617.439 491.468L617.523 434.851C617.536 427.89 618.59 414.075 616.945 407.703C615.544 402.275 612.905 399.645 608.299 396.795Z"/>
	<path fill="#FEFEFE" d="M425.516 645.406C436.128 645.187 446.722 644.344 457.314 644.137C468.992 643.909 480.73 644.284 492.411 644.421C491.671 653.093 492.095 662.066 492.093 670.772L492.073 716.456L492.106 867.266C481.235 867.185 462.458 864.744 454.361 872.541C446.789 879.831 448.007 891.222 448.066 900.809L448.118 907.091L432.283 907.048C430.652 895.547 421.737 884.999 411.919 879.404C408.381 877.388 403.49 875.512 400.623 872.618C399.669 871.655 399.937 869.078 399.923 867.784C402.441 826.931 405.931 786.063 408.015 745.197C413.751 745.081 419.438 745.053 425.171 745.368C426.194 712.128 425.495 678.674 425.516 645.406Z"/>
	<path fill="#FEFEFE" d="M496.696 644.259C510.7 643.844 524.763 644.088 538.774 644.083Q566.842 643.946 594.908 644.182L594.958 786.457L595.004 836.008C594.991 846.11 595.237 856.405 594.53 866.48C593.395 867.383 592.532 867.11 591.125 867.132L494.677 867.083C494.356 843.559 494.326 646.068 494.998 644.482L496.696 644.259Z"/>
	<path fill="#F69F94" d="M340.324 513.203C344.244 512.882 348.347 513.055 352.259 513.425C389.188 516.912 410.919 544.486 418.135 579.145C420.375 589.906 419.731 605.73 426.822 613.985C433.254 621.472 441.175 622.671 450.411 623.296C450.843 629.901 450.967 635.654 448.949 642.016C437.043 642.096 423.757 643.335 412.142 640.505C386.561 634.273 376.075 612.487 374.49 587.878C374.227 583.793 375.105 576.003 373.048 572.593L372.227 572.435C371.376 573.405 371.321 574.323 371.204 575.574C370.851 579.338 371.351 583.354 371.67 587.118C372.88 601.398 375.766 615.458 385.02 626.859C394.669 638.746 407.868 643.708 422.691 645.188L422.94 742.561L390.61 742.682L326.331 742.783C312.515 742.799 298.632 743.081 284.825 742.582C284.852 697.942 284.761 653.427 288.53 608.909C288.88 604.773 291.992 579.867 291.5 578.252C291.338 577.718 290.868 577.332 290.552 576.872L291.087 576.496L291.463 577.447L290.505 576.897C284.909 583.683 282.473 668.755 282.383 683.205C276.328 670.554 273.975 656.011 272.798 642.131C269.839 607.216 270.166 563.125 294.108 535.088C306.067 521.083 322.291 514.602 340.324 513.203Z"/>
	<path fill="#FEFEFE" d="M468.642 621.969C469.75 552.661 467.352 483.254 468.34 413.947C468.415 408.645 469.108 404.343 473.175 400.524C475.712 398.142 478.252 397.278 481.643 396.833C486.558 396.19 491.811 396.571 496.771 396.566L522.691 396.523C551.207 396.496 579.79 396.2 608.299 396.795C612.905 399.645 615.544 402.275 616.945 407.703C618.59 414.075 617.536 427.89 617.523 434.851L617.439 491.468L617.774 586.341C617.739 597.887 618.357 609.68 617.792 621.188C617.587 625.359 617.474 628.84 615.148 632.488Q614.88 632.909 614.59 633.315Q614.301 633.722 613.992 634.113Q613.683 634.505 613.354 634.881Q613.026 635.256 612.679 635.615Q612.332 635.974 611.968 636.315Q611.603 636.656 611.222 636.978Q610.841 637.3 610.445 637.603Q610.048 637.905 609.637 638.188Q609.225 638.47 608.8 638.732Q608.375 638.993 607.938 639.233Q607.5 639.473 607.051 639.69Q606.602 639.908 606.142 640.103Q605.683 640.297 605.214 640.469Q604.746 640.641 604.269 640.788Q603.793 640.936 603.309 641.06Q602.826 641.184 602.337 641.283C602.164 641.317 601.99 641.347 601.817 641.379C589.137 641.859 576.351 641.484 563.657 641.514L495.447 641.572C493.97 638.502 492.468 635.563 490.309 632.906C484.639 625.925 477.441 622.934 468.642 621.969Z"/>
	<path d="M509.564 579.187C531.406 578.434 554.197 578.492 576.015 579.379Q576.134 588.8 575.902 598.219C553.782 598.638 531.588 598.315 509.46 598.331Q509.35 588.758 509.564 579.187Z"/>
	<path d="M500.549 450.123Q520.165 450.073 539.78 450.265L539.992 508.492L548.3 508.504L548.477 501.812L558.403 501.51L558.384 491.307L547.94 491.302L547.89 450.484C561.272 450.37 574.671 450.56 588.055 450.613C588.741 464.347 588.456 478.177 588.455 491.929L575.927 491.947L575.957 501.138C578.994 501.098 585.957 500.224 588.398 501.652L588.475 543.766C575.252 544.55 561.721 544.037 548.468 543.987C548.175 539.319 548.288 534.588 548.254 529.91L539.59 529.875L539.629 543.802C526.704 544.623 513.432 544.034 500.476 544.016L500.48 500.986L525.584 501.057L525.518 492.233C517.18 492.073 508.818 492.21 500.478 492.219L500.549 450.123Z"/>
	<path fill="#FEFEFE" d="M505.369 456.395C515.124 456.045 525.019 456.307 534.778 456.428C535.037 466.187 534.769 476.015 534.744 485.781C532.047 487.475 510.009 486.494 505.398 486.474Q505.195 471.434 505.369 456.395Z"/>
	<path d="M512.747 462.988L527.569 462.913L527.534 479.056Q520.179 479.067 512.826 478.865C512.477 473.585 512.633 468.273 512.747 462.988Z"/>
	<path fill="#FEFEFE" d="M553.412 456.045C563.277 456.002 573.277 455.744 583.122 456.343C583.351 466.206 583.254 476.094 583.296 485.96C573.345 486.298 563.341 486.114 553.383 486.133L553.412 456.045Z"/>
	<path d="M560.511 463.112Q568.07 463.05 575.629 463.153C575.72 468.213 576.147 473.574 575.429 478.584C570.447 478.875 565.443 478.749 560.456 478.713Q560.326 470.912 560.511 463.112Z"/>
	<path fill="#FEFEFE" d="M564.468 507.236Q573.734 507.081 583.001 507.114L583.016 538.234L571.875 538.368L553.753 538.42Q553.596 522.946 553.736 507.472L564.468 507.236Z"/>
	<path d="M562.013 514.756Q568.796 514.696 575.579 514.711C575.621 519.382 576.427 525.932 575.293 530.41L574.42 530.803L560.671 530.719C560.593 525.951 559.824 519.909 560.975 515.298L562.013 514.756Z"/>
	<path fill="#FEFEFE" d="M505.538 506.48C515.373 506.287 525.255 506.499 535.095 506.521C535.241 517.136 535.046 527.701 534.986 538.311C526.694 539.348 514.144 538.442 505.43 538.408C505.352 527.77 505.494 517.119 505.538 506.48Z"/>
	<path d="M512.547 514.59L527.914 514.605L527.908 530.577C522.798 530.664 517.674 530.608 512.563 530.615L512.547 514.59Z"/>
</svg>
