<?xml version="1.0" encoding="utf-8"?>
<!-- Generator: Adobe Illustrator 28.0.0, SVG Export Plug-In . SVG Version: 6.00 Build 0)  -->
<svg version="1.1" id="Layer_6" xmlns="http://www.w3.org/2000/svg" xmlns:xlink="http://www.w3.org/1999/xlink" x="0px" y="0px"
	 viewBox="0 0 1500 1500" style="enable-background:new 0 0 1500 1500;" xml:space="preserve">
<style type="text/css">
	.st0{clip-path:url(#SVGID_00000148649772022796773200000002965141450030766466_);}
	.st1{fill:#FBDFC2;}
	.st2{fill:#E7AF8F;}
	.st3{fill:#E9EAE6;}
	.st4{fill:#FCF9F9;}
	.st5{fill:#91C9AA;}
	.st6{fill:#404F4E;}
	.st7{fill:#4E847C;}
	.st8{fill:#51867D;}
	.st9{fill:#A4553F;}
	.st10{fill:#883D31;}
	.st11{fill:#FB947A;}
	.st12{fill:#F5943D;}
	.st13{fill:#27355E;}
	.st14{fill:#F66E57;}
	.st15{fill:#5C85BF;}
	.st16{fill:#475573;}
	.st17{fill:#FFFFFF;}
	.st18{fill:#922A1D;}
	.st19{fill:#1C5A54;}
	.st20{fill:#242037;}
	.st21{fill:#FC947B;}
	.st22{fill:#96B8EA;}
	.st23{fill:#DC6A2C;}
	.st24{fill:#FCF9F1;}
	.st25{fill:#7A0907;}
	.st26{fill:#DC865D;}
	.st27{fill:#81C39F;}
	.st28{fill:#316093;}
	.st29{fill:#E64444;}
	.st30{fill:#F66D56;}
</style>
<g>
	<defs>
		<rect id="SVGID_1_" width="1500" height="1500"/>
	</defs>
	<clipPath id="SVGID_00000072276243767748993990000011872645868636946817_">
		<use xlink:href="#SVGID_1_"  style="overflow:visible;"/>
	</clipPath>
	<g style="clip-path:url(#SVGID_00000072276243767748993990000011872645868636946817_);">
		<g>
			<g>
				<rect class="st1" width="1500" height="1500"/>
			</g>
		</g>
		<g>
			<g>
				<rect class="st2" width="653.1" height="695.9"/>
			</g>
		</g>
		<g>
			<g>
				<rect class="st3" width="299.8" height="263"/>
			</g>
		</g>
		<g>
			<g>
				<rect x="319.9" class="st3" width="314.5" height="263"/>
			</g>
		</g>
		<g>
			<g>
				<rect y="281.3" class="st3" width="299.8" height="388.1"/>
			</g>
		</g>
		<g>
			<g>
				<rect x="317.9" y="281.3" class="st3" width="316.4" height="388.1"/>
			</g>
		</g>
		<g>
			<g>
				<g>
					<g>
						<polygon class="st4" points="0,281.3 2.8,281.3 0,284 						"/>
					</g>
				</g>
				<g>
					<g>
						<polygon class="st4" points="283.1,0 21,263 0,263 0,234.5 233.7,0 						"/>
					</g>
				</g>
			</g>
			<g>
				<g>
					<g>
						<polygon class="st4" points="634.3,243 634.3,263 614.4,263 						"/>
					</g>
				</g>
				<g>
					<g>
						<polygon class="st4" points="209.4,669.3 299.8,578.7 299.8,628.3 258.8,669.3 						"/>
					</g>
				</g>
				<g>
					<g>
						<polygon class="st4" points="634.3,281.3 634.3,292.6 317.9,610.1 317.9,560.5 596.2,281.3 						"/>
					</g>
				</g>
			</g>
			<g>
				<g>
					<g>
						<polygon class="st4" points="285.1,281.3 299.8,281.3 299.8,541.3 172.2,669.3 0,669.3 0,567.3 						"/>
					</g>
				</g>
				<g>
					<g>
						<polygon class="st4" points="317.9,281.3 559,281.3 317.9,523.2 						"/>
					</g>
				</g>
				<g>
					<g>
						<polygon class="st4" points="634.3,0 634.3,205.7 577.2,263 319.9,263 319.9,246.4 565.4,0 						"/>
					</g>
				</g>
			</g>
			<g>
				<g>
					<g>
						<polygon class="st4" points="192.8,0 0,193.4 0,0 						"/>
					</g>
				</g>
			</g>
		</g>
	</g>
	<g style="clip-path:url(#SVGID_00000072276243767748993990000011872645868636946817_);">
		<g>
			<g>
				<g>
					<path class="st5" d="M1085.6,1183.6c-52-150.5-104-301.1-155.9-451.6c-6.1-17.6-12.2-35.7-11.6-54.6s9.8-38.9,26.2-45.8
						c18.6-7.8,38.9,3.1,54.9,15.4c57.6,44.4,98.7,110.4,125.3,181.4c26.6,71,39.7,147.2,49.7,223.4c3.1,24,6,48.4,2.1,72.4
						s-15.7,47.7-35.4,59.7S1089.5,1195,1085.6,1183.6z"/>
				</g>
			</g>
			<g>
				<g>
					<g>
						<g>
							<path class="st6" d="M1138.5,1184.4c-1.5-0.2-2.7-1.3-3.1-2.8c-43.8-210.5-88.7-397-194.8-547c-1.1-1.6-0.7-3.8,0.8-4.9
								c1.6-1.1,3.8-0.7,4.9,0.8c50.1,70.9,90.8,156.4,124.6,261.4c29.8,92.9,50.8,189.3,71.3,288.2c0.4,1.9-0.8,3.8-2.7,4.2
								C1139.3,1184.4,1138.9,1184.5,1138.5,1184.4z"/>
						</g>
					</g>
				</g>
				<g>
					<g>
						<g>
							<path class="st6" d="M1051.8,853.8c-0.7-0.1-1.3-0.3-1.8-0.8c-27-22-58.8-38.1-91.9-46.7c-1.9-0.5-3-2.4-2.5-4.3
								c0.5-1.9,2.4-3,4.3-2.5c31.8,8.2,62.4,23.3,89,43.7l4.1-131.8c0.1-2,1.7-3.5,3.6-3.4c1.9,0.1,3.5,1.7,3.4,3.6l-4.4,138.9
								c0,1.3-0.8,2.5-2.1,3.1C1053.1,853.7,1052.5,853.8,1051.8,853.8z"/>
						</g>
					</g>
				</g>
				<g>
					<g>
						<g>
							<path class="st6" d="M1092,986.8c-0.9-0.1-1.8-0.6-2.4-1.4c-27.1-35.1-61.9-63.7-100.5-82.7c-1.8-0.9-2.5-3-1.6-4.7
								c0.9-1.8,3-2.5,4.7-1.6c36.9,18.1,70.3,44.8,97.1,77.4c3.5-58.7,10.8-111.9,22.3-162.3c0.4-1.9,2.3-3.1,4.2-2.7
								c1.9,0.4,3.1,2.3,2.7,4.2c-11.9,52.7-19.3,108.4-22.6,170.4c-0.1,1.5-1.1,2.7-2.5,3.2C1092.9,986.8,1092.4,986.9,1092,986.8z
								"/>
						</g>
					</g>
				</g>
			</g>
		</g>
		<g>
			<g>
				<g>
					<path class="st7" d="M1056.8,757.9c-31.6-99.5-45.6-205.8-41-311.6c1.5-34.5,5.1-69.7,18.5-101.3c13.4-31.6,38-59.5,69.2-67.9
						c38-10.3,78.2,10.5,103.3,42.3s37.6,72.9,47.3,113.4c46.6,193.9,42.1,398.7,25.3,599.4c-2.2,26.7-4.7,53.7-13.1,79.1
						s-23.2,49.3-45,62.6c-21.7,13.3-50.9,13.8-69.9-3c-17.5-15.5-23.3-41.4-28-65.4C1100.4,987.2,1090.8,865,1056.8,757.9z"/>
				</g>
			</g>
			<g>
				<g>
					<g>
						<g>
							<path class="st6" d="M1176.2,1183.4c-1.9-0.2-3.3-1.9-3.1-3.8c20.4-290,2.5-580.6-53.1-863.8c-0.4-1.9,0.9-3.8,2.8-4.2
								c1.9-0.4,3.8,0.9,4.2,2.8c55.7,283.7,73.6,575,53.2,865.6c-0.1,1.9-1.8,3.4-3.8,3.3
								C1176.3,1183.4,1176.2,1183.4,1176.2,1183.4z"/>
						</g>
					</g>
				</g>
				<g>
					<g>
						<g>
							<path class="st6" d="M1169.8,658.6c-0.9-0.1-1.8-0.6-2.5-1.4c-40.3-55.1-92.4-100.7-150.7-132c-1.7-0.9-2.4-3.1-1.4-4.8
								c0.9-1.7,3.1-2.4,4.8-1.4c59.2,31.8,112.1,78.2,153,134.1c1.2,1.6,0.8,3.8-0.8,4.9C1171.5,658.5,1170.6,658.7,1169.8,658.6z"
								/>
						</g>
					</g>
				</g>
				<g>
					<g>
						<g>
							<path class="st6" d="M1162,551C1162,551,1162,551,1162,551c-2-0.3-3.4-2-3.1-4c8.3-63,34.8-123.9,74.5-171.6
								c1.3-1.5,3.5-1.7,5-0.5c1.5,1.3,1.7,3.5,0.5,5c-38.9,46.6-64.8,106.3-72.9,168C1165.7,549.8,1163.9,551.2,1162,551z"/>
						</g>
					</g>
				</g>
				<g>
					<g>
						<g>
							<path class="st6" d="M1184.2,853.8c-0.4,0-0.8-0.2-1.2-0.4c-1.7-0.9-2.5-3-1.6-4.8c27.9-55.6,62.8-106.6,104-151.6
								c1.3-1.4,3.6-1.5,5-0.2c1.4,1.3,1.5,3.6,0.2,5c-40.7,44.6-75.3,95.1-102.9,150C1187.1,853.3,1185.7,854,1184.2,853.8z"/>
						</g>
					</g>
				</g>
				<g>
					<g>
						<g>
							<path class="st6" d="M1183.2,957.6c-0.9-0.1-1.7-0.5-2.3-1.3c-30.5-37.1-64.3-71.4-100.5-101.9c-1.5-1.3-1.7-3.5-0.4-5
								c1.3-1.5,3.5-1.7,5-0.4c36.6,30.8,70.7,65.4,101.4,102.9c1.2,1.5,1,3.7-0.5,5C1185,957.4,1184.1,957.7,1183.2,957.6z"/>
						</g>
					</g>
				</g>
			</g>
		</g>
		<g>
			<g>
				<g>
					<path class="st5" d="M1241.9,1196c-17.4-17.6-26.6-43-29.6-68.7c-3-25.7-0.3-51.8,3.1-77.5c22.3-170,74.7-335.5,150-487.7
						c13.9-28,28.9-56.1,50.7-77.4s52-35,80.5-28.9c36.7,7.9,61.7,46.8,67.5,86.7c5.7,39.9-4.1,80.7-15.3,119.6
						c-50.7,176.5-130.7,343-230.1,494.2c-9.3,14.1-19.1,28.5-32.9,37.2S1251.5,1205.7,1241.9,1196z"/>
				</g>
			</g>
			<g>
				<g>
					<g>
						<g>
							<path class="st6" d="M1258.4,1200.4c-0.2,0-0.4-0.1-0.6-0.1c-2.1-0.6-3.2-2.7-2.6-4.8c43.8-151.3,92.9-303.1,146.2-451
								c30.2-84,61.5-165,111.5-233.7c1.3-1.7,3.7-2.1,5.4-0.8c1.7,1.3,2.1,3.7,0.8,5.4c-49.5,67.9-80.5,148.4-110.5,231.8
								c-53.2,147.8-102.3,299.4-146,450.5C1262.1,1199.5,1260.3,1200.7,1258.4,1200.4z"/>
						</g>
					</g>
				</g>
				<g>
					<g>
						<g>
							<path class="st6" d="M1392.8,776.8c-0.3,0-0.7-0.1-1-0.2c-1.5-0.6-2.5-2-2.4-3.6c0.6-71.2-9.5-138.4-29.9-199.7
								c-0.7-2,0.4-4.2,2.4-4.9c2-0.7,4.2,0.4,4.9,2.4c19.8,59.3,29.9,124,30.3,192.5c38.9-39.3,88.6-65.9,140.9-75.3
								c2.1-0.4,4.1,1,4.5,3.1c0.4,2.1-1,4.1-3.1,4.5c-53.7,9.6-104.6,38-143.3,80C1395.2,776.5,1394,777,1392.8,776.8z"/>
						</g>
					</g>
				</g>
				<g>
					<g>
						<g>
							<path class="st6" d="M1352.2,902.7c-0.2,0-0.5-0.1-0.7-0.2c-1.4-0.4-2.4-1.6-2.7-3c-10.2-54.1-32.4-105.5-64-148.5
								c-1.3-1.7-0.9-4.1,0.8-5.4c1.7-1.3,4.1-0.9,5.4,0.8c31,42.1,53,91.9,64,144.6c39.8-37.7,86.9-63.9,136.7-76.1
								c2.1-0.5,4.2,0.8,4.7,2.8c0.5,2.1-0.8,4.2-2.8,4.7c-50.6,12.3-98.4,39.6-138.2,79C1354.6,902.4,1353.4,902.8,1352.2,902.7z"
								/>
						</g>
					</g>
				</g>
				<g>
					<g>
						<g>
							<path class="st6" d="M1302.9,1044.2c-0.1,0-0.2,0-0.2,0c-1.4-0.2-2.5-1.2-2.9-2.5c-6.8-18.9-13.9-38.4-25-54.8
								c-12.1-18-27.6-29.6-43.8-32.9c-2.1-0.4-3.5-2.5-3-4.5c0.4-2.1,2.5-3.5,4.5-3c18.2,3.6,35.5,16.4,48.7,36.1
								c10.4,15.5,17.3,33.1,23.6,50.4c31.3-34,74.4-54.1,116.4-54.1c2.1,0,3.9,1.7,3.9,3.9c0,2.1-1.7,3.9-3.9,3.9
								c-41.8,0-84.7,21-114.8,56.3C1305.4,1043.9,1304.2,1044.4,1302.9,1044.2z"/>
						</g>
					</g>
				</g>
			</g>
		</g>
		<g>
			<g>
				<g>
					<path class="st8" d="M1256,1166.7c42.8-116.2,106.5-223.8,186.4-314.9c45.4-51.8,102.7-101,168.2-99.8
						c21.8,0.4,45.3,8.2,56.5,28.2c10.9,19.5,6.9,44.8,0.9,66.9c-36.5,134.3-133.5,240-235.1,327.7c-20.2,17.5-41.2,34.7-65.2,45
						c-24,10.3-51.9,12.8-74.9,0.9C1269.8,1208.9,1251.3,1179.6,1256,1166.7z"/>
				</g>
			</g>
			<g>
				<g>
					<g>
						<g>
							<path class="st6" d="M1279.7,1211.8c-0.5-0.1-1-0.2-1.5-0.5c-1.7-1-2.2-3.2-1.2-4.9c51.1-82.7,110.7-160.3,177-230.5
								c66.3-70.2,139.3-132.9,217-186.4c1.6-1.1,3.8-0.7,4.9,0.9c1.1,1.6,0.7,3.8-0.9,4.9c-154.6,106.6-290.2,250-392,414.8
								C1282.4,1211.3,1281.1,1211.9,1279.7,1211.8z"/>
						</g>
					</g>
				</g>
				<g>
					<g>
						<g>
							<path class="st6" d="M1632.5,935.5c-1.3-0.2-2.5-1.1-3-2.4c-5.5-16.8-17-31.2-31.6-39.4c-14.5-8.2-32-10.3-48-5.8
								c-1.2,0.3-2.5,0-3.4-0.9c-0.9-0.9-1.3-2.2-1-3.4c10.3-41.6,13.5-80.9,9.5-116.6c-0.2-1.9,1.2-3.7,3.1-3.9
								c1.9-0.2,3.7,1.2,3.9,3.1c3.9,35,1.1,73.2-8.4,113.5c16.2-3.1,33.3-0.4,47.7,7.8c16.1,9.1,28.8,24.9,34.8,43.4
								c0.6,1.9-0.4,3.9-2.3,4.5C1633.5,935.5,1633,935.6,1632.5,935.5z"/>
						</g>
					</g>
				</g>
				<g>
					<g>
						<g>
							<path class="st6" d="M1565.3,1040.6c-1.4-0.2-2.6-1.2-3-2.6c-11.5-43-53.1-74.7-94.6-72.1c-1.2,0.1-2.4-0.5-3.1-1.5
								c-0.7-1-0.8-2.3-0.3-3.5c19-42.9,21.4-94.8,6.4-138.8c-0.6-1.9,0.4-3.9,2.2-4.5c1.8-0.6,3.9,0.4,4.5,2.2
								c15.2,44.6,13.5,94.9-4.4,138.8c20.1,0.1,40.3,7.2,57.7,20.3c18.9,14.3,32.6,34.6,38.6,57.1c0.5,1.9-0.6,3.8-2.5,4.3
								C1566.2,1040.6,1565.7,1040.6,1565.3,1040.6z"/>
						</g>
					</g>
				</g>
				<g>
					<g>
						<g>
							<path class="st6" d="M1492.8,1116.7c-1.7-0.2-3-1.5-3.1-3.3c-1.5-21.9-11-42.5-26.3-56.7c-15.2-14.1-35.5-21.1-55.6-19.4
								c-1.2,0.1-2.4-0.4-3.1-1.4c-0.7-1-0.9-2.2-0.5-3.4c14.3-38.7,10.5-84.2-10.1-118.8c-1-1.7-0.4-3.9,1.2-4.9
								c1.7-1,3.9-0.4,4.8,1.2c20.7,34.9,25.3,80.3,12.4,119.8c20.3-0.3,40.3,7.4,55.7,21.5c16.6,15.3,27,37.7,28.6,61.4
								c0.1,2-1.3,3.6-3.3,3.8C1493.2,1116.7,1493,1116.7,1492.8,1116.7z"/>
						</g>
					</g>
				</g>
				<g>
					<g>
						<g>
							<path class="st6" d="M1447.4,1165c-0.9-0.1-1.8-0.6-2.4-1.4c-12.4-16.3-25.3-33.1-42.1-44.1c-14.1-9.2-35.8-15.6-54.2-5.8
								c-1.3,0.7-2.9,0.5-4-0.5c-1.1-1-1.5-2.6-0.9-4c14-34.4,8.8-76.7-12.9-105.3c-1.2-1.6-0.9-3.8,0.7-5c1.6-1.2,3.8-0.9,5,0.7
								c21.5,28.4,27.9,69.4,16.6,104.5c16.4-5.3,36.3-1.9,53.6,9.4c17.9,11.6,31.1,29,43.9,45.7c1.2,1.6,0.9,3.8-0.7,5
								C1449.2,1164.9,1448.3,1165.1,1447.4,1165z"/>
						</g>
					</g>
				</g>
			</g>
		</g>
	</g>
	<g style="clip-path:url(#SVGID_00000072276243767748993990000011872645868636946817_);">
		<g>
			<g>
				<path class="st9" d="M281,1167c-26.1-3.2-52.5-3.8-78.7-1.7c-13.4,1.1-26.7,2.9-39.9,5.4c-22.6-94.7-41.9-185.5-61.1-276.4
					c-4.3-20.2-8.2-42.6,2.1-60.4c3.6-6.2,8.5-11.1,14.3-15c14.1-9.6,33.3-13.2,50.8-14.9c34.4-3.5,69-4.4,105.8-4.7
					C259.7,917.4,260.4,1037.3,281,1167z"/>
			</g>
		</g>
		<g>
			<g>
				<path class="st10" d="M202.3,1165.4c-13.4,1.1-26.7,2.9-39.9,5.4c-22.6-94.7-41.9-185.5-61.1-276.4c-4.3-20.2-8.2-42.6,2.1-60.4
					c3.6-6.2,8.5-11.1,14.3-15c-1.5,7.2-2.1,14.7-2,22.1c0.4,20.2,5.8,39.9,11.3,59.4C151.4,988.1,175.9,1075.8,202.3,1165.4z"/>
			</g>
		</g>
		<g>
			<g>
				<path class="st11" d="M992.4,1001.5c-11.9-35.8-23.8-71.5-38.5-106.7c-42.7,14-82.6,36.7-116.7,67.7
					c12.4,22.1,25.2,44,37.3,66.1C913.9,1027.8,953.1,1018.3,992.4,1001.5z"/>
			</g>
		</g>
		<g>
			<g>
				<rect y="1150.7" class="st12" width="1500" height="349.3"/>
			</g>
		</g>
		<g>
			<g>
				<path class="st13" d="M503.6,1193.4c94.6-13.4,194.2-28.4,293.2-42.7c-2.2,39.1-4.3,78.3-7.7,115.8
					c-14.1,9.6-29.3,17.5-45.4,24.5c-80.5-20.3-159-49-233.6-85.4C509.6,1201.4,504,1198.7,503.6,1193.4z"/>
			</g>
		</g>
		<g>
			<g>
				<path class="st11" d="M735.6,1173.1c-2.4,5.8-11.1,8.9-15,4c3.7,5.5,2.9,13.1-1.3,17.5c-4.2,4.4-11.2,5.7-17,3.6
					c-4.2-1.4-7.7-4.4-10.1-8.1c1,2.7,1.2,5.4,0.5,8c-1.1,4.1-4.5,7.4-8.6,8.5c-7,1.8-13.8-2.8-19.9-6.6
					c-16.6-10.4-35.6-16.8-55.1-18.6c-12.1,13.4-32.2,20.5-51.8,19.1c-5.3-0.4-10.9-1.4-15.1-4.7c-4.2-3.2-6.8-9.2-4.9-14.1
					c-83,20.6-168.4,9.2-251-5.5c-23.5-4.1-48.1-9.1-66.2-24.6c-26.4-22.5-31.9-61.5-27.8-96c3.4-28.3,11.9-56,15.4-84.2
					c0.5-3.8,0.9-7.7,1.1-11.5c53.7,16.1,107.1,33.4,158.1,55.2c-0.1,3.2-0.3,6.4-0.5,9.5c-0.6,10.5-1.6,20.6-2.9,30.7
					c0.2,0.1,0.5,0.2,0.8,0.2c66.8,20.3,135.1,35.6,204.1,45.2c25.4-25.1,65.5-31.6,97.4-19c27.3,10.7,48.5,33.2,61.9,59.5
					c2.3,4.5,4.3,9.1,6.2,13.7C736.1,1160.8,738,1167.4,735.6,1173.1z"/>
			</g>
		</g>
		<g>
			<g>
				<path class="st14" d="M367.2,1002.1c-0.2,7.8-0.5,15.2-0.9,22.5l-158.7-53.3c0.8-6.1,1.3-12.2,1.5-18.4
					c26.7-2.7,47.4,3.8,67.2,10.9C307.3,974.9,337.7,987.7,367.2,1002.1z"/>
			</g>
		</g>
		<g>
			<g>
				<path class="st15" d="M969.4,894.6c-38.5,41-91.2,68.5-146.8,78.8c-2.3,51.9,5.8,142.7,1.3,195.9c-24.8,4-51.1-14.2-69.9-14.6
					c-5.7,1.6-18.5,9.7-26.3-13.4c-13.4-26.3-34.6-48.8-61.9-59.5c-31.9-12.6-72-6.1-97.4,19c-69-9.5-137.3-24.9-204.1-45.2
					c1-13.6,2-26.9,2.9-40.3c-0.1,0-0.2-0.1-0.3-0.1c-51-21.8-104.4-39.1-158.1-55.2c-0.1,0-0.1,0-0.2-0.1c0.1-1.1,0.2-2.2,0.4-3.4
					c0.1-1.2,0.3-2.4,0.4-3.5c6.5-57.2,17.5-114.8,39.3-168.7c22.7-56,57.9-108.2,107-143.5c49.1-35.2,113.2-51.9,171.8-36.8
					c68,5.3,137.7,8.4,207.1,5.5c36.9,4.8,67.2,21.1,92.2,42.7c25,21.6,45.2,48.3,63.1,76.1C923.1,780,949.3,836.2,969.4,894.6z"/>
			</g>
		</g>
		<g>
			<g>
				<path class="st11" d="M808,1073c-40.4,10.8-76.8,36-101,70.2c-4.3,6.1-8.1,15.1-2.8,20.4c3,2.9,7.8,3.2,11.7,1.8
					c3.9-1.4,7.2-4.2,10.3-7c-8.5,5.8-8.8,20.3-0.5,26.5c8.3,6.1,22.1,1.6,27.3-7c-2.8,4.1-5.7,8.4-6.7,13.2
					c-1,4.9,0.3,10.6,4.4,13.4c6.9,4.7,15.9-1.1,22.2-6.7c13-11.5,25.9-23.1,38.8-34.7c10.4-9.3,21.2-19.4,24.5-32.9
					c2.5-10.2,0.2-21.2-4.4-30.7C827.4,1089.9,820.8,1081.6,808,1073z"/>
			</g>
		</g>
		<g>
			<g>
				<path class="st16" d="M1280.8,932.1c6.2-0.8,11.1,5.3,9,11.2c-1.5,4.1-2.9,8.3-4.4,12.4c-30.6,86-61.2,172.1-91.8,258.1
					c-153.2,17.7-305,37.9-456.3,61c-4.5,0.7-9,1.4-13.6,2.1c27.6-77.6,53.1-154,78.6-230.4c5.6-16.8,11.8-34.5,25.5-45.7
					c13.5-11.1,31.9-13.8,49.2-16C1011.6,967.2,1146.2,949.7,1280.8,932.1z"/>
			</g>
		</g>
		<g>
			<g>
				<path class="st13" d="M722.7,1280.1c0,1.6-1,2.9-1.9,4.2c-1.5,1.9-3,3.9-4.4,5.8c-1.8,2.3-3.6,4.7-5.4,7.1
					c-2.2,2.8-4.3,5.7-6.5,8.5c-68.3-28.6-136.5-59.4-203.4-92.7c-2.9-3.2-4-6.9-3.6-10.7c0.2-2.3,1.1-4.6,2.5-6.3
					c0.9-1.1,2.1-2.1,3.5-2.6c3.4-1.2,7.1,0.2,10.4,1.5c68.4,27.5,136.8,55,205.2,82.5c1.7-0.4,3,0.6,3.4,1.8
					C722.7,1279.5,722.7,1279.8,722.7,1280.1z"/>
			</g>
		</g>
		<g>
			<g>
				<path class="st17" d="M757.3,1363.1c64.5,26.1,126.2,58.8,184,97.4c96.2-28.9,192.1-54.4,288-79.9
					c-71-25.7-141.5-51.5-207.7-76.5C933.4,1322.8,845.2,1341.6,757.3,1363.1z"/>
			</g>
		</g>
		<g>
			<g>
				<path class="st17" d="M640.1,1365.9c-71.4,4.4-142.6,12-213.3,22.8c-49.2-43.6-102.3-88.2-153.2-131.4
					c71.7-6.9,143.5-13.8,214.2-21.2C538.6,1278.3,589.2,1320.6,640.1,1365.9z"/>
			</g>
		</g>
		<g>
			<g>
				<path class="st17" d="M646.3,1399.4c28.8-10.6,58.2-19.8,89.9-29c47.9,22.2,94.6,46.9,141.5,77.5
					c-36.3,7.6-72.6,15.2-108.4,21.8C728.7,1445.9,687.4,1423.3,646.3,1399.4z"/>
			</g>
		</g>
		<g>
			<g>
				<path class="st11" d="M688.2,657.8c-1.6,14-4,28.5-8.9,41.6c-3.6,9.5-8.5,18.3-15.6,25.7c-9.7,10.2-22.7,16.9-36.5,19.8
					c-12.8,2.7-26.3,2.1-38.8-1.7c-26.4-8-47.3-29.9-57.8-55.4c-10.5-25.5-11.6-54.2-7.2-81.4c4.2-26.1,13.1-51.1,23.2-74.6
					c0.5-1.1,0.9-2.2,1.4-3.2c38.9,40,91.7,63.7,132.4,101.8c3.6,3.4,7.3,7,9.1,11.7C691.2,646.6,688.8,652,688.2,657.8z"/>
			</g>
		</g>
		<g>
			<g>
				<path class="st14" d="M688.2,657.8c-1.6,14-4,28.5-8.9,41.6C554,668,545.3,567.9,546.5,531.8c0.5-1.1,0.9-2.2,1.4-3.2
					c38.9,40,91.7,63.7,132.4,101.8c3.6,3.4,7.3,7,9.1,11.7C691.2,646.6,688.8,652,688.2,657.8z"/>
			</g>
		</g>
		<g>
			<g>
				<path class="st11" d="M758.7,391.2c-0.6,66-1.3,132.5-14.8,197.1c-4.5,21.5-11.4,44.2-28.7,57.7c-21,16.4-50.9,14.3-76.7,7.5
					c-19.2-5.1-38.4-12.7-52.9-26.3c-21.5-20.2-29.8-50.6-34.1-79.8c-7.5-51.4-5.2-104.1,12.1-159c26.6-5.5,53.3-10.9,79.9-16.4
					c19.5-4,39.3-8,59.3-7.1C722.7,365.8,743.1,372.3,758.7,391.2z"/>
			</g>
		</g>
		<g>
			<g>
				<path class="st18" d="M530.9,439.7c-1.6,16.6,1.5,33.6,8.9,48.4c30.9-12.2,51.8-42.6,53.7-76.8c9.7,10.6,19.5,21.3,31.3,29.5
					c11.8,8.2,26,13.8,40.3,12.8c-5.3-5.2-8.9-12.1-10-18.6c13.8,10.1,30.1,17.6,47.2,17.7c17.1,0.1,34.8-8.2,41.2-20.5
					c2.7,12.2,14.3,21.9,28.2,21.5c1.6-16.9,3.3-33.8,1.3-51.7c-37.6-11.8-77.6-13.2-117-11.7c-22.6,0.9-45.4,2.7-67.1,9.4
					C567.5,406.5,546.9,418.4,530.9,439.7z"/>
			</g>
		</g>
		<g>
			<g>
				<path class="st19" d="M826.5,437.7c-0.5,8.3-7.2,16.6-15.6,16.5c3.3-1.3,5.1-8.5,2.9-13.5c-2.2-5.1-7.1-8.4-11.9-11.2
					c-42-24.3-93.3-26-141.7-22c-46,3.8-93.6,13.1-130,41.4c0-3.1-0.1-6.3-0.1-9.4c0-0.8,0-1.6,0-2.3c-0.1-18.1,0.4-35.8,3.7-53.2
					c4-21.2,12.6-42,27.8-57.2c13.3-13.3,30.9-21.6,49.2-26.2c1.8-0.4,3.6-0.8,5.4-1.2c0,0,0,0,0,0c0.7-0.2,1.4-0.3,2.1-0.4
					c21-4,42.6-3.8,63.9-3.3c17.1,0.4,34.9,1,50.2,8.7c15.1,7.6,26.5,21.5,32.7,37.2c6.2,15.5,7.6,32.6,6.2,49.2
					c0,0.2,0,0.4-0.1,0.6c4.7,0.5,9.4,1.5,13.8,2.8c12.7,3.8,24,10.9,32.2,20.7C822.9,421.4,827.1,429.4,826.5,437.7z"/>
			</g>
		</g>
		<g>
			<g>
				<path class="st20" d="M810.5,455.5c-12.5,1.3-25.2,0.7-38.8-1.7c0.3-12.3,1.1-24.6,3.4-37.5c8.6,1.8,17,4.9,24.7,9.3
					c5.4,3.1,10.5,6.9,13.4,12.4C816,443.4,815.9,450.8,810.5,455.5z"/>
			</g>
		</g>
		<g>
			<g>
				<path class="st21" d="M565.8,485.8c-4.5-7.4-9.7-14.6-16.6-19.8s-15.9-8.3-24.4-6.6c-10.8,2.1-19.3,11.9-21.2,22.8
					c-1.9,10.9,2.1,22.3,9.4,30.6c8.4,9.7,22.5,15.5,34.4,10.6c6.8-2.8,12-8.7,15-15.5S565.9,493.6,565.8,485.8z"/>
			</g>
		</g>
		<g>
			<g>
				<path class="st22" d="M1192.5,1233.4c-1.1,1.8-2.4,3.3-3.7,4.4c-6.1,5.2-14.6,6.5-22.5,7.5c-153.6,20.8-307.2,41.6-461.1,60.6
					c2-2.9,3.9-5.9,5.9-8.8c1.6-2.4,3.2-4.9,4.8-7.3c2.3-3.5,4.5-7.1,6.8-10.7c0.3-0.5,0.6-0.9,0.9-1.4c96-19,193.7-35.5,291.8-47.5
					l8.2-1c56.6-6.8,113.4-12,170.2-15.4C1198.2,1218.1,1196.4,1227.2,1192.5,1233.4z"/>
			</g>
		</g>
		<g>
			<g>
				<path class="st22" d="M722.5,1279.2c-2.2,3.6-4.5,7.2-6.8,10.7L500,1195.9c0.9-1.1,2.1-2.1,3.5-2.6c3.4-1.2,7.1,0.2,10.4,1.5
					c68.4,27.5,136.8,55,205.2,82.5C720.8,1277,722.1,1278,722.5,1279.2z"/>
			</g>
		</g>
		<g>
			<g>
				<path class="st22" d="M1289.8,943.3c-1.5,4.1-2.9,8.3-4.4,12.4c-98,12.5-429.3,56-452.7,72.9c-22.9,16.5-77.8,189.4-95.4,246.2
					c-4.5,0.7-9,1.4-13.6,2.1c27.6-77.6,53.1-154,78.6-230.4c5.6-16.8,11.8-34.5,25.5-45.7c13.5-11.1,31.9-13.8,49.2-16
					c134.6-17.6,269.1-35.1,403.7-52.7C1287,931.3,1291.9,937.4,1289.8,943.3z"/>
			</g>
		</g>
		<g>
			<g>
				
					<ellipse transform="matrix(0.2244 -0.9745 0.9745 0.2244 -290.2993 1872.298)" class="st22" cx="1031" cy="1118.5" rx="33.7" ry="25.6"/>
			</g>
		</g>
		<g>
			<g>
				<ellipse class="st23" cx="186" cy="1377.9" rx="117.5" ry="33.6"/>
			</g>
		</g>
		<g>
			<g>
				<g>
					<g>
						<path class="st24" d="M262.5,1243.3c-22.6,0-40.9,22.7-40.9,50.7c0,28,18.3,50.7,40.9,50.7c22.6,0,40.9-22.7,40.9-50.7
							C303.5,1266,285.2,1243.3,262.5,1243.3z M262.5,1329.8c-15.9,0-28.9-16-28.9-35.8s12.9-35.8,28.9-35.8s28.9,16,28.9,35.8
							S278.5,1329.8,262.5,1329.8z"/>
					</g>
				</g>
			</g>
			<g>
				<g>
					<path class="st24" d="M257.7,1212.8v143c0,17.2-13.2,31.1-29.6,31.1h-84.8c-16.3,0-29.6-13.9-29.6-31.1v-143
						c0-11,32.2-19.9,72-19.9C225.4,1192.9,257.7,1201.8,257.7,1212.8z"/>
				</g>
			</g>
			<g>
				<g>
					<g>
						<path class="st25" d="M251.7,1219.4c0,3.6-3.8,7-10.4,9.8c-11.7,5.1-32.2,8.4-55.6,8.4c-22.9,0-43.1-3.2-54.9-8.1
							c-7-2.9-11-6.4-11-10.1c0-10.1,29.5-18.2,66-18.2C222.1,1201.2,251.7,1209.3,251.7,1219.4z"/>
					</g>
				</g>
				<g>
					<g>
						<path class="st26" d="M251.7,1219.4c0,3.6-3.8,7-10.4,9.8c-17.2-9.1-35.8-15.2-55-15.9c-19.5-0.7-39.6,4.7-55.6,16.2
							c-7-2.9-11-6.4-11-10.1c0-10.1,29.5-18.2,66-18.2C222.1,1201.2,251.7,1209.3,251.7,1219.4z"/>
					</g>
				</g>
			</g>
		</g>
		<g>
			<g>
				<path class="st27" d="M986.3,1439.9c-1,0-1.9-0.6-2.3-1.5c-0.6-1.3,0-2.7,1.3-3.3c17-7.4,34.5-15.1,53.2-18.8
					c0.9-0.2,1.9-0.4,2.8-0.5c4-0.7,7.7-1.5,11.2-2.9c3-1.2,5.7-2.9,8.7-4.6c2.3-1.4,4.6-2.8,7.1-4c7.6-3.7,16-4.9,24-6.1
					c6.2-0.9,12.6-1.9,18.4-3.9c2.7-0.9,5.5-2.2,8.1-3.4c5.5-2.5,11.2-5,17.5-5.5c1.8-0.1,3.5-0.1,5.2-0.1c2.4,0,4.7,0.1,6.8-0.4
					c3-0.6,6.2-2.8,6.3-5.6c0.1-1.2,1-2.3,2.3-2.4l25.9-2.6c1.4-0.1,2.6,0.9,2.7,2.2c0.1,1.4-0.9,2.6-2.2,2.7l-24,2.4
					c-1.3,4.4-5.8,7.2-9.9,8.1c-2.7,0.5-5.4,0.5-7.9,0.5c-1.6,0-3.2-0.1-4.7,0.1c-5.4,0.4-10.5,2.7-15.9,5.1
					c-2.8,1.2-5.6,2.5-8.5,3.5c-6.3,2.2-12.9,3.2-19.3,4.1c-8.1,1.2-15.7,2.3-22.6,5.7c-2.3,1.1-4.4,2.4-6.7,3.8c-3,1.8-6,3.7-9.4,5
					c-4,1.6-8.1,2.4-12.1,3.1c-0.9,0.2-1.9,0.4-2.8,0.5c-18.1,3.6-35.4,11.2-52.1,18.5C987,1439.8,986.6,1439.9,986.3,1439.9z"/>
			</g>
		</g>
		<g>
			<g>
				<path class="st27" d="M950.2,1430.4c-1,0-1.9-0.6-2.3-1.5c-0.5-1.3,0.1-2.7,1.3-3.3l82.1-34.2c7-2.9,14.3-6,22.2-6.9
					c1.6-0.2,3.2-0.3,4.8-0.4c2.6-0.1,5-0.3,7.3-0.8c5.7-1.3,10.6-4.6,15.8-8.2c2.5-1.7,5-3.5,7.7-5c15-8.6,32.9-9.5,48.6-10.3
					c1.4-0.1,2.6,1,2.6,2.4s-1,2.6-2.4,2.6c-15.2,0.8-32.4,1.6-46.4,9.6c-2.5,1.4-5,3.1-7.3,4.8c-5.4,3.7-10.9,7.5-17.6,9
					c-2.7,0.6-5.5,0.8-8.1,0.9c-1.6,0.1-3,0.2-4.5,0.3c-7.2,0.8-14.2,3.7-20.9,6.5l-82.1,34.2
					C950.9,1430.4,950.5,1430.4,950.2,1430.4z"/>
			</g>
		</g>
		<g>
			<g>
				<path class="st27" d="M907.3,1419c-1.2,0-2.3-0.9-2.5-2.2c-0.2-1.4,0.8-2.6,2.1-2.8c10.7-1.5,21-4.9,30.5-10
					c2.3-1.2,4.6-2.6,6.8-3.9c4.7-2.8,9.5-5.7,14.7-7.6c5.6-2.1,11.5-3.2,17.3-4.1c6.3-1.1,12.2-2.1,17.8-4.5
					c4.3-1.8,8.1-4.3,12.2-7c2.3-1.5,4.7-3.1,7.2-4.5c7.4-4.2,15.5-7.2,23.9-8.7c1-0.2,2-0.3,3-0.5c4-0.6,7.7-1.2,10.9-3
					c1.9-1,3.6-2.4,5.4-3.9c0.9-0.8,1.9-1.6,2.9-2.3c13.6-10.2,31.5-10.3,50-9.5c1.4,0.1,2.4,1.2,2.4,2.6s-1.2,2.5-2.6,2.4
					c-17.6-0.8-34.5-0.8-46.8,8.5c-0.9,0.7-1.8,1.4-2.7,2.2c-1.9,1.6-3.9,3.2-6.2,4.5c-4,2.1-8.3,2.8-12.5,3.5
					c-1,0.2-1.9,0.3-2.9,0.5c-7.9,1.4-15.4,4.1-22.3,8.1c-2.3,1.3-4.7,2.9-6.9,4.3c-4.1,2.7-8.3,5.4-13,7.4
					c-6.1,2.6-12.6,3.7-18.9,4.8c-5.8,1-11.2,1.9-16.4,3.9c-4.8,1.8-9.2,4.5-13.9,7.3c-2.3,1.4-4.6,2.7-7,4
					c-10,5.4-20.9,9-32.2,10.6C907.5,1419,907.4,1419,907.3,1419z"/>
			</g>
		</g>
		<g>
			<g>
				<path class="st27" d="M953.9,1373.4c-1,0-1.9-0.6-2.3-1.6c-0.5-1.3,0.1-2.7,1.4-3.3l35.8-14.5c4.1-1.7,8.3-3.4,12.7-4.5
					c1.6-0.4,3.1-0.8,4.7-1.1c3.3-0.7,6.4-1.4,9.3-2.7c2.8-1.3,5.3-3.2,8-5.2c1.8-1.4,3.7-2.8,5.7-4c10.7-6.6,23.6-7.3,34.9-8
					c1.4-0.1,2.6,1,2.6,2.4c0.1,1.4-1,2.6-2.4,2.6c-10.8,0.6-22.9,1.3-32.6,7.2c-1.8,1.1-3.5,2.4-5.3,3.7c-2.7,2.1-5.6,4.2-8.9,5.7
					c-3.4,1.5-6.9,2.3-10.3,3.1c-1.5,0.3-3,0.6-4.5,1c-4.1,1.1-8.2,2.7-12.1,4.3l-35.8,14.5C954.5,1373.4,954.2,1373.4,953.9,1373.4
					z"/>
			</g>
		</g>
		<g>
			<g>
				<path class="st27" d="M872.2,1372.7c-0.9,0-1.8-0.5-2.2-1.4c-0.6-1.2-0.1-2.7,1.1-3.4c22.3-11.4,46.8-18,70.5-24.4
					c4.6-1.3,9.2-2.5,13.8-3.8c2.1-0.6,3.9-1.1,4.9-2.3c0.4-0.5,0.8-1.2,1.2-1.9c0.4-0.8,0.9-1.6,1.6-2.4c2-2.5,4.8-3.6,7.6-4.5
					c14.7-5,30-8.1,45.5-9c1.4-0.1,2.6,1,2.7,2.3c0.1,1.4-1,2.6-2.3,2.7c-15.1,0.9-29.9,3.9-44.2,8.8c-2.1,0.7-4.2,1.5-5.3,2.9
					c-0.4,0.5-0.7,1.1-1.1,1.7c-0.5,0.9-1.1,1.9-1.9,2.8c-2.1,2.3-5.1,3.1-7.2,3.7c-4.6,1.3-9.2,2.5-13.9,3.8
					c-23.5,6.4-47.7,12.9-69.6,24.1C873,1372.7,872.6,1372.7,872.2,1372.7z"/>
			</g>
		</g>
		<g>
			<g>
				<path class="st27" d="M778.9,1458.8c-1,0-2-0.6-2.3-1.6c-0.5-1.3,0.2-2.7,1.4-3.2c11.9-4.5,24.3-7.7,36.8-9.5
					c2.6-0.4,5.1-0.8,6.1-2.3c0.1-0.2,0.3-0.5,0.5-0.9c0.3-0.6,0.6-1.2,1.1-1.9c1.9-2.5,5-3,7.2-3.2c4.8-0.4,9.5-0.1,14.2,1
					c1.3,0.3,2.2,1.7,1.8,3c-0.3,1.3-1.7,2.2-3,1.8c-4.1-1-8.3-1.3-12.5-0.9c-1.3,0.1-3,0.4-3.7,1.3c-0.2,0.2-0.4,0.6-0.5,1
					c-0.2,0.4-0.4,0.9-0.8,1.5c-2.3,3.5-6.7,4.1-9.6,4.5c-12.2,1.7-24.2,4.8-35.7,9.2C779.5,1458.7,779.2,1458.8,778.9,1458.8z"/>
			</g>
		</g>
		<g>
			<g>
				<path class="st27" d="M772.4,1447.4c-0.9,0-1.7-0.4-2.2-1.2c-0.7-1.2-0.3-2.7,0.9-3.4c6-3.5,12.8-5.4,19.7-5.5
					c1.3,0,2.1-0.3,2.5-0.5c0-0.1-0.1-0.1-0.1-0.2c-0.2-0.5-0.6-1.2-0.7-2c-0.3-3.1,2.2-5.5,6.4-6.1c6.8-1.1,13.7-1.4,20.6-0.9
					c1.4,0.1,2.4,1.3,2.3,2.7s-1.3,2.4-2.7,2.3c-6.5-0.5-13-0.2-19.5,0.8c-1.1,0.2-1.8,0.5-2.1,0.8c0,0.1,0.1,0.2,0.2,0.3
					c0.3,0.5,0.6,1.3,0.7,2.2c0.1,1.3-0.3,2.4-1.1,3.4c-1.7,1.9-4.7,2.2-6.4,2.3c-6.1,0.1-12.1,1.8-17.3,4.9
					C773.2,1447.3,772.8,1447.4,772.4,1447.4z"/>
			</g>
		</g>
		<g>
			<g>
				<path class="st27" d="M740.4,1435.7c-1,0-1.9-0.6-2.3-1.6c-0.5-1.3,0.1-2.7,1.4-3.3c3.8-1.5,7.7-1.8,11.6-2.1
					c1.1-0.1,2.1-0.1,3.2-0.2c5.4-0.5,9.1-2,11.2-4.4c0.3-0.3,0.6-0.7,0.8-1.1c0.5-0.7,1.1-1.4,1.8-2.1c2-1.9,4.6-2.8,7.2-3.5
					c7.4-2.1,15-3.9,22.6-5.3c1.3-0.3,2.7,0.6,2.9,2c0.3,1.4-0.6,2.7-2,2.9c-7.4,1.4-14.9,3.2-22.2,5.2c-2.1,0.6-3.9,1.2-5.1,2.3
					c-0.4,0.4-0.8,0.9-1.2,1.5c-0.3,0.5-0.7,0.9-1.1,1.3c-3,3.5-7.7,5.5-14.5,6.1c-1.1,0.1-2.2,0.2-3.3,0.3c-3.6,0.3-7,0.5-10.1,1.7
					C741,1435.7,740.7,1435.7,740.4,1435.7z"/>
			</g>
		</g>
		<g>
			<g>
				<path class="st27" d="M728.5,1422.4c-1.1,0-2.1-0.8-2.4-1.9c-0.3-1.3,0.5-2.7,1.8-3l17.1-4.2c-0.5-3.4,2.1-6.7,7-8.5
					c8.2-3,16.7-4.9,25.5-5.4c1.4-0.1,2.6,0.9,2.7,2.3c0.1,1.4-1,2.6-2.3,2.7c-8.2,0.5-16.3,2.3-24.1,5.1c-2.3,0.9-4,2.2-3.8,3.1
					c0,0.1,0,0.1,0.1,0.2c0.2,0.6,0.5,1.8-0.1,3c-0.8,1.6-2.3,1.9-2.9,2.1l-17.9,4.4C728.9,1422.4,728.7,1422.4,728.5,1422.4z"/>
			</g>
		</g>
		<g>
			<g>
				<path class="st27" d="M699.1,1410.7c-0.7,0-1.4-0.3-1.9-0.8c-0.9-1-0.9-2.6,0.2-3.5c3-2.7,6.7-3.3,10.4-3.9
					c2.2-0.3,4.3-0.7,6-1.4c1.6-0.7,3.1-1.8,4.6-3c0.6-0.5,1.2-0.9,1.8-1.3c8.1-5.9,18.1-8.3,27-10.5c1.3-0.3,2.7,0.5,3,1.8
					c0.3,1.3-0.5,2.7-1.8,3c-8.4,2-17.9,4.3-25.2,9.7c-0.6,0.4-1.1,0.8-1.6,1.2c-1.7,1.3-3.5,2.7-5.6,3.6c-2.4,1-4.9,1.4-7.3,1.8
					c-3,0.5-5.9,0.9-7.8,2.6C700.3,1410.5,699.7,1410.7,699.1,1410.7z"/>
			</g>
		</g>
		<g>
			<g>
				<path class="st27" d="M690.2,1400c-0.9,0-1.8-0.5-2.3-1.4c-0.6-1.2-0.1-2.7,1.2-3.3l28.3-13.4c1.2-0.6,2.7-0.1,3.3,1.2
					s0.1,2.7-1.2,3.3l-28.3,13.4C690.9,1399.9,690.5,1400,690.2,1400z"/>
			</g>
		</g>
		<g>
			<g>
				<path class="st27" d="M435.3,1372c-1.3,0-2.4-1-2.5-2.3c-0.1-1.4,0.9-2.6,2.3-2.7l89.7-7.6c2.3-0.2,4.8-0.4,7-1
					c1.7-0.5,3.3-1.2,5.1-1.9l1.1-0.4c19.4-8.1,41.5-10.3,62.1-6.1c1.4,0.3,2.2,1.6,2,2.9s-1.6,2.2-2.9,2
					c-19.7-3.9-40.7-1.9-59.2,5.9l-1,0.4c-1.8,0.8-3.7,1.6-5.7,2.1c-2.6,0.7-5.3,0.9-7.8,1.1l-89.7,7.6
					C435.5,1372,435.4,1372,435.3,1372z"/>
			</g>
		</g>
		<g>
			<g>
				<path class="st27" d="M405.4,1352.2c-1.3,0-2.4-1-2.5-2.3c-0.1-1.4,0.9-2.6,2.2-2.7l79.8-7.8c7.4-0.7,15.1-1.5,22.1-4
					c3.3-1.2,6.5-2.7,9.8-4.4c2.5-1.2,5-2.5,7.6-3.5c14.9-6.2,32.2-6.7,47.4-1.3c1.3,0.5,2,1.9,1.5,3.2s-1.9,2-3.2,1.5
					c-14.1-5-30.1-4.5-43.8,1.2c-2.5,1-4.9,2.2-7.3,3.4c-3.3,1.6-6.7,3.3-10.3,4.6c-7.6,2.7-15.6,3.5-23.3,4.2l-79.8,7.8
					C405.6,1352.2,405.5,1352.2,405.4,1352.2z"/>
			</g>
		</g>
		<g>
			<g>
				<path class="st27" d="M445.6,1325.8c-6.1,0-12.3-0.6-18.4-1.1c-10.6-1-21.6-2-31.7,0.1c-1.4,0.3-2.7-0.6-2.9-2s0.6-2.7,2-2.9
					c10.9-2.2,22.2-1.2,33.2-0.1c14.5,1.3,28.2,2.6,40.4-3.2c2.3-1.1,4.4-2.4,6.7-3.7c2.5-1.5,5.1-3.1,7.9-4.3
					c12.2-5.5,25.6-4.2,38.6-2.9c5.3,0.5,10.7,1,15.9,1.1c1.4,0,2.5,1.1,2.5,2.5c0,1.4-1.1,2.5-2.5,2.5c0,0,0,0,0,0
					c-5.4-0.1-11-0.6-16.3-1.1c-12.9-1.3-25.1-2.4-36.1,2.5c-2.5,1.1-4.8,2.5-7.3,4c-2.3,1.4-4.6,2.8-7.1,4
					C462.4,1324.7,454.1,1325.8,445.6,1325.8z"/>
			</g>
		</g>
		<g>
			<g>
				<path class="st27" d="M445.5,1301c-1.3,0-2.4-1-2.5-2.3c-0.1-1.4,0.9-2.6,2.3-2.7l23.5-2.2c1.8-0.2,3.4-0.4,4.2-1.2
					c0.4-0.4,0.7-1,1.1-1.6c0.4-0.7,0.8-1.5,1.4-2.3c2.1-2.5,5.2-3.3,7.9-3.9c10.1-2.1,20.4-3.2,30.7-3.4c0,0,0,0,0,0
					c1.4,0,2.5,1.1,2.5,2.5c0,1.4-1.1,2.5-2.5,2.5c-10,0.1-20,1.2-29.7,3.3c-2,0.4-4,0.9-5.1,2.2c-0.3,0.4-0.6,0.9-0.9,1.5
					c-0.5,0.9-1,1.9-1.9,2.8c-2.2,2.1-5.2,2.4-7.3,2.6l-23.5,2.2C445.7,1301,445.6,1301,445.5,1301z"/>
			</g>
		</g>
		<g>
			<g>
				<path class="st27" d="M401.3,1292.5c-1,0-1.9-0.5-2.3-1.5c-0.6-1.3,0-2.7,1.2-3.3c15-6.8,31.7-10.6,48.2-10.9
					c1.1,0,4.4-0.1,5-1.4c0.1-0.3,0.2-0.9,0.2-1.6c0-0.5,0-1,0.1-1.5c0.5-3.9,3.5-8.9,14.6-11c12.5-2.4,25.3-3.4,38-3.1
					c1.4,0,2.5,1.2,2.4,2.6c0,1.4-1.1,2.4-2.5,2.4c0,0,0,0-0.1,0c-12.4-0.3-24.8,0.7-36.9,3c-3.7,0.7-10,2.5-10.6,6.8
					c0,0.3-0.1,0.7-0.1,1c0,0.9-0.1,2.1-0.6,3.3c-1.8,4.3-7.4,4.4-9.5,4.5c-15.8,0.3-31.8,3.9-46.2,10.5
					C402,1292.4,401.7,1292.5,401.3,1292.5z"/>
			</g>
		</g>
		<g>
			<g>
				<path class="st27" d="M378.3,1271.4c-1.1,0-2.1-0.7-2.4-1.8c-0.4-1.3,0.3-2.7,1.7-3.1c11.4-3.5,23.1-5.8,35-6.9
					c1.4-0.1,2.6,0.9,2.7,2.3c0.1,1.4-0.9,2.6-2.3,2.7c-11.5,1-22.9,3.3-34,6.7C378.8,1271.4,378.5,1271.4,378.3,1271.4z"/>
			</g>
		</g>
	</g>
	<g style="clip-path:url(#SVGID_00000072276243767748993990000011872645868636946817_);">
		<g>
			<g>
				<g>
					<path class="st28" d="M609.4,773.7c-19.6,0-39.2-5.5-55.6-16.5c-22.4-15-39.3-39.8-47.8-69.9c-6.8-24.2-8.4-52.1-4.9-85.3
						c0.1-0.8,0.8-1.4,1.6-1.3c0.8,0.1,1.4,0.8,1.3,1.6c-3.5,32.8-1.9,60.4,4.8,84.2c8.2,29.4,24.8,53.6,46.6,68.2
						c31.9,21.4,76.4,21.3,108.2-0.2c31.8-21.6,48.4-62.9,40.3-100.4c-0.2-0.8,0.3-1.6,1.2-1.8c0.8-0.2,1.6,0.3,1.8,1.2
						c8.3,38.7-8.7,81.3-41.6,103.6C649,768.1,629.2,773.7,609.4,773.7z"/>
				</g>
			</g>
		</g>
		<g>
			<g>
				<g>
					<path class="st28" d="M391.6,1024.7c-0.1,0-0.1,0-0.2,0c-0.8-0.1-1.4-0.8-1.3-1.7c7.4-66.1,19.4-132.2,35.8-196.6
						c0.2-0.8,1-1.3,1.8-1.1c0.8,0.2,1.3,1,1.1,1.8c-16.4,64.3-28.4,130.3-35.8,196.2C393,1024.1,392.3,1024.7,391.6,1024.7z"/>
				</g>
			</g>
		</g>
		<g>
			<g>
				<g>
					<path class="st28" d="M398.4,973c-0.2,0-0.5-0.1-0.7-0.2c-56.5-31-117.4-51.7-181.1-61.6c-0.8-0.1-1.4-0.9-1.3-1.7
						c0.1-0.8,0.9-1.4,1.7-1.3c64,9.9,125.3,30.8,182.1,61.9c0.7,0.4,1,1.3,0.6,2C399.4,972.7,398.9,973,398.4,973z"/>
				</g>
			</g>
		</g>
		<g>
			<g>
				<g>
					<path class="st28" d="M393.1,1011.2c-0.3,0-0.5-0.1-0.8-0.2c-55.5-32.2-115.6-54.3-178.8-65.6c-0.8-0.1-1.4-0.9-1.2-1.7
						s0.9-1.4,1.7-1.2c63.5,11.3,124,33.5,179.8,65.9c0.7,0.4,1,1.3,0.5,2.1C394.1,1010.9,393.6,1011.2,393.1,1011.2z"/>
				</g>
			</g>
		</g>
		<g>
			<g>
				<g>
					<path class="st28" d="M826.5,975.1C826.5,975.1,826.5,975.1,826.5,975.1c-0.8,0-1.5-0.7-1.5-1.5c0.1-66.8,4.2-134.3,12.2-200.7
						c0.1-0.8,0.8-1.4,1.7-1.3c0.8,0.1,1.4,0.8,1.3,1.7c-8,66.2-12.1,133.6-12.2,200.3C828,974.4,827.4,975.1,826.5,975.1z"/>
				</g>
			</g>
		</g>
		<g>
			<g>
				<g>
					<path class="st28" d="M829.6,916.4c-0.5,0-1.1-0.3-1.3-0.8c-0.4-0.7-0.1-1.6,0.6-2c40.3-21.3,79.8-45.2,117.3-71.2
						c0.7-0.5,1.6-0.3,2.1,0.4c0.5,0.7,0.3,1.6-0.4,2.1c-37.6,26-77.2,50-117.6,71.4C830.1,916.3,829.9,916.4,829.6,916.4z"/>
				</g>
			</g>
		</g>
		<g>
			<g>
				<g>
					<path class="st28" d="M827.1,948.5c-0.6,0-1.1-0.3-1.4-0.9c-0.3-0.8,0-1.6,0.8-2c46.4-19.9,90.6-44.9,131.5-74.5
						c0.7-0.5,1.6-0.3,2.1,0.3c0.5,0.7,0.3,1.6-0.3,2.1c-41.1,29.7-85.5,54.9-132.1,74.8C827.5,948.4,827.3,948.5,827.1,948.5z"/>
				</g>
			</g>
		</g>
		<g>
			<g>
				<path class="st28" d="M405.7,928.1c6.8,55.2,28.6,108.6,62.1,154c-34-8.6-68-17.2-103.3-25.9c0.8-10.3,1.6-20.5,2.7-32.7
					c7.3,0.6,14.5,1.2,23.4,1.1C394.5,992.2,399.7,959.9,405.7,928.1z"/>
			</g>
		</g>
		<g>
			<g>
				<g>
					<path class="st14" d="M364.5,1057.7c-0.3,0-0.5-0.1-0.8-0.2c-5.8-3.6-48.7-13.2-64.7-16.6c-0.8-0.2-1.3-1-1.2-1.8
						c0.2-0.8,1-1.3,1.8-1.2c2.4,0.5,58.3,12.3,65.7,17c0.7,0.4,0.9,1.4,0.5,2.1C365.5,1057.4,365,1057.7,364.5,1057.7z"/>
				</g>
			</g>
		</g>
		<g>
			<g>
				<g>
					<path class="st17" d="M785.3,394.2c0,0,0,0.1,0,0.1c-0.1,0.5-0.6,0.8-1.1,0.7c-86.5-15.7-178,0.6-254,44.6c0-0.8,0-1.6,0-2.3
						c14.2-8.2,29-15.4,44.1-21.6c0.9-0.4,1.7-0.7,2.6-1.1c61.3-24.7,129.1-33.2,194.6-23.7c4.3,0.6,8.7,1.3,13,2.1
						C785.1,393.1,785.4,393.6,785.3,394.2z"/>
				</g>
			</g>
		</g>
		<g>
			<g>
				<g>
					<path class="st17" d="M576.9,414.5c0,0,0,0.1,0,0.2c0,0.8-0.5,1.4-1.3,1.5c-0.1,0-0.1,0-0.2,0c-0.4,0-0.8-0.2-1.1-0.5
						c-0.2-0.2-0.3-0.5-0.4-0.8c-5.9-40.9,8.6-84.4,37-114.2c1.8-0.4,3.6-0.8,5.4-1.2C586.5,328.6,570.9,373,576.9,414.5z"/>
				</g>
			</g>
		</g>
		<g>
			<g>
				<path class="st29" d="M727.1,1180.7c-3.3,0-6.7-1.3-9.3-3.4c-3.8-3.2-6-7.6-8-11.8c-0.3-0.6-0.5-1.1-0.8-1.7
					c-16.1-32.5-51.4-54.7-87.7-55.3c-1.4,0-2.5-1.2-2.5-2.5c0-1.4,1.1-2.5,2.5-2.5c0,0,0,0,0,0c38.1,0.6,75.1,23.9,92.1,58.1
					c0.3,0.6,0.6,1.1,0.8,1.7c1.9,3.9,3.7,7.7,6.7,10.2c2.9,2.4,8,3.2,10.3,0.5c1.5-1.7,1.8-4.6,1.1-8.8
					c-3.5-19.5-17.9-36.2-29.6-49.6c-13.6-15.6-26.2-28.9-43.1-33.1c-1.3-0.3-2.2-1.7-1.8-3c0.3-1.3,1.7-2.2,3-1.8
					c18.4,4.5,31.6,18.4,45.7,34.7c12,13.9,27,31.1,30.7,52c1,5.8,0.3,10-2.2,12.9C733,1179.6,730.1,1180.7,727.1,1180.7z"/>
			</g>
		</g>
		<g>
			<g>
				<path class="st29" d="M708.3,1201.1c-2.2,0-4.3-0.4-6.3-1.2c-6.8-2.8-10.8-9.4-14.2-15.3c-0.5-0.9-1.1-1.8-1.6-2.8
					c-14.9-24.2-43.9-39-72.2-36.8c-1.4,0.1-2.6-0.9-2.7-2.3s0.9-2.6,2.3-2.7c30.2-2.3,61,13.4,76.8,39.2c0.6,0.9,1.1,1.9,1.7,2.8
					c3.2,5.4,6.5,11,11.8,13.2c4.7,1.9,10.5,0.6,13.9-3.2c3.4-3.8,4-9.7,1.5-14.1c-0.7-1.2-0.2-2.7,1-3.4c1.2-0.7,2.7-0.2,3.4,1
					c3.5,6.2,2.6,14.6-2.1,19.9C718.2,1199,713.2,1201.1,708.3,1201.1z"/>
			</g>
		</g>
		<g>
			<g>
				<path class="st29" d="M680.2,1209.4c-8.1,0-15.5-4.2-20.6-7.5c-2.6-1.7-5.3-3.6-7.8-5.4c-5.8-4.1-11.2-8-17.4-10.7
					c-7.7-3.3-18.7-4.8-26.4,0.9c-1.1,0.8-2.7,0.6-3.5-0.5s-0.6-2.7,0.5-3.5c9.4-7.1,22.4-5.4,31.4-1.5c6.7,2.9,12.6,7.1,18.3,11.2
					c2.5,1.8,5,3.6,7.6,5.3c5.2,3.4,12.9,7.7,20.6,6.5c3.7-0.6,7.3-3.1,9.3-6.4c1-1.7,2-4.4,0.9-7.2c-0.5-1.3,0.2-2.7,1.5-3.2
					s2.7,0.2,3.2,1.5c1.4,3.7,0.9,7.7-1.2,11.5c-2.7,4.7-7.6,8.1-12.8,8.9C682.5,1209.3,681.4,1209.4,680.2,1209.4z"/>
			</g>
		</g>
		<g>
			<g>
				<path class="st29" d="M720.6,1130.6c-0.5,0-1-0.2-1.5-0.5c-1.1-0.8-1.3-2.4-0.5-3.5c11.2-15,26-27.4,42.8-35.7
					c1.2-0.6,2.7-0.1,3.4,1.1c0.6,1.2,0.1,2.7-1.1,3.4c-16.1,8-30.3,19.8-41,34.2C722.1,1130.2,721.3,1130.6,720.6,1130.6z"/>
			</g>
		</g>
		<g>
			<g>
				<path class="st29" d="M733.7,1154c-0.5,0-0.9-0.1-1.3-0.4c-1.2-0.7-1.5-2.3-0.8-3.5c6.7-10.5,15.8-19.6,26.2-26.4
					c1.2-0.8,2.7-0.4,3.5,0.7c0.8,1.2,0.4,2.7-0.7,3.5c-9.8,6.4-18.4,15-24.8,24.9C735.3,1153.6,734.5,1154,733.7,1154z"/>
			</g>
		</g>
		<g>
			<g>
				<path class="st29" d="M734.8,1188.9c-3.5,0-7-0.9-10-3.1c-1.1-0.8-1.4-2.4-0.5-3.5c0.8-1.1,2.4-1.3,3.5-0.5
					c5,3.7,12.2,2.1,16.8-0.8c5.5-3.5,9.6-9.5,13.2-14.7c0.8-1.1,2.3-1.4,3.5-0.7c1.1,0.8,1.4,2.3,0.7,3.5
					c-3.8,5.6-8.2,12-14.6,16.1C743.8,1187.4,739.3,1188.9,734.8,1188.9z"/>
			</g>
		</g>
		<g>
			<g>
				<path class="st29" d="M750.1,1203.9c-0.5,0-1-0.1-1.4-0.4c-3.2-2.2-5.3-5.8-5.7-10s1-8.2,3.8-10.9c1-1,2.6-0.9,3.5,0.1
					c1,1,0.9,2.6-0.1,3.5c-1.7,1.6-2.5,4.2-2.3,6.8c0.2,2.7,1.5,5,3.5,6.3c1.1,0.8,1.5,2.3,0.7,3.5
					C751.7,1203.5,750.9,1203.9,750.1,1203.9z"/>
			</g>
		</g>
	</g>
	<g style="clip-path:url(#SVGID_00000072276243767748993990000011872645868636946817_);">
		<path class="st30" d="M542.3,512.6c-0.4,0-0.9-0.2-1.2-0.6c-0.5-0.6-0.4-1.6,0.2-2.1c6.4-5.3,9-15,5.9-22.8
			c-3.1-7.7-11.7-13.1-20-12.4c-0.8,0.1-1.5-0.6-1.6-1.4c-0.1-0.8,0.6-1.5,1.4-1.6c9.7-0.7,19.4,5.3,23,14.3c3.6,9,0.8,20-6.8,26.2
			C543,512.5,542.7,512.6,542.3,512.6z"/>
	</g>
	<g style="clip-path:url(#SVGID_00000072276243767748993990000011872645868636946817_);">
		<path class="st30" d="M525.2,510.2c-0.1,0-0.1,0-0.2,0c-0.8-0.1-1.4-0.8-1.3-1.6c1.2-11.9,10.6-22.4,22.3-24.9
			c0.8-0.2,1.6,0.3,1.8,1.2c0.2,0.8-0.3,1.6-1.2,1.8c-10.3,2.2-18.9,11.8-20,22.2C526.7,509.6,526,510.2,525.2,510.2z"/>
	</g>
</g>
</svg>
