<?xml version="1.0" encoding="utf-8"?>
<svg xmlns="http://www.w3.org/2000/svg" xmlns:xlink="http://www.w3.org/1999/xlink" version= "1.1" width="1770px" height="1265px" viewBox="-345 433 1770 1265">
<g id="layer1">
<g style="fill:rgb(0,178,230); fill-opacity:1.0; stroke-linejoin: miter">
<path d="M-345.001,432.33722C-345.1765,432.33722,-345.34485,432.40692,-345.46896,432.53104C-345.59308,432.65515,-345.66278,432.8235,-345.66278,432.999L-345.66177,1698.0C-345.66177,1698.3655,-345.36548,1698.6617,-345.0,1698.6617L1425.001,1698.6627C1425.1765,1698.6627,1425.3447,1698.593,1425.4689,1698.4689C1425.593,1698.3447,1425.6627,1698.1765,1425.6627,1698.001L1425.6617,433.0C1425.6617,432.63452,1425.3655,432.33823,1425.0,432.33823L-345.001,432.33722 Z"/>
</g>
</g>
<g id="layer2">
<g style="fill:rgb(0,0,0); fill-opacity:1.0; stroke-linejoin: miter">
<path d="M259.39395,621.09357L535.4647,621.0965L811.5351,621.09686Q811.5351,800.618,811.53485,980.1407Q535.4641,980.13965,259.3935,980.1398Q259.39398,800.6169,259.39395,621.09357 Z"/>
</g>
<g style="fill:rgb(255,255,255); fill-opacity:1.0; stroke-linejoin: miter">
<path d="M273.40436,637.29956L535.4645,637.3002L797.5236,637.30054Q797.52435,799.644,797.52325,961.98724Q535.4641,961.98694,273.40442,961.98645Q273.40442,799.6432,273.40436,637.29956 Z"/>
</g>
<g>
<g style="fill:rgb(0,0,0); fill-opacity:1.0; stroke-linejoin: miter">
<path d="M639.1897,663.2657Q637.1211,663.2772,636.7422,663.66034Q636.36316,664.04346,636.3469,666.0576L636.41296,678.00714Q636.4204,679.34094,636.3954,679.7494Q636.371,680.2395,636.1575,681.03015Q636.0513,681.5207,635.589,681.60474Q635.5427,681.61053,635.499,681.6108Q635.1046,681.613,634.906,681.173Q634.76807,680.8471,634.6019,680.33075Q634.13074,678.78186,632.855,674.5153Q631.74585,670.84674,631.0807,668.6999Q630.85876,667.9387,630.44324,666.6345Q629.94495,665.1131,629.7787,664.56976Q629.41846,663.4012,628.3839,663.3796Q627.1969,663.3644,626.1278,663.3704Q624.52405,663.3792,623.18506,663.43567Q622.20544,663.46826,622.1024,664.55756Q622.02454,665.2113,622.0316,666.5178Q622.05115,670.0836,622.12024,682.5773Q622.18933,695.0984,622.2091,698.6641Q622.21643,699.9978,622.3014,700.62335Q622.44434,701.84753,623.697,701.9767Q624.2689,702.028,625.6572,702.02045Q627.9435,702.00775,628.3496,701.6243Q628.7289,701.2411,628.71655,699.0364Q628.73254,696.9405,628.7107,693.0481L628.67786,687.0869Q628.66846,685.37195,628.9098,684.7173Q629.09753,684.1991,629.5054,684.1424Q629.57166,684.1303,629.6327,684.13007Q629.99927,684.128,630.18823,684.547Q630.65674,685.60583,630.9061,686.36676L630.9048,686.36804Q631.0929,686.9579,635.03125,698.9473Q635.1145,699.21893,635.3082,699.7623Q635.5017,700.30566,635.6122,700.60455Q636.0277,701.9086,637.3613,701.9287Q638.9675,701.947,639.9746,701.9414Q642.1793,701.9292,642.61255,701.49133Q643.0459,701.05334,643.06104,698.87573Q642.99316,686.57245,642.87976,666.0487Q642.87463,665.0965,642.7615,664.33496Q642.6749,663.41003,641.77625,663.33325Q640.6052,663.25806,639.1897,663.2657 Z"/>
</g>
<g style="fill:rgb(0,0,0); fill-opacity:1.0; stroke-linejoin: miter">
<path d="M586.07764,663.55865Q584.49207,663.5674,582.6006,663.605Q581.3756,663.6388,581.1106,664.94696Q581.0316,665.4102,580.6609,667.31757Q580.3966,668.76166,580.2384,669.6607Q579.73596,672.35834,578.9169,676.85425Q577.9667,682.222,577.6229,684.0748Q577.5703,684.3746,577.51636,684.48376Q577.23206,685.13965,576.7931,685.1421Q576.77576,685.1423,576.7578,685.1412Q576.2676,685.1167,576.1017,684.6276Q575.76965,683.64954,575.6582,683.1602Q575.0989,680.4412,574.2025,675.9004Q573.0835,670.40814,572.7197,668.6135Q572.2721,666.41113,571.8821,664.7529Q571.65845,663.6926,570.67847,663.6981Q568.7185,663.68164,567.02405,663.69104Q565.3297,663.7004,563.9009,663.7355Q562.89386,663.7684,562.7636,664.8306Q562.68585,665.5389,562.6927,666.7907Q562.7127,670.4381,562.783,683.1767Q562.8576,696.6778,562.8724,699.37256Q562.87994,700.73346,562.9378,701.3321Q563.0524,702.3929,564.03284,702.4965Q565.0326,702.59344,566.00757,702.58795Q567.1044,702.5819,568.17004,702.44635Q569.204,702.3317,569.33435,701.3238Q569.43896,700.5339,569.4325,699.3634Q569.4231,697.6488,569.4064,694.65436Q569.3878,691.3064,569.3805,689.9454Q569.37256,688.52997,569.6146,688.0114Q569.6952,687.84766,569.94006,687.7648Q570.04553,687.72626,570.1345,687.7257Q570.3662,687.72455,570.4855,687.9797Q570.8988,688.8756,571.03784,689.39197Q571.5668,691.5122,572.4861,695.34534Q572.62537,695.88904,573.1825,698.19946Q573.6006,699.96655,573.879,701.0811Q574.0736,701.8421,574.40173,702.1397Q574.7301,702.4102,575.547,702.4602Q576.24927,702.5052,576.9712,702.5012Q577.4524,702.4985,577.94226,702.474Q578.9219,702.4141,579.2739,702.0855Q579.6533,701.7838,579.8657,700.8029Q580.2114,699.331,580.7948,696.5242Q580.98047,695.62494,581.3777,693.6357Q581.7484,691.75543,581.9607,690.74713Q582.19885,689.5209,582.52356,689.138Q582.6858,688.9466,582.90356,688.9453Q583.14844,688.944,583.2584,689.13403Q583.8097,690.3831,583.82043,692.3429Q583.82434,693.0234,583.84033,695.9359Q583.85266,698.1679,583.86035,699.5559Q583.86584,700.59033,583.95154,701.2976Q584.0658,702.24976,584.91003,702.3539Q585.97363,702.47766,587.0117,702.47174Q588.15393,702.4656,589.26514,702.30273Q590.2444,702.18823,590.3474,701.1262Q590.4247,700.33636,590.4181,699.1387Q590.3342,683.9502,590.2385,666.5841Q590.2317,665.3322,590.17444,664.8427Q590.05884,663.5912,588.9426,663.57Q587.6632,663.54987,586.07764,663.55865 Z"/>
</g>
<g style="fill:rgb(0,0,0); fill-opacity:1.0; stroke-linejoin: miter">
<path d="M496.91342,664.06396Q493.9058,664.08075,490.62582,664.1123Q488.61166,664.1237,488.2327,664.53394Q487.8538,664.91724,487.86533,667.0128L488.04367,699.3226Q488.05215,700.8741,488.08176,701.3093Q488.1686,702.2345,488.52438,702.5864Q488.90738,702.938,489.8878,703.0142Q490.16006,703.04004,490.75882,703.0366L502.76266,702.97034Q503.6337,702.96564,504.28622,702.8531Q505.31985,702.71136,505.4232,701.7035Q505.65726,699.71515,505.42764,697.5662Q505.31345,696.587,504.25113,696.45667Q503.7609,696.405,502.50864,696.412Q496.84695,696.4158,497.0375,696.4146Q495.70346,696.36755,495.18344,695.88055Q494.66367,695.3935,494.60184,694.05994Q494.47885,691.50195,494.5767,689.48694Q494.67545,687.6627,495.3259,687.1692Q495.7867,686.8126,497.36545,686.80396Q497.97794,686.80756,498.5173,686.80457Q500.1351,686.7958,501.09433,686.7291Q502.26437,686.66833,502.33957,685.4973Q502.41147,683.7276,502.34744,681.9859Q502.3148,680.97906,501.9592,680.6545Q501.63052,680.30225,500.65024,680.2533Q500.02402,680.22955,498.66312,680.2372Q498.24582,680.2484,497.889,680.25037Q497.17514,680.25415,496.7031,680.22034Q495.5596,680.17236,495.06693,679.6851Q494.5742,679.1979,494.51352,678.0549Q494.39017,675.41516,494.48355,672.61096Q494.53067,671.30414,495.04507,670.784Q495.55942,670.2912,496.92026,670.25635Q496.67532,670.2577,502.39133,670.1992Q503.61612,670.16516,504.13284,670.1079Q505.1666,669.9933,505.26993,668.9855Q505.3466,668.0596,505.3112,666.5898Q505.30136,664.79364,504.91824,664.4147Q504.50772,664.0359,502.65683,664.0461Q499.92136,664.04767,496.91342,664.06396 Z"/>
</g>
<g style="fill:rgb(0,0,0); fill-opacity:1.0; stroke-linejoin: miter">
<path d="M607.01636,663.4569Q604.00867,663.47327,600.72876,663.505Q598.7145,663.51624,598.3357,663.92664Q597.9568,664.3099,597.96826,666.4056L598.14636,698.7149Q598.1548,700.2664,598.18445,700.70197Q598.27124,701.62683,598.6271,701.9788Q599.01013,702.3306,599.9906,702.40674Q600.26294,702.4325,600.8617,702.42914L612.8655,702.363Q613.73645,702.35815,614.38916,702.2457Q615.42285,702.1039,615.5261,701.09607Q615.76013,699.1076,615.53064,696.9587Q615.41626,695.9795,614.354,695.8491Q613.86365,695.79755,612.6116,695.8043Q606.9498,695.80853,607.14026,695.8074Q605.8063,695.7602,605.2865,695.2732Q604.7665,694.7861,604.7046,693.4525Q604.58167,690.89453,604.67944,688.87964Q604.7782,687.05524,605.4287,686.5617Q605.8895,686.2053,607.4684,686.19666Q608.0808,686.2002,608.6201,686.1971Q610.2379,686.1882,611.19714,686.12177Q612.36707,686.06085,612.4424,684.8899Q612.5144,683.1202,612.45056,681.3786Q612.4176,680.37177,612.062,680.0469Q611.7334,679.6948,610.75305,679.6458Q610.1271,679.62213,608.7661,679.6296Q608.34875,679.641,607.9918,679.64294Q607.2781,679.64703,606.80615,679.6132Q605.66235,679.565,605.1698,679.07776Q604.677,678.5905,604.6162,677.44763Q604.4928,674.8079,604.5863,672.00354Q604.63354,670.6967,605.1477,670.17676Q605.66235,669.68384,607.0232,669.64923Q606.7782,669.6506,612.49426,669.5919Q613.7189,669.5577,614.2357,669.5003Q615.2694,669.38586,615.3728,668.3779Q615.44934,667.452,615.41394,665.98236Q615.40405,664.18616,615.0211,663.80725Q614.6106,663.4284,612.7599,663.4387Q610.0242,663.4403,607.01636,663.4569 Z"/>
</g>
<g style="fill:rgb(0,0,0); fill-opacity:1.0; stroke-linejoin: miter">
<path d="M652.1725,662.97644Q651.24695,662.98157,650.8661,663.038Q650.10425,663.09674,649.8065,663.3977Q649.50867,663.67163,649.458,664.3795Q649.38696,666.3124,649.4785,668.1084Q649.53735,668.89746,649.8656,669.19495Q650.194,669.5199,651.0381,669.5697Q651.41943,669.59485,652.345,669.58997Q653.1886,669.58527,653.67896,669.637Q654.68665,669.74036,655.09717,670.1463Q655.5078,670.5523,655.59485,671.559Q655.62415,671.93976,655.63184,673.32806L655.70215,686.0668Q655.756,695.81134,655.7738,699.0505Q655.78076,700.3298,655.8379,700.7922Q655.95374,702.0709,657.0427,702.09216Q657.89453,702.12244,658.781,702.11755Q659.96313,702.111,661.20703,702.0419Q662.2141,702.0091,662.3168,700.89246Q662.39453,700.18427,662.3862,698.68726L662.31775,686.2751Q662.26465,676.61237,662.24927,673.86316Q662.24023,672.2299,662.2654,671.87585Q662.34033,670.6232,662.82764,670.1306Q663.2876,669.63824,664.5394,669.54974Q664.92017,669.5204,665.76404,669.5157Q666.526,669.4842,666.9614,669.4546Q667.6688,669.3962,667.96643,669.0951Q668.2643,668.79407,668.3147,668.05884Q668.365,667.32367,668.3285,665.63605Q668.31775,663.67645,667.9347,663.29767Q667.5243,662.9188,665.5917,662.90234 Z"/>
</g>
<g style="fill:rgb(0,0,0); fill-opacity:1.0; stroke-linejoin: miter">
<path d="M446.42493,663.5211Q444.8805,663.5295,443.15277,663.96594Q440.46167,664.6342,438.67706,666.82166Q436.78455,669.17285,436.55756,672.41327Q436.15314,678.0502,440.26062,682.46436Q440.42474,682.6269,444.94086,687.1204Q447.37677,689.5296,447.76,689.90857Q449.37567,691.669,449.38934,694.146Q449.3957,695.28925,448.66595,696.246Q447.9364,697.2027,446.95782,697.4531Q446.5777,697.5481,446.22345,697.55005Q444.601,697.55896,443.518,695.62115Q443.27087,695.24146,443.1598,694.8338Q443.07654,694.562,442.9378,694.0728Q442.79852,693.50183,442.74323,693.33905Q442.4933,692.4421,442.13776,692.1446Q441.8139,691.89294,441.16022,691.89667Q441.04132,691.8973,440.91156,691.9062Q439.95905,691.93896,437.1848,692.3895Q436.34186,692.53033,436.26532,693.45624Q436.21478,694.16425,436.2998,694.7626Q436.72363,697.5912,438.75482,700.62866Q439.4134,701.60504,440.8612,702.52246Q442.97528,703.83374,445.74347,703.8184Q446.05103,703.81683,446.3667,703.79877Q449.27814,703.5919,449.44128,703.5639Q451.88904,703.16956,453.78217,700.9542Q455.64838,698.7934,455.98737,696.0696Q456.82422,689.886,452.57867,685.09143Q450.3874,682.6262,448.25525,681.00494Q446.8886,679.978,445.6833,678.5964Q443.19037,675.72485,443.60828,672.5377Q443.89465,670.16785,445.82562,669.8579Q446.07117,669.81445,446.30164,669.8131Q447.85718,669.8045,448.72125,671.72015Q448.83148,671.9644,448.9973,672.4263Q449.1906,672.9423,449.27362,673.15967Q449.64874,674.0569,450.60974,674.0515Q450.63794,674.0514,450.6667,674.0505Q452.65375,674.01227,454.96307,673.23724Q455.80536,672.96045,455.6914,672.0356Q455.26337,668.47205,453.15552,666.3063Q450.3963,663.4994,446.42493,663.5211 Z"/>
</g>
<g style="fill:rgb(0,0,0); fill-opacity:1.0; stroke-linejoin: miter">
<path d="M471.82062,663.3809Q470.27625,663.3894,468.54852,663.82574Q465.85742,664.4939,464.07294,666.68146Q462.18048,669.0328,461.95343,672.2733Q461.54895,677.9101,465.65625,682.32434Q465.8205,682.48663,470.33655,686.9803Q472.77258,689.38947,473.15576,689.76843Q474.77155,691.529,474.78516,694.006Q474.79144,695.14923,474.06195,696.106Q473.3321,697.06256,472.35352,697.313Q471.97357,697.4077,471.6192,697.40967Q469.99683,697.4186,468.91376,695.48096Q468.66663,695.10114,468.55554,694.69354Q468.47235,694.4219,468.3335,693.9325Q468.19427,693.3617,468.13885,693.1987Q467.88904,692.3019,467.5335,692.00446Q467.20966,691.7528,466.5559,691.7565Q466.43707,691.75714,466.30725,691.7662Q465.35474,691.79865,462.5808,692.2497Q461.7378,692.3904,461.66125,693.3163Q461.61072,694.0243,461.69562,694.62286Q462.11957,697.45135,464.1505,700.4886Q464.80933,701.46497,466.25696,702.3825Q468.37103,703.69366,471.13928,703.67847Q471.44678,703.67664,471.76245,703.6585Q474.674,703.4521,474.8371,703.4238Q477.2848,703.0294,479.17804,700.8141Q481.04428,698.6534,481.3831,695.92957Q482.22006,689.7456,477.97437,684.95105Q475.78326,682.4862,473.65094,680.86475Q472.28424,679.8378,471.07898,678.45636Q468.58612,675.58453,469.0041,672.3976Q469.29034,670.02765,471.2213,669.71765Q471.46692,669.67426,471.6974,669.673Q473.25287,669.6643,474.117,671.57996Q474.2273,671.8244,474.39313,672.28625Q474.5866,672.8023,474.66937,673.0196Q475.0445,673.91656,476.00555,673.9115Q476.0338,673.9112,476.0625,673.9103Q478.04944,673.8721,480.35892,673.09717Q481.20114,672.8204,481.0872,671.8955Q480.6591,668.332,478.5512,666.16614Q475.79218,663.35913,471.82062,663.3809 Z"/>
</g>
<g style="fill:rgb(0,0,0); fill-opacity:1.0; stroke-linejoin: miter">
<path d="M521.2241,663.1085Q519.6797,663.1169,517.952,663.55334Q515.26086,664.2216,513.47644,666.40894Q511.58383,668.7603,511.35672,672.00073Q510.95236,677.63763,515.0597,682.0518Q515.2239,682.21423,519.7401,686.7079Q522.17615,689.1172,522.5591,689.49615Q524.1749,691.2565,524.1887,693.73346Q524.19495,694.8766,523.4652,695.83344Q522.7355,696.7903,521.7571,697.0407Q521.37695,697.13556,521.0227,697.1374Q519.40015,697.1463,518.317,695.2086Q518.0702,694.8289,517.959,694.42114Q517.8756,694.14935,517.73706,693.6603Q517.59753,693.0893,517.54224,692.92633Q517.29236,692.02936,516.937,691.73193Q516.61304,691.4804,515.95935,691.48395Q515.84045,691.4846,515.7107,691.4938Q514.75806,691.52625,511.9841,691.9771Q511.1412,692.1178,511.0646,693.0437Q511.01407,693.75183,511.09903,694.35016Q511.52292,697.1788,513.55383,700.2161Q514.2125,701.1924,515.6603,702.1099Q517.77454,703.4211,520.5426,703.4059Q520.8501,703.4042,521.1658,703.3861Q524.0774,703.1795,524.2406,703.15137Q526.68823,702.75684,528.5814,700.5415Q530.44775,698.3807,530.7866,695.65686Q531.6234,689.4732,527.3778,684.6787Q525.18665,682.2138,523.05457,680.5924Q521.68774,679.5655,520.4824,678.18384Q517.98975,675.3123,518.4076,672.12506Q518.6937,669.75543,520.6249,669.44525Q520.87036,669.4018,521.1008,669.40045Q522.6564,669.3922,523.5205,671.30743Q523.63086,671.5519,523.79663,672.01373Q523.9901,672.5299,524.0729,672.74725Q524.448,673.6441,525.40894,673.63885Q525.4374,673.63873,525.46606,673.6378Q527.4529,673.59955,529.7623,672.82465Q530.6046,672.5477,530.4906,671.62286Q530.0626,668.05945,527.9547,665.8935Q525.19556,663.0865,521.2241,663.1085 Z"/>
</g>
<g style="fill:rgb(0,0,0); fill-opacity:1.0; stroke-linejoin: miter">
<path d="M546.6198,662.96857Q545.0754,662.9767,543.3477,663.4132Q540.6566,664.08124,538.8721,666.26874Q536.9796,668.6202,536.75256,671.8607Q536.34814,677.49774,540.45544,681.91156Q540.6196,682.07385,545.1357,686.56744Q547.57184,688.977,547.955,689.35596Q549.5705,691.11633,549.5844,693.5934Q549.5905,694.73663,548.861,695.6935Q548.1313,696.65015,547.1529,696.90063Q546.77277,696.9954,546.4184,696.99725Q544.79584,697.00604,543.7127,695.0683Q543.46576,694.68854,543.35455,694.28076Q543.2713,694.009,543.1326,693.5197Q542.9933,692.94904,542.938,692.7861Q542.68823,691.8891,542.33276,691.5916Q542.0088,691.34015,541.3551,691.3437Q541.2362,691.3445,541.1063,691.3535Q540.1538,691.386,537.3799,691.83685Q536.53687,691.9778,536.46045,692.9037Q536.4099,693.6117,536.49475,694.21014Q536.9187,697.03876,538.9496,700.07587Q539.6084,701.0522,541.05615,701.9697Q543.17,703.28094,545.9382,703.2655Q546.2459,703.2641,546.56146,703.24603Q549.47296,703.03955,549.63617,703.0114Q552.0839,702.61676,553.9771,700.4013Q555.8433,698.2407,556.1822,695.5169Q557.019,689.3331,552.7734,684.5385Q550.5822,682.07355,548.45026,680.4524Q547.0837,679.4255,545.87823,678.0436Q543.3853,675.172,543.80316,671.9848Q544.0894,669.615,546.02045,669.305Q546.2662,669.2618,546.4965,669.26044Q548.05194,669.25195,548.9161,671.16754Q549.02655,671.41187,549.1922,671.8737Q549.3857,672.3898,549.46857,672.60706Q549.8437,673.5041,550.8046,673.4987Q550.83307,673.49854,550.86163,673.49774Q552.8486,673.4594,555.1579,672.6845Q556.0002,672.4077,555.8863,671.48285Q555.4582,667.9193,553.3504,665.75323Q550.59125,662.94653,546.6198,662.96857 Z"/>
</g>
<g style="fill:rgb(0,0,0); fill-opacity:1.0; stroke-linejoin: miter">
<path d="M418.05814,664.4313Q416.6972,664.43884,416.2366,664.8224Q415.69446,665.2335,415.48425,666.62274Q415.37958,667.38574,412.2444,686.23926Q411.69208,689.72656,409.92752,700.46136Q409.74362,701.6599,409.71808,701.9595Q409.67078,703.2663,410.84137,703.2871Q411.7398,703.3229,412.8286,703.317Q413.91748,703.311,415.19653,703.26306Q416.33963,703.2295,416.55096,702.05786Q417.2645,698.1888,417.31552,697.56256Q417.54868,695.41077,418.28082,694.9167Q418.78445,694.58527,420.69812,694.5745Q420.8454,694.5737,421.00095,694.57477Q420.97372,694.5751,421.4366,694.5997Q422.87967,694.6733,423.15906,695.9786Q423.5212,697.47375,423.57794,697.8818Q423.66315,698.5343,423.86087,699.83984Q424.0314,701.1454,424.1438,701.7709Q424.25696,702.55963,424.58527,702.85724Q424.9137,703.18207,425.7035,703.23236Q426.05746,703.2577,428.09912,703.2735Q428.24057,703.27454,428.3747,703.2739Q430.25116,703.26337,430.65558,702.90533Q431.2513,702.33057,430.82968,699.9101Q429.87393,694.41724,427.96243,683.45776Q426.05106,672.4986,425.09512,667.0054Q424.98248,666.32544,424.87152,665.9449Q424.62155,665.02094,424.29337,664.7506Q423.96524,664.4802,423.0667,664.4307L420.4537,664.4451L420.45352,664.4179 Z M420.33548,681.47394Q420.67206,681.4721,420.93088,681.89044Q421.1783,682.32465,421.23483,682.70544Q421.26266,682.81415,421.57172,684.5546Q421.85208,686.05023,421.96506,686.78455Q422.0783,687.5733,422.02466,687.7098Q421.9191,688.3092,420.4492,688.31714Q420.38388,688.3187,420.32114,688.31915Q418.816,688.3274,418.81262,687.70026Q418.8111,687.42816,418.86298,686.96515Q419.14316,683.47925,419.76047,681.8971Q419.86768,681.56995,420.221,681.4862Q420.2793,681.4742,420.33548,681.47394 Z"/>
</g>
</g>
<g>
<g style="fill:rgb(146,159,168); fill-opacity:0.50980395; stroke-linejoin: miter">
<path d="M331.32355,845.53015L331.28806,849.7758L460.28058,850.8535L460.31616,846.60767L331.32355,845.53015 Z"/>
</g>
<g style="fill:rgb(146,159,168); fill-opacity:0.5058824; stroke-linejoin: miter">
<path d="M300.29883,748.83466L300.26318,753.0805L461.06384,754.4231L461.09943,750.17804L300.29883,748.83466 Z"/>
</g>
<g style="fill:rgb(146,159,168); fill-opacity:0.5137255; stroke-linejoin: miter">
<path d="M300.15198,766.4114L300.11624,770.65765L460.91687,772.0005L460.95227,767.755L300.15198,766.4114 Z"/>
</g>
<g style="fill:rgb(146,159,168); fill-opacity:0.5137255; stroke-linejoin: miter">
<path d="M300.00482,783.98865L299.9694,788.2345L428.9621,789.31213L428.9976,785.0665L300.00482,783.98865 Z"/>
</g>
<g style="fill:rgb(146,159,168); fill-opacity:0.50980395; stroke-linejoin: miter">
<path d="M299.85794,801.5662L299.82242,805.8122L460.62317,807.1546L460.6585,802.90955L299.85794,801.5662 Z"/>
</g>
<g style="fill:rgb(146,159,168); fill-opacity:0.5058824; stroke-linejoin: miter">
<path d="M299.71097,819.1428L299.67532,823.3889L460.4762,824.732L460.51172,820.4868L299.71097,819.1428 Z"/>
</g>
<g style="fill:rgb(68,197,229); fill-opacity:1.0; stroke-linejoin: miter">
<path d="M300.59747,835.60657L300.59747,835.607L326.07187,835.65735C326.4736,835.658,326.79852,835.98413,326.79767,836.38586L326.79767,836.3863L326.7551,858.17865C326.75424,858.58026,326.42804,858.9051,326.02637,858.9044L326.02637,858.90485L300.55188,858.8555C300.35895,858.8551,300.17413,858.7781,300.03796,858.6415C299.9018,858.5049,299.82565,858.31976,299.82596,858.1267L299.82596,858.12726L299.86868,836.3322C299.86905,836.1393,299.946,835.95447,300.08276,835.81836C300.2194,835.6823,300.4045,835.6061,300.59747,835.60657L300.59747,835.607 M300.5945,837.06104L301.32324,836.3351L301.28055,858.1297L300.55463,857.40094L326.02917,857.45L325.3005,858.1758L325.34323,836.3831L326.069,837.11163L300.5945,837.06104 Z"/>
</g>
<g style="fill:rgb(68,197,229); fill-opacity:1.0; stroke-linejoin: miter">
<path d="M300.53302,868.4968L300.53302,868.49725L326.0075,868.54736C326.43045,868.548,326.77258,868.8916,326.7718,869.31464L326.7718,869.31494L326.72903,891.1075C326.72824,891.53046,326.38467,891.87274,325.96173,891.8721L325.96173,891.8723L300.48718,891.823C300.28415,891.82263,300.08945,891.74164,299.94608,891.5975C299.80273,891.4536,299.7224,891.2587,299.7228,891.05554L299.7228,891.0561L299.7656,869.26086C299.7659,869.05786,299.84705,868.86346,299.99094,868.7199C300.13483,868.57623,300.3298,868.4961,300.53302,868.4968L300.53302,868.49725 M300.52994,870.02844L301.29736,869.26416L301.25455,891.0587L300.49017,890.2914L325.96466,890.3401L325.1973,891.1045L325.24008,869.31165L326.0045,870.0789L300.52994,870.02844 Z"/>
</g>
<g style="fill:rgb(68,197,229); fill-opacity:1.0; stroke-linejoin: miter">
<path d="M300.46826,901.45105L300.46826,901.4516L325.9428,901.50214C326.35147,901.5029,326.68207,901.83496,326.6812,902.2435L326.6812,902.2438L326.63843,924.0364C326.63757,924.4449,326.30566,924.77576,325.89697,924.77484L325.89697,924.7752L300.42258,924.7258C300.22635,924.72546,300.03833,924.64703,299.8998,924.50806C299.7613,924.3691,299.68375,924.1804,299.68408,923.9845L299.68408,923.98486L299.72675,902.18994C299.72714,901.99347,299.80554,901.8056,299.94458,901.66705C300.08362,901.52856,300.27197,901.4507,300.46826,901.45105L300.46826,901.4516 M300.4653,902.931L301.20673,902.19257L301.164,923.9871L300.42545,923.2457L325.89987,923.2946L325.1585,924.0333L325.2013,902.2405L325.9398,902.9821L300.4653,902.931 Z"/>
</g>
<g style="fill:rgb(146,159,168); fill-opacity:0.50980395; stroke-linejoin: miter">
<path d="M331.2599,877.9859L331.2244,882.2316L460.21704,883.3091L460.25256,879.06354L331.2599,877.9859 Z"/>
</g>
<g style="fill:rgb(146,159,168); fill-opacity:0.5137255; stroke-linejoin: miter">
<path d="M331.1962,910.4414L331.1607,914.68726L411.7773,915.3608L439.90613,915.5959L444.3075,911.3866L444.30475,911.3866L411.7856,911.11505L331.1962,910.4414 Z"/>
</g>
</g>
<g style="fill:rgb(0,0,0); fill-opacity:1.0; stroke-linejoin: miter">
<path d="M472.02148,955.69147L535.4645,955.69476L598.9076,955.69183Q598.90686,1035.8246,598.90686,1115.9553Q535.4652,1115.9559,472.0219,1115.9567Q472.02155,1035.8245,472.02148,955.69147 Z"/>
</g>
<g style="fill:rgb(0,0,0); fill-opacity:0.99607843; stroke-linejoin: miter">
<path d="M446.54468,1097.0365L535.4645,1097.0376L624.38403,1097.0378Q624.38403,1109.7954,624.38403,1122.5532Q535.4645,1122.553,446.54468,1122.5538Q446.54468,1109.7955,446.54468,1097.0365"/>
</g>
<g style="fill:rgb(255,255,255); fill-opacity:0.99607843; stroke-linejoin: miter">
<path d="M224.03293,1141.379L345.82886,1141.3796L467.6245,1141.3801Q467.62445,1215.2245,467.6245,1289.069Q345.8288,1289.07,224.03287,1289.0702Q224.0329,1215.2247,224.03293,1141.379"/>
</g>
<g style="fill:rgb(255,255,255); fill-opacity:0.99607843; stroke-linejoin: miter">
<path d="M234.21005,1147.0288L256.1221,1147.0292L278.03436,1147.0304Q278.0343,1345.8989,278.0342,1544.7677Q256.12204,1544.7682,234.20996,1544.7692Q234.20999,1345.8987,234.21005,1147.0288"/>
</g>
<g style="fill:rgb(125,139,150); fill-opacity:0.99607843; stroke-linejoin: miter">
<path d="M244.34976,1182.6892L343.732,1182.6901L443.114,1182.6907Q443.11395,1221.9996,443.11395,1261.3086Q343.7319,1261.3092,244.3497,1261.3094Q244.34973,1221.9995,244.34976,1182.6892"/>
</g>
<g style="fill:rgb(255,255,255); fill-opacity:0.99607843; stroke-linejoin: miter">
<path d="M206.96382,1123.2723L552.49725,1123.2732L898.03015,1123.274Q898.0303,1143.7715,898.0303,1164.2692Q552.49725,1164.2697,206.96382,1164.2706Q206.96382,1143.7715,206.96382,1123.2723"/>
</g>
<g style="fill:rgb(255,255,255); fill-opacity:0.99607843; stroke-linejoin: miter">
<path d="M823.30206,1155.1455L842.6195,1155.1461L861.93665,1155.1469Q861.93665,1350.4502,861.93665,1545.7544Q842.61914,1545.7549,823.3018,1545.757Q823.30194,1350.4503,823.30206,1155.1455"/>
</g>
<g style="fill:rgb(0,0,0); fill-opacity:1.0; stroke-linejoin: miter">
<path d="M501.99234,980.84094L549.6043,980.8424L597.2163,980.8413Q597.2163,1040.9784,597.2163,1101.1154Q549.6043,1101.1155,501.99228,1101.1156Q501.9924,1040.9785,501.99234,980.84094 Z"/>
</g>
<g style="fill:rgb(0,0,0); fill-opacity:1.0; stroke-linejoin: miter">
<path d="M433.57605,1087.9429L549.6043,1087.9436L665.6323,1087.9437Q665.6323,1097.1758,665.6323,1106.4078Q549.6043,1106.408,433.57584,1106.408Q433.57584,1097.1752,433.57605,1087.9429 Z"/>
</g>
<g style="fill:rgb(252,233,234); fill-opacity:1.0; stroke-linejoin: miter">
<path d="M557.6114,1004.7451L557.6114,1004.7455L557.6114,1004.7455C557.6114,1005.1974,557.2448,1005.56396,556.79254,1005.56396C556.34015,1005.56396,555.9737,1005.1974,555.9737,1004.7455L555.9737,1004.74585L555.9737,1004.7451C555.9737,1004.29236,556.34015,1003.92554,556.79254,1003.92554C557.2448,1003.92554,557.6114,1004.29236,557.6114,1004.7451 Z"/>
</g>
<g style="fill:rgb(0,0,0); fill-opacity:1.0; stroke-linejoin: miter">
<path d="M520.24304,1481.603L529.3446,1524.0492Q505.30313,1528.8622,495.86984,1528.9897Q487.21152,1529.6652,471.36072,1526.0298L475.9096,1464.746L520.24304,1481.603 Z"/>
</g>
<g style="fill:rgb(0,0,0); fill-opacity:1.0; stroke-linejoin: miter">
<path d="M627.5332,1477.5594L633.41833,1526.4531Q615.91565,1531.6283,607.563,1531.4384Q598.7925,1531.6792,583.0885,1526.8015L590.67664,1483.4491L627.5332,1477.5594 Z"/>
</g>
<g style="fill:rgb(60,70,79); fill-opacity:1.0; stroke-linejoin: miter">
<path d="M528.1295,1291.2261L527.10974,1391.0206L526.0907,1490.8158L471.4666,1491.61Q460.44336,1391.5819,449.4203,1291.554L528.1295,1291.2261 Z"/>
</g>
<g style="fill:rgb(60,70,79); fill-opacity:1.0; stroke-linejoin: miter">
<path d="M578.2522,1289.3877L580.61035,1390.7399L582.9685,1492.0923Q611.2362,1491.9302,639.50366,1491.7675Q651.0935,1388.5245,662.6835,1285.2814L578.2522,1289.3877 Z"/>
</g>
<g style="fill:rgb(0,0,0); fill-opacity:1.0; stroke-linejoin: miter">
<path d="M670.67554,1536.2592L669.61646,1538.5238Q662.08386,1545.3685,625.537,1549.4722Q588.7374,1553.5728,538.8685,1552.7986Q491.27505,1551.7145,462.74023,1546.4583Q453.5973,1544.7596,447.67822,1542.7555L442.7035,1540.6957Q438.60394,1538.5696,438.55798,1536.2584Q439.80243,1529.1659,472.55066,1524.4559Q505.29922,1519.7467,554.6171,1519.567Q603.9347,1519.7467,636.6832,1524.4562Q669.4315,1529.1666,670.67554,1536.2592 Z"/>
</g>
<g style="fill:rgb(0,0,0); fill-opacity:0.99607843; stroke-linejoin: miter">
<path d="M683.25146,1286.0823L682.06445,1293.3854Q673.62573,1315.4562,632.6815,1328.6891Q591.4535,1341.9103,535.5846,1339.4113Q482.26492,1335.9182,450.29663,1318.9701Q440.05377,1313.4918,433.4225,1307.0317L427.8494,1300.3896Q423.25644,1293.5349,423.2047,1286.0824Q424.59897,1263.2123,461.28778,1248.0256Q497.9764,1232.8397,553.22797,1232.2627Q608.4796,1232.8397,645.16846,1248.026Q681.85706,1263.2125,683.25146,1286.0823 Z"/>
</g>
<g style="fill:rgb(34,43,50); fill-opacity:1.0; stroke-linejoin: miter">
<path d="M579.62476,1478.7075L611.2645,1478.7081L642.9044,1478.7094Q642.9044,1485.966,642.9044,1493.2227Q611.2645,1493.2235,579.62476,1493.224Q579.62476,1485.9658,579.62476,1478.7075 Z"/>
</g>
<g style="fill:rgb(34,43,50); fill-opacity:1.0; stroke-linejoin: miter">
<path d="M468.93732,1481.4768L499.196,1481.4779L529.4546,1481.4785Q529.4546,1488.6469,529.4546,1495.814Q499.196,1495.8146,468.93732,1495.8152Q468.93732,1488.6462,468.93732,1481.4768 Z"/>
</g>
<g style="fill:rgb(0,0,0); fill-opacity:1.0; stroke-linejoin: miter">
<path d="M541.0072,1315.2063L554.6171,1315.2068L568.22705,1315.2075Q568.2269,1427.6848,568.2268,1540.1615Q554.6171,1540.1624,541.0072,1540.1628Q541.0072,1427.6848,541.0072,1315.2063 Z"/>
</g>
<g style="fill:rgb(0,0,0); fill-opacity:1.0; stroke-linejoin: miter">
<path d="M395.87692,1226.9335L549.4156,1226.9343L702.9542,1226.9349Q702.9542,1247.2711,702.9542,1267.6074Q549.4156,1267.608,395.87692,1267.608Q395.87692,1247.2708,395.87692,1226.9335 Z"/>
</g>
<g style="fill:rgb(255,191,175); fill-opacity:0.99607843; stroke-linejoin: miter">
<path d="M508.81754,875.2716L509.06863,878.6581Q511.0394,901.1024,508.68704,911.8679Q506.86075,921.7774,495.90457,932.2152L590.37634,926.8479Q578.47473,912.69867,574.7301,901.9257Q570.59204,891.81323,566.728,864.1921L508.81754,875.2716 Z"/>
</g>
<g style="fill:rgb(255,191,175); fill-opacity:0.99607843; stroke-linejoin: miter">
<path d="M495.545,858.03796L495.4979,860.2388Q494.77933,866.9149,490.08365,871.0997Q485.3541,875.2831,478.6823,874.8168Q472.30084,874.0378,468.2835,869.10675Q464.26807,864.1408,464.68787,857.1604Q465.40674,850.4844,470.10248,846.2991Q474.8319,842.11597,481.5037,842.5829Q487.88535,843.3611,491.90237,848.29175Q493.1901,849.8863,494.06137,851.7941L494.80905,853.76215Q495.44315,855.7984,495.545,858.03796 Z"/>
</g>
<g style="fill:rgb(255,191,175); fill-opacity:0.99607843; stroke-linejoin: miter">
<path d="M597.26746,847.77216L597.22034,849.973Q596.50146,856.64886,591.8058,860.8338Q587.0764,865.0175,580.40466,864.55054Q574.0232,863.772,570.00586,858.84125Q565.99036,853.8747,566.41016,846.8942Q567.129,840.21826,571.8246,836.0331Q576.5541,831.8493,583.22595,832.3162Q589.60754,833.0947,593.62463,838.02576Q594.9125,839.6201,595.7837,841.52765L596.5314,843.4958Q597.1655,845.5326,597.26746,847.77216 Z"/>
</g>
<g style="fill:rgb(0,0,0); fill-opacity:1.0; stroke-linejoin: miter">
<path d="M567.0923,772.1593L570.1758,772.9671Q579.6987,774.97614,586.7728,780.7237Q589.0403,782.778,590.7637,785.6636L592.31665,788.8082Q593.7169,792.18695,594.3688,796.7077Q597.32324,820.5038,583.3579,863.03864Q579.2792,874.22156,574.69727,881.48083Q572.3961,885.13763,569.9009,887.99976Q568.8102,889.8298,561.8604,895.1232Q540.56836,907.3108,521.13135,902.37994Q496.54196,896.5054,476.63794,856.0245Q469.35315,840.61224,466.39178,824.5282Q463.44458,808.4518,467.13745,795.1159Q469.0509,788.5515,472.40808,782.9392L476.0315,777.5759Q479.96875,772.45593,484.78146,768.3532Q489.5945,764.25055,494.90433,761.209Q497.53238,758.99255,511.00577,754.5805Q523.4512,751.31824,535.4971,754.6061Q548.97943,758.3206,567.0923,772.1593 Z"/>
</g>
<g style="fill:rgb(212,239,240); fill-opacity:1.0; stroke-linejoin: miter">
<path d="M504.17947,908.6155L544.63666,905.0875L585.09424,901.5595Q591.24133,928.2449,597.3884,954.9294Q591.6847,1001.1129,585.98083,1047.2971Q536.72144,1044.3134,487.46182,1041.3296L504.17947,908.6155 Z"/>
</g>
<g style="fill:rgb(224,77,105); fill-opacity:0.99607843; stroke-linejoin: miter">
<path d="M578.93994,1112.7955L578.93994,1112.7959Q578.93994,1112.7974,578.93994,1112.7955 Z"/>
</g>
<g style="fill:rgb(255,255,255); fill-opacity:0.99607843; stroke-linejoin: miter">
<path d="M709.43774,1157.3936L776.1141,1157.394L842.7905,1157.395Q842.7905,1289.9592,842.7904,1422.5238Q776.1141,1422.5245,709.43787,1422.5251Q709.43787,1289.9592,709.43774,1157.3936"/>
</g>
<g style="fill:rgb(125,139,150); fill-opacity:0.99607843; stroke-linejoin: miter">
<path d="M740.51715,1264.1183L780.32184,1264.1188L820.1269,1264.1198Q820.1269,1322.4493,820.1269,1380.7792Q780.32196,1380.7804,740.51715,1380.7808Q740.51715,1322.4495,740.51715,1264.1183"/>
</g>
<g style="fill:rgb(125,139,150); fill-opacity:0.99607843; stroke-linejoin: miter">
<path d="M725.2058,1169.3234L777.3404,1169.324L829.47516,1169.3243Q829.47516,1194.1835,829.47516,1219.0425Q777.3403,1219.0431,725.2058,1219.044Q725.2058,1194.1836,725.2058,1169.3234"/>
</g>
<g style="fill:rgb(212,239,240); fill-opacity:0.99607843; stroke-linejoin: miter">
<path d="M578.2008,916.0386L588.2637,918.8614Q619.0714,926.3789,644.30493,942.4216Q652.50977,948.085,659.47546,955.6425L666.0547,963.79254Q672.28503,972.47504,676.8125,983.76245Q681.2882,995.1289,684.0608,1009.1002L686.485,1023.6046Q688.5216,1038.7006,689.32007,1055.691Q691.6256,1097.6938,686.2379,1187.8862L562.33075,1138.6152L578.2008,916.0386"/>
</g>
<g style="fill:rgb(212,239,240); fill-opacity:0.99607843; stroke-linejoin: miter">
<path d="M535.589,920.34406L525.2706,921.92725Q478.7021,928.7995,458.74103,943.37463Q450.55988,948.8466,443.5999,956.54144L437.01318,964.91516Q430.77502,973.93835,426.12778,985.7975Q416.9418,1010.10095,413.1889,1040.0017Q407.78464,1086.1556,410.55383,1121.4366Q412.13666,1148.4436,419.35498,1160.5294Q425.15195,1169.3221,437.66272,1166.1582L529.339,1143.3981L535.589,920.34406"/>
</g>
<g style="fill:rgb(34,43,50); fill-opacity:1.0; stroke-linejoin: miter">
<path d="M666.5847,1147.8876L682.39014,1147.888L698.19556,1147.8883Q698.1953,1225.846,698.19543,1303.8037Q682.39014,1303.804,666.5845,1303.8043Q666.5845,1225.8461,666.5847,1147.8876 Z"/>
</g>
<g style="fill:rgb(34,43,50); fill-opacity:1.0; stroke-linejoin: miter">
<path d="M407.3881,1146.0022L423.19366,1146.0026L438.99933,1146.0032Q438.99927,1223.9608,438.99902,1301.9187Q423.19363,1301.9188,407.38806,1301.9194Q407.388,1223.9606,407.3881,1146.0022 Z"/>
</g>
<g style="fill:rgb(0,0,0); fill-opacity:1.0; stroke-linejoin: miter">
<path d="M426.97498,1008.3623L554.61725,1008.36304L682.2593,1008.3633Q682.2594,1152.8894,682.25916,1297.4166Q554.617,1297.4169,426.97488,1297.417Q426.9749,1152.8893,426.97498,1008.3623 Z"/>
</g>
<g style="fill:rgb(212,239,240); fill-opacity:0.99607843; stroke-linejoin: miter">
<path d="M770.6408,1132.2263Q769.57623,1133.0541,765.35956,1138.0587 Z"/>
</g>
<g style="fill:rgb(217,226,231); fill-opacity:0.99607843; stroke-linejoin: miter">
<path d="M773.2242,1092.3896L822.6578,1092.3896L872.09155,1092.3896Q872.09155,1108.3998,872.09155,1124.4098Q822.6578,1124.4098,773.2242,1124.4103Q773.2242,1108.3998,773.2242,1092.3896"/>
</g>
<g style="fill:rgb(217,226,231); fill-opacity:0.99607843; stroke-linejoin: miter">
<path d="M830.8759,1076.1221L846.917,1076.1226L862.9579,1076.1226Q862.9579,1085.1523,862.9579,1094.1821Q846.917,1094.1825,830.8759,1094.1824Q830.8759,1085.1522,830.8759,1076.1221"/>
</g>
<g style="fill:rgb(209,214,218); fill-opacity:1.0; stroke-linejoin: miter">
<path d="M625.8877,726.21686L701.47473,726.07355L777.0617,725.9304Q777.2325,815.9297,777.4035,905.92914Q701.8165,906.073,626.2294,906.217L625.8877,726.21686"/>
</g>
<g style="fill:rgb(0,0,0); fill-opacity:0.76862746; stroke-linejoin: miter">
<path d="M1065.0688,1550.633L1060.4904,1551.451Q1060.7433,1551.7574,1024.861,1552.9733Q1008.3408,1553.4412,985.62994,1553.8566Q940.2077,1554.6868,870.0209,1555.3064Q854.0956,1555.5167,757.73737,1556.0345Q718.21826,1556.2106,675.91016,1556.2976Q591.29443,1556.4719,495.5239,1556.2906Q384.83173,1555.9421,367.57346,1555.7855Q327.97348,1555.5629,292.44025,1555.2683Q221.3738,1554.6785,166.57465,1553.7998Q44.22722,1551.6794,64.96051,1549.4835Q74.07362,1548.3892,110.0762,1547.481Q128.07747,1547.0271,152.80116,1546.6198Q161.35985,1546.3824,241.30072,1545.5118Q374.156,1544.2351,563.58044,1544.289Q658.2927,1544.3738,738.862,1544.7744Q836.4803,1545.3442,851.761,1545.553Q886.74194,1545.8716,918.18774,1546.2694Q981.0787,1547.0652,1017.0801,1548.0154Q1035.0808,1548.4906,1046.3593,1549.0044Q1056.2,1549.2372,1065.0688,1550.633"/>
</g>
</g>
</svg>