<?xml version="1.0" encoding="utf-8" ?>
<svg xmlns="http://www.w3.org/2000/svg" xmlns:xlink="http://www.w3.org/1999/xlink" width="1024" height="1024">
	<path fill="#FEFEFE" d="M0 0L1024 0L1024 1024L0 1024L0 0Z"/>
	<path fill="#D1E1DD" d="M261.063 155.175C264.823 154.65 268.956 155.609 272.216 157.518C276.851 160.231 280.145 165.12 281.36 170.31C282.646 175.804 281.348 181.757 278.264 186.441C274.712 191.836 270.008 193.963 263.901 195.09C258.908 195.146 254.891 194.445 250.688 191.573C246.038 188.394 242.598 183.201 241.799 177.595C241.044 172.3 242.635 166.699 245.925 162.498C249.852 157.481 255.02 155.905 261.063 155.175Z"/>
	<path fill="#D1E1DD" d="M934.905 297.568C939.058 297.28 942.526 297.514 946.332 299.373C951.457 301.876 955.858 306.608 957.504 312.12C959.131 317.565 958.044 323.464 955.172 328.296C952.094 333.476 947.629 336.617 941.823 337.989C937.03 338.331 933.038 337.837 928.776 335.44C923.793 332.636 919.697 327.877 918.211 322.303C916.925 317.48 917.836 312.509 920.336 308.233C923.573 302.695 928.805 299.217 934.905 297.568Z"/>
	<path fill="#D1E1DD" d="M591.988 113.668C596.814 113.598 601.266 114.637 605.18 117.576C609.803 121.047 612.725 126.638 613.367 132.341Q613.426 132.851 613.46 133.364Q613.493 133.877 613.502 134.39Q613.51 134.904 613.493 135.418Q613.475 135.931 613.433 136.443Q613.39 136.955 613.322 137.465Q613.254 137.974 613.161 138.479Q613.067 138.984 612.949 139.484Q612.831 139.984 612.688 140.478Q612.545 140.971 612.378 141.457Q612.211 141.943 612.02 142.42Q611.829 142.897 611.615 143.364Q611.4 143.831 611.163 144.287Q610.926 144.742 610.666 145.186Q610.406 145.629 610.125 146.059Q609.844 146.489 609.542 146.905Q609.239 147.32 608.917 147.72C604.855 152.807 599.779 154.695 593.539 155.484C588.362 154.864 583.618 153.965 579.237 150.884C574.925 147.852 571.826 143.174 571.065 137.924C570.247 132.28 572.028 126.392 575.521 121.928C579.747 116.527 585.391 114.38 591.988 113.668Z"/>
	<path fill="#D1E1DD" d="M73.9888 447.151C81.0912 446.571 87.7387 448.049 93.5015 452.42Q94.06 452.841 94.5973 453.289Q95.1345 453.737 95.6492 454.211Q96.1639 454.685 96.6548 455.183Q97.1457 455.681 97.6117 456.203Q98.0777 456.725 98.5175 457.269Q98.9574 457.813 99.3702 458.378Q99.7829 458.942 100.168 459.527Q100.552 460.111 100.908 460.713Q101.263 461.316 101.589 461.935Q101.915 462.554 102.21 463.188Q102.505 463.823 102.769 464.47Q103.032 465.118 103.264 465.778Q103.496 466.439 103.695 467.109Q103.894 467.78 104.06 468.459Q104.226 469.139 104.358 469.826Q104.491 470.512 104.59 471.205Q104.697 471.948 104.768 472.696Q104.838 473.443 104.872 474.193Q104.905 474.944 104.901 475.695Q104.897 476.445 104.856 477.195Q104.815 477.945 104.737 478.692Q104.659 479.439 104.544 480.181Q104.429 480.923 104.277 481.658Q104.126 482.394 103.938 483.121Q103.75 483.848 103.526 484.564Q103.303 485.281 103.044 485.986Q102.785 486.691 102.491 487.382Q102.198 488.073 101.87 488.749Q101.543 489.425 101.182 490.083Q100.822 490.742 100.429 491.382Q100.037 492.022 99.6128 492.642Q99.189 493.262 98.7349 493.86C94.1961 499.784 88.0609 503.117 80.7517 504.144C73.5578 504.419 67.5543 504.1 61.3527 499.899C54.9872 495.587 50.2249 488.558 48.876 480.959C47.49 473.151 49.6239 464.848 54.2395 458.453C59.109 451.706 65.9451 448.351 73.9888 447.151Z"/>
	<path fill="#D1E1DD" d="M135.54 574.581L135.501 889.112Q116.561 889.204 97.6213 889.103C77.9383 868.522 62.8825 848.591 52.5503 821.748C49.2193 813.094 45.9273 804.335 43.6843 795.325Q43.1924 793.303 42.7417 791.272Q42.2911 789.24 41.8818 787.2Q41.4725 785.159 41.1048 783.111Q40.7371 781.063 40.411 779.008Q40.085 776.953 39.8009 774.891Q39.5167 772.83 39.2745 770.763Q39.0323 768.696 38.8322 766.625Q38.6321 764.553 38.4741 762.479Q38.3161 760.404 38.2004 758.326Q38.0846 756.248 38.0111 754.169Q37.9376 752.089 37.9064 750.008Q37.8752 747.927 37.8863 745.847Q37.8974 743.766 37.9508 741.685Q38.0042 739.605 38.0999 737.526Q38.1956 735.448 38.3335 733.371Q38.4714 731.295 38.6515 729.222Q38.8316 727.149 39.0539 725.08Q39.2761 723.011 39.5403 720.947Q39.8045 718.882 40.1106 716.824Q40.4168 714.766 40.7647 712.714Q41.1126 710.663 41.5022 708.619Q41.8917 706.574 42.3227 704.538Q42.7538 702.503 43.2261 700.476Q43.6984 698.449 44.2118 696.433Q44.7253 694.416 45.2796 692.411Q45.8339 690.405 46.4289 688.411Q47.0239 686.417 47.6593 684.435Q48.2947 682.453 48.9702 680.485Q49.6457 678.517 50.3612 676.563Q51.0766 674.609 51.8316 672.67Q52.5866 670.731 53.3808 668.807Q54.1751 666.884 55.0083 664.977C69.0968 633.358 92.8478 606.196 120.108 585.175C124.59 581.719 130.256 576.602 135.54 574.581Z"/>
	<path fill="#D1E1DD" d="M888.507 343.839C893.697 344.733 898.941 346.803 903.866 348.655C927.192 357.425 948.815 371.709 963.438 392.268C981.631 417.848 989.89 453.139 984.518 484.034Q983.918 487.37 983.142 490.67Q982.367 493.97 981.418 497.225Q980.469 500.479 979.35 503.679Q978.231 506.879 976.945 510.015Q975.658 513.152 974.208 516.216Q972.758 519.28 971.148 522.263Q969.538 525.246 967.773 528.14Q966.008 531.034 964.092 533.831C958.124 542.464 951.636 550.509 946.226 559.542Q944.334 562.763 942.604 566.075Q940.874 569.386 939.311 572.779Q937.748 576.172 936.356 579.639Q934.963 583.106 933.745 586.638Q932.526 590.169 931.485 593.757Q930.444 597.345 929.582 600.98Q928.72 604.615 928.04 608.289Q927.36 611.962 926.864 615.665Q926.572 617.812 926.351 619.968Q926.131 622.124 925.982 624.286Q925.833 626.448 925.757 628.614Q925.68 630.78 925.676 632.947Q925.672 635.114 925.739 637.28Q925.807 639.446 925.947 641.609Q926.087 643.772 926.299 645.929Q926.511 648.085 926.794 650.234Q927.078 652.383 927.433 654.52Q927.788 656.658 928.214 658.783Q928.64 660.908 929.137 663.018Q929.633 665.127 930.2 667.219Q930.766 669.311 931.402 671.383Q932.038 673.454 932.742 675.504Q933.447 677.553 934.219 679.578Q934.992 681.603 935.831 683.601C942.186 698.43 949.776 712.646 954.692 728.092C968.068 770.12 959.738 819.566 938.367 857.52C931.894 869.016 924.345 878.945 915.654 888.857C926.494 888.85 940.027 887.952 950.509 889.083C944.401 889.695 937.951 889.387 931.798 889.396C917.314 889.418 902.83 888.98 888.339 888.973L888.507 343.839Z"/>
	<path fill="#020202" d="M322.72 234.163C322.228 227.512 321.431 220.744 321.53 214.073Q321.555 212.04 321.669 210.01Q321.782 207.98 321.983 205.957Q322.184 203.933 322.472 201.921Q322.76 199.908 323.135 197.909Q323.509 195.911 323.97 193.931Q324.431 191.95 324.977 189.992Q325.523 188.033 326.153 186.1Q326.783 184.167 327.495 182.263Q328.208 180.359 329.003 178.487Q329.797 176.616 330.672 174.78Q331.546 172.944 332.499 171.148Q333.452 169.352 334.482 167.599Q335.512 165.846 336.617 164.139Q337.721 162.432 338.898 160.774Q340.076 159.117 341.323 157.511Q342.571 155.906 343.887 154.356Q344.673 153.43 345.481 152.524Q346.29 151.619 347.121 150.734Q347.953 149.848 348.806 148.985Q349.659 148.121 350.534 147.278Q351.408 146.436 352.304 145.616Q353.2 144.796 354.116 143.999Q355.031 143.202 355.967 142.428Q356.903 141.654 357.858 140.904Q358.813 140.154 359.786 139.428Q360.759 138.702 361.751 138.001Q362.742 137.3 363.751 136.624Q364.76 135.948 365.785 135.298Q366.81 134.647 367.852 134.023Q368.893 133.399 369.95 132.801Q371.007 132.203 372.078 131.631Q373.15 131.06 374.235 130.516Q375.321 129.972 376.419 129.455Q377.518 128.939 378.63 128.45Q379.741 127.961 380.865 127.5Q381.988 127.039 383.123 126.607Q384.258 126.175 385.403 125.771Q386.548 125.367 387.703 124.993Q388.858 124.618 390.022 124.272Q391.186 123.927 392.358 123.611Q393.531 123.295 394.711 123.008Q395.891 122.721 397.077 122.465Q398.264 122.208 399.457 121.981Q400.65 121.754 401.848 121.557Q403.046 121.36 404.249 121.194Q405.452 121.027 406.658 120.891Q407.865 120.754 409.075 120.648Q410.284 120.542 411.496 120.467C436.572 118.822 460.202 126.358 480.575 140.948C490.633 148.151 500.064 156.283 510.539 162.898Q512.222 163.98 513.941 165.005Q515.66 166.03 517.413 166.995Q519.165 167.961 520.95 168.867Q522.734 169.772 524.549 170.617Q526.363 171.461 528.205 172.244Q530.047 173.026 531.914 173.746Q533.781 174.465 535.672 175.121Q537.563 175.776 539.475 176.368Q541.386 176.959 543.317 177.485Q545.248 178.01 547.196 178.47Q549.143 178.93 551.105 179.324Q553.067 179.718 555.042 180.045Q557.016 180.371 559 180.631Q560.984 180.891 562.976 181.083Q564.968 181.275 566.965 181.399Q568.963 181.523 570.963 181.58C595.514 182.224 618.543 175.665 639.449 162.891C650.441 156.174 660.011 146.789 670.512 139.289C698.059 119.613 732.616 113.218 764.657 125.065Q768.902 126.641 773.008 128.55C782.371 132.893 791.176 138.275 798.896 145.153C817.165 161.429 829.698 184.727 830.988 209.293C831.436 217.838 830.618 226.174 828.921 234.543Q858.653 234.488 888.38 235.034L888.507 343.839L888.339 888.973C902.83 888.98 917.314 889.418 931.798 889.396C937.951 889.387 944.401 889.695 950.509 889.083C954.881 889.083 961.004 888.285 965.096 889.453L965.535 890.062L965.191 890.892C960.649 892.711 904.893 891.59 893.912 891.561C892.868 891.558 888.456 891.265 888.102 892.15C887.844 892.798 887.746 893.411 887.634 894.094C885.468 895.15 684.255 894.048 660.817 894.502C658.422 899.745 654.959 904.591 649.278 906.553C646.659 907.457 643.731 907.836 640.968 907.978C623.615 908.87 605.798 908.01 588.409 907.962C572.9 907.918 557.032 908.706 541.57 907.944C540.057 907.869 538.957 907.75 537.606 907.063L537.209 906.035L537.94 904.926C538.006 903.467 537.961 902.263 537.723 900.823C533.146 899.195 501.052 900.74 492.918 900.393L490.564 900.572C490.62 901.79 490.285 903.82 491.446 904.573C491.77 904.783 492.598 905.054 492.978 905.188C492.639 906.033 492.442 906.394 491.904 907.08C490.358 907.733 488.854 907.79 487.2 907.851C472.5 908.393 457.605 907.75 442.872 907.836C423.924 907.945 404.592 908.732 385.683 907.816C382.247 907.65 378.634 907.279 375.414 906.003C370.141 903.914 366.201 899.576 364.026 894.421C288.834 893.48 213.582 895.215 138.389 894.489C135.124 894.457 136.581 894.085 135.285 892.192C134.799 891.482 130.254 891.527 129.296 891.517C120.714 891.429 60.5358 892.544 58.2374 890.873L58.6821 889.562C60.9332 888.192 92.3656 889.092 97.6213 889.103Q116.561 889.204 135.501 889.112L135.54 574.581C135.046 536.506 135.444 498.368 135.425 460.286L135.408 234.13C157.256 234.951 179.366 234.297 201.245 234.282L322.72 234.163Z"/>
	<path fill="#FEFEFE" d="M686.613 633.917C690.2 635.202 704.513 639.698 706.237 641.745C699.706 642.076 693.126 641.932 686.589 641.839L686.613 633.917Z"/>
	<path fill="#FEFEFE" d="M496.85 457.493C514.289 457.078 531.808 457.394 549.254 457.419L549.23 463.839C531.805 464.396 514.276 464.021 496.839 464.022L496.85 457.493Z"/>
	<path fill="#F3B5B2" d="M203.955 303.137C209.016 304.019 215.349 303.759 220.456 303.165C220.436 310.587 220.641 318.093 220.255 325.503L203.787 325.526C204.241 318.12 203.953 310.561 203.955 303.137Z"/>
	<path fill="#FEFEFE" d="M542.436 365.453L542.91 365.85C542.711 368.975 518.624 413.84 515.136 420.103C510.538 412.762 506.979 404.401 502.88 396.725C497.457 386.343 491.744 376.121 486.37 365.711C489.659 367.479 493.019 369.087 496.569 370.266C512.628 375.596 527.655 372.915 542.436 365.453Z"/>
	<path fill="#FEFEFE" d="M154.588 329.194C158.437 329.048 162.273 329.111 166.124 329.18L167.985 329.657C169.373 332.107 168.507 429.301 168.477 440.595C163.823 440.756 159.138 440.663 154.48 440.679L154.588 329.194Z"/>
	<path fill="#FEFEFE" d="M552.227 356.356C554.186 361.905 555.178 368.188 556.512 373.934Q561.744 396.611 566.246 419.444L532.75 419.458L518.376 419.436C522.763 409.306 528.373 399.516 533.473 389.722C539.357 378.424 544.564 366.581 552.227 356.356Z"/>
	<path fill="#FEFEFE" d="M326.154 539.206Q340.61 539.056 355.066 539.229C354.311 572.693 351.834 606.164 351.457 639.625C351.347 640.885 351.524 640.278 350.895 641.438C349.642 641.943 349.049 642.143 347.712 641.875C347.448 641.596 347.102 641.376 346.921 641.037C346.279 639.838 342.76 618.823 342.046 615.385C336.785 590.068 330.202 564.734 326.154 539.206Z"/>
	<path fill="#F3B5B2" d="M203.712 328.987L220.332 328.951L220.383 440.512C214.931 440.527 209.436 440.685 203.989 440.531L203.94 368.806C203.93 355.572 204.275 342.203 203.712 328.987Z"/>
	<path fill="#FEFEFE" d="M475.093 357.11C477.409 358.147 479.417 359.944 480.962 361.938C485.657 367.999 489.089 375.607 492.747 382.344C499.36 394.524 506.155 406.678 511.837 419.333L466.126 419.449C465.726 429.31 465.874 439.252 465.772 449.125Q465.59 461.668 465.579 474.212C462.361 474.852 459.231 475.889 456.093 476.837C459.44 436.789 467.756 396.566 475.093 357.11Z"/>
	<path fill="#FEFEFE" d="M745.079 541.033C750.758 542.746 756.751 543.773 762.494 545.379C754.382 577.567 745.879 609.599 738.559 641.984L733.125 642.004L714.079 641.936C717.392 628.563 721.589 615.442 725.627 602.274Q734.975 571.533 745.079 541.033Z"/>
	<path fill="#FEFEFE" d="M258.004 538.97L270.15 539.15Q279.352 590.638 289.535 641.941C279.463 641.987 268.505 642.905 258.527 641.813Q257.996 590.393 258.004 538.97Z"/>
	<path fill="#FEFEFE" d="M376.212 630.04L376.571 627.737C380.568 627.482 384.709 627.958 388.709 628.207Q402.428 629.058 416.134 630.106C420.788 630.451 425.695 631.153 430.352 631.007C427.747 644.127 430.065 660.693 419.2 670.438C413.591 675.47 405.955 677.788 398.487 677.235C391.151 676.691 384.194 673.391 379.464 667.701C370.931 657.435 375.268 642.253 376.212 630.04Z"/>
	<path fill="#FEFEFE" d="M357.845 513.991L383.634 514.023C383.035 524.107 381.333 534.368 380.197 544.418C378.433 560.015 376.973 575.774 374.441 591.268C372.553 591.21 370.614 591.05 368.729 591.129C367.459 602.996 365.548 615.005 364.92 626.914C367.882 627.071 370.912 627.076 373.81 627.742L374.333 628.381C373.586 632.753 373.229 637.225 372.741 641.634L353.989 641.633C354.077 625.265 355.02 608.858 355.63 592.5Q357.15 553.257 357.845 513.991Z"/>
	<path fill="#F16E6D" d="M443.468 834.04L493.971 833.867Q492.798 856.601 491.96 879.35C491.742 884.915 492.361 892.75 491.105 897.957C490.743 898.906 490.526 899.551 490.564 900.572C490.62 901.79 490.285 903.82 491.446 904.573C491.77 904.783 492.598 905.054 492.978 905.188C491.266 905.021 489.181 905.333 487.548 904.713C485.114 903.788 481.53 898.265 479.572 896.215C468.779 884.912 456.006 874.359 440.663 870.293C441.555 870.055 441.151 870.289 441.826 869.511C442.935 864.273 445.267 837.926 443.468 834.04Z"/>
	<path fill="#FEFEFE" d="M201.571 539.048L226.708 539.035C227.889 550.376 227.004 562.544 226.989 573.989L226.997 641.958Q214.389 642.226 201.779 642.043C201.2 629.865 201.586 617.503 201.58 605.305L201.571 539.048Z"/>
	<path fill="#FEFEFE" d="M221.58 739.424C223.108 739.507 223.731 739.273 224.87 740.348C225.766 742.847 225.334 835.349 225.269 848.086C217.005 848.084 208.702 848.257 200.443 848.046L200.302 739.444C207.393 739.509 214.49 739.643 221.58 739.424Z"/>
	<path fill="#F16E6D" d="M511.838 476.915C514.539 476.625 517.169 475.993 519.881 475.768C529.974 474.931 545.969 474.906 555.9 475.92C555.148 498.899 555.651 522.065 555.708 545.063C542.968 544.302 529.884 544.887 517.106 544.904L517.012 529.964C511.603 529.927 506.207 529.902 500.804 529.601C506.123 529.21 511.594 529.509 516.931 529.549L516.966 496.201C516.969 490.021 517.309 483.623 516.731 477.473C515.399 476.701 513.386 476.939 511.838 476.915Z"/>
	<path fill="#FEFEFE" d="M757.359 732.695Q768.907 732.48 780.456 732.587L780.473 848.37L769.233 848.414C765.089 847.937 760.692 848.144 756.513 848.072C756.51 839.641 755.769 735.771 756.571 733.495C756.695 733.142 757.096 732.962 757.359 732.695Z"/>
	<path fill="#FEFEFE" d="M650.716 515.053L661.492 514.924Q660.95 578.407 661.421 641.89C655.579 642.014 649.719 641.95 643.875 641.978C642.915 642.011 642.311 641.984 641.413 641.628C641.019 641.04 640.78 640.556 640.711 639.84C639.013 622.007 638.011 604.03 636.669 586.159C635.634 572.373 634.196 558.601 633.417 544.8C634.997 543.831 636.53 542.845 637.94 541.639C646.126 534.639 649.884 525.636 650.716 515.053Z"/>
	<path fill="#F16E6D" d="M374.441 591.268C375.254 591.312 375.858 591.279 376.654 591.176L377.222 589.607L377.552 590.924C384.077 594.107 432.134 592.637 443.96 594.974L445.855 596.608C444.043 601.96 442.702 624.981 442.262 631.718C439.273 631.602 435.629 631.087 432.741 631.77L432.34 632.359C431.74 631.494 431.284 631.445 430.352 631.007C425.695 631.153 420.788 630.451 416.134 630.106Q402.428 629.058 388.709 628.207C384.709 627.958 380.568 627.482 376.571 627.737L376.212 630.04C376.107 629.3 375.896 628.575 375.718 627.849L375.071 627.627L374.333 628.381L373.81 627.742C370.912 627.076 367.882 627.071 364.92 626.914C365.548 615.005 367.459 602.996 368.729 591.129C370.614 591.05 372.553 591.21 374.441 591.268Z"/>
	<path fill="#FEFEFE" d="M663.346 533.581Q676.962 533.542 690.577 533.71Q690.293 559.854 690.45 585.999C690.457 594.418 690.92 603.153 690.298 611.536C689.679 619.868 684.358 627.022 684.521 635.375L684.533 641.838L663.654 641.871L663.297 584.745C663.159 567.712 662.754 550.605 663.346 533.581Z"/>
	<path fill="#FEFEFE" d="M326.105 328.418L341.878 328.557L341.669 440.561C333.448 440.606 325.176 440.842 316.961 440.568L316.509 328.549Q321.308 328.565 326.105 328.418Z"/>
	<path fill="#FEFEFE" d="M250.703 328.433C259.019 328.29 267.355 328.437 275.673 328.471Q276.232 384.525 275.765 440.58Q263.377 440.93 250.987 440.681Q250.501 384.557 250.703 328.433Z"/>
	<path fill="#FEFEFE" d="M695.443 732.586L695.464 848.047L670.537 848.05L670.377 732.664C678.698 732.35 687.112 732.595 695.443 732.586Z"/>
	<path fill="#FEFEFE" d="M282.408 739.507L309.355 739.507C309.092 754.428 309.439 769.366 309.354 784.29Q308.879 816.19 309.038 848.092L282.446 848.079C282.117 835.128 282.4 822.108 282.411 809.151L282.408 739.507Z"/>
	<path fill="#FEFEFE" d="M770.669 524.281C778.675 526.613 786.706 528.88 794.593 531.596C790.708 550.345 785.087 568.837 780.247 587.363C775.66 604.921 771.757 622.708 766.927 640.191C766.72 640.943 766.434 641.429 765.934 642.022L740.773 642.006Q748.621 607.827 757.488 573.897C761.684 557.354 765.523 540.556 770.669 524.281Z"/>
	<path fill="#FEFEFE" d="M291.26 517.186L291.884 517.123C293.213 518.792 314.181 629.154 316.759 641.858C309.303 641.983 301.833 641.925 294.375 641.955L292.982 641.926C291.758 640.943 291.561 640.156 291.204 638.6C290.595 635.94 290.408 633.131 289.897 630.438L285.067 605.234Q276.762 563.035 268.991 520.733C276.335 519.228 283.837 518.227 291.26 517.186Z"/>
	<path fill="#FEFEFE" d="M371.423 304.913Q383.031 304.842 394.638 304.956C394.773 311.454 394.632 317.984 394.619 324.486C391.311 324.536 388.41 324.758 385.204 325.608C385.341 325.652 385.478 325.699 385.616 325.741L386.306 325.95C389.116 326.818 391.783 327.132 394.697 327.435C394.808 345.867 395.07 364.35 394.562 382.778C394.33 391.186 393.512 399.592 393.064 407.994C392.631 416.116 392.558 424.25 392.19 432.376C392.072 435.241 391.823 438.083 391.564 440.937L371.462 440.946L371.423 304.913Z"/>
	<path fill="#FEFEFE" d="M815.551 325.984L841.854 326.067Q841.56 383.783 841.953 441.497C833.046 441.496 824.111 441.648 815.208 441.461C814.657 424.39 815.13 407.17 815.14 390.086C815.152 368.726 814.806 347.336 815.551 325.984Z"/>
	<path fill="#FEFEFE" d="M690.234 325.743L715.411 325.548C715.419 337.712 715.445 439.756 715.235 440.266C715.097 440.599 714.744 440.793 714.498 441.057L688.632 441.044C688.549 428.887 687.795 328.999 689.059 326.059L690.234 325.743Z"/>
	<path fill="#FEFEFE" d="M782.623 732.514L809.443 732.38C810.069 740.343 809.67 748.62 809.685 756.622L809.727 801.979L809.802 830.513C809.863 836.125 810.39 842.027 809.814 847.587C808.61 848.209 807.562 848.32 806.243 848.465Q794.513 848.368 782.783 848.393C782.243 809.812 782.605 771.106 782.623 732.514Z"/>
	<path fill="#FEFEFE" d="M772.169 325.417L772.07 441.137L745.412 441.112L745.027 325.584Q758.599 325.648 772.169 325.417Z"/>
	<path fill="#FEFEFE" d="M315.731 513.177L317.223 513.171C318.014 513.927 318.223 514.553 318.487 515.585C319.803 520.73 320.459 526.173 321.654 531.394C330.059 568.09 336.362 605.304 345.262 641.876L323.875 641.949L319.068 641.925C313.247 599.787 301.024 558.613 294.538 516.598C301.621 515.567 308.639 514.163 315.731 513.177Z"/>
	<path fill="#FEFEFE" d="M724.92 512.701Q737.134 516.715 749.245 521.027C745.425 533.642 740.944 546.074 736.867 558.611Q729.221 582.42 722.08 606.385C718.59 617.815 714.766 629.207 712.107 640.863L687.028 631.45C690.621 618.1 695.627 605.1 699.591 591.863Q707.083 566.344 715.368 541.071C718.411 531.602 721.206 521.93 724.92 512.701Z"/>
	<path fill="#FEFEFE" d="M227.587 715.526Q239.94 715.365 252.295 715.392C253.02 759.602 251.966 803.855 252.66 848.074L227.551 848.097L227.587 715.526Z"/>
	<path fill="#FEFEFE" d="M254.545 715.361Q267.227 715.265 279.908 715.378C279.43 759.572 279.99 803.824 279.832 848.028C271.703 848.339 263.484 848.083 255.346 848.069C254.097 833.027 254.984 817.242 254.944 802.13L254.545 715.361Z"/>
	<path fill="#FEFEFE" d="M344.247 304.903L369.108 304.97C368.41 350.237 369.313 395.544 368.98 440.815Q356.586 440.886 344.193 440.719C343.892 395.47 343.756 350.148 344.247 304.903Z"/>
	<path fill="#FEFEFE" d="M717.518 306.516L742.917 306.549L743.019 441.161Q730.267 441.308 717.515 441.185L717.518 306.516Z"/>
	<path fill="#FEFEFE" d="M629.643 306.903Q642.568 306.797 655.494 306.895L655.667 440.973L634.296 440.994C632.778 435.738 630.54 430.135 629.819 424.747C629.129 419.6 629.445 414.188 629.455 408.999L629.517 383.365C629.586 357.883 629.305 332.382 629.643 306.903Z"/>
	<path fill="#FEFEFE" d="M228.1 305.248L248.534 305.299Q248.211 373.037 248.615 440.771L241.129 440.786Q231.844 440.926 222.56 440.732L222.716 305.388L228.1 305.248Z"/>
	<path fill="#FEFEFE" d="M172.988 513.732Q186.219 513.624 199.448 513.822L199.55 597.471C199.553 611.665 200.289 626.294 199.481 640.447C199.444 641.102 199.253 641.488 198.873 642.01L171.783 642.025L171.939 549.452L171.969 525.863C171.971 522.134 171.501 517.973 172.152 514.315L172.988 513.732Z"/>
	<path fill="#FEFEFE" d="M500.804 529.601C490.681 529.595 467.618 530.804 458.776 528.438Q457.296 528.057 455.875 527.492Q454.455 526.927 453.117 526.187Q451.78 525.448 450.546 524.545Q449.313 523.642 448.203 522.591Q447.741 522.148 447.302 521.682Q446.863 521.216 446.448 520.728Q446.034 520.24 445.645 519.732Q445.257 519.223 444.895 518.695Q444.533 518.167 444.198 517.621Q443.864 517.075 443.558 516.513Q443.252 515.95 442.976 515.373Q442.699 514.796 442.453 514.205Q442.207 513.614 441.991 513.011Q441.775 512.408 441.591 511.795Q441.407 511.182 441.254 510.561Q441.101 509.939 440.981 509.31Q440.861 508.681 440.773 508.047Q440.685 507.413 440.63 506.775Q440.575 506.138 440.552 505.498Q440.53 504.858 440.541 504.218Q440.551 503.56 440.593 502.903Q440.636 502.246 440.71 501.592Q440.784 500.938 440.889 500.289Q440.995 499.639 441.133 498.995Q441.27 498.352 441.438 497.715Q441.607 497.079 441.806 496.452Q442.005 495.824 442.234 495.207Q442.464 494.591 442.723 493.985Q442.982 493.38 443.27 492.789Q443.558 492.197 443.875 491.62Q444.192 491.043 444.536 490.482Q444.88 489.921 445.252 489.378Q445.623 488.834 446.02 488.309Q446.417 487.785 446.84 487.28Q447.262 486.775 447.708 486.291Q448.155 485.807 448.624 485.346C452.082 481.916 456.436 479.257 461.148 477.985C470.441 475.478 500.245 476.874 511.838 476.915C513.386 476.939 515.399 476.701 516.731 477.473C517.309 483.623 516.969 490.021 516.966 496.201L516.931 529.549C511.594 529.509 506.123 529.21 500.804 529.601Z"/>
	<path fill="#F16E6D" d="M226.934 509.742L258.358 509.793C258.287 515.125 257.129 532.361 258.5 536.43C258.1 537.378 257.959 537.94 258.004 538.97Q257.996 590.393 258.527 641.813C249.833 641.316 235.409 640.789 226.997 641.958L226.989 573.989C227.004 562.544 227.889 550.376 226.708 539.035L226.752 536.516C226.631 527.644 226.326 518.594 226.934 509.742Z"/>
	<path fill="#5475B9" d="M168.028 302.873C175.571 302.803 197.84 301.605 203.955 303.137C203.953 310.561 204.241 318.12 203.787 325.526C203.699 326.707 203.589 327.803 203.712 328.987C204.275 342.203 203.93 355.572 203.94 368.806L203.989 440.531L168.477 440.595C168.507 429.301 169.373 332.107 167.985 329.657L166.124 329.18C167.254 328.937 167.312 328.911 168.088 328.056C168.19 326.909 168.041 326.416 167.528 325.391C169.109 322.744 168.074 306.934 168.028 302.873Z"/>
	<path fill="#5475B9" d="M275.652 302.191Q296.142 302.47 316.633 302.436C316.627 310.14 316.814 317.899 316.522 325.595L316.592 327.443C318.837 329.144 323.335 328.032 326.105 328.418Q321.308 328.565 316.509 328.549L316.961 440.568C303.343 439.95 289.409 440.388 275.765 440.58Q276.232 384.525 275.673 328.471L275.678 325.559C275.331 317.808 275.52 309.95 275.652 302.191Z"/>
	<path fill="#F16E6D" d="M772.203 302.112C786.568 302.165 801.031 301.854 815.383 302.314C815.204 309.507 814.82 316.834 815.313 324.015L815.551 325.984C814.806 347.336 815.152 368.726 815.14 390.086C815.13 407.17 814.657 424.39 815.208 441.461Q793.641 441.118 772.07 441.137L772.169 325.417L771.037 323.665L771.875 323.165C773.016 316.613 772.165 308.83 772.203 302.112Z"/>
	<path fill="#5475B9" d="M154.835 712.543Q177.601 712.758 200.368 712.583L200.384 736.462C208.51 736.517 217.066 736.044 225.136 736.87C224.981 736.887 224.827 736.905 224.672 736.92C220.596 737.312 202.131 736.042 200.193 737.993C201.009 738.868 202.059 738.877 203.22 738.961C209.314 739.405 215.488 738.764 221.58 739.424C214.49 739.643 207.393 739.509 200.302 739.444L200.443 848.046C185.214 847.883 169.972 848.041 154.742 848.073L154.866 761.898C154.81 745.49 154.192 728.935 154.835 712.543Z"/>
	<path fill="#FEFEFE" d="M503.211 245.612L504.069 245.525C515.776 244.441 528.356 246.138 537.628 253.84C541.882 257.373 545.184 261.776 547.226 266.926C550.996 276.435 548.645 286.506 551.763 296.096C554.515 304.56 563.854 314.67 564.292 322.94C564.379 324.588 563.999 326.03 562.823 327.242C556.622 333.63 536.666 331.9 528.03 331.851Q528.154 325.361 527.97 318.872Q528.444 318.408 528.912 317.938C539.768 307.048 541.06 295.576 541.023 280.905C538.794 281.597 536.49 282.45 534.2 282.912C527.418 284.279 518.059 281.573 514.735 274.926C513.609 272.674 512.986 267.01 511.038 265.7C509.577 266.69 509.356 271.231 508.781 273.109C506.936 279.139 501.86 283.271 495.903 285.084C493.801 285.725 491.734 285.952 489.774 287.002L489.586 287.899C490.095 288.129 490.948 288.434 491.408 288.792C493.325 290.286 492.231 295.301 492.914 297.79L493.446 297.825C494.864 294.674 494.603 291.488 494.631 288.098C499.027 286.734 502.578 284.866 505.972 281.728C508.28 279.018 509.849 276.237 511.396 273.06C512.245 274.683 513.13 276.368 514.243 277.827C518.295 283.138 524.348 285.067 530.696 285.726C530.588 287.74 530.087 289.794 530.087 291.796C530.087 293.166 530.327 293.613 531.289 294.543L532.673 294.48C533.176 292.436 531.538 288.415 531.06 286.283C531.934 285.38 537.33 284.422 538.968 283.93C538.88 289.692 538.834 295.437 537.14 300.997C535.042 307.883 529.786 315.601 523.238 318.834Q522.628 319.135 521.996 319.386Q521.363 319.637 520.713 319.837Q520.062 320.036 519.398 320.183Q518.734 320.33 518.06 320.423Q517.386 320.516 516.707 320.555Q516.028 320.594 515.347 320.578Q514.667 320.562 513.991 320.492Q513.314 320.422 512.645 320.298C499.549 317.967 498.165 305.827 493.404 304.103C494.047 309.269 497.825 311.687 499.187 316.279C500.525 320.79 499.583 327.629 499.538 332.374C489.596 332.218 468.584 333.429 460.309 329.214C458.605 328.346 456.936 327.06 456.413 325.131C454.901 319.558 460.706 312.26 463.64 307.878C465.92 304.473 468.799 300.715 470.041 296.781C471.123 293.351 471.062 289.681 471.245 286.121C471.686 277.509 474.058 269.51 478.747 262.212C484.616 253.077 492.708 247.876 503.211 245.612Z"/>
	<path fill="#020202" d="M519.379 290.152C522.367 292.218 519.164 295.883 520.302 299.152C521.703 300.547 523.059 300.383 524.952 300.531L525.399 301.212L524.994 303.117C523.966 303.044 522.911 302.883 521.912 302.627C520.242 302.198 518.92 301.246 518.139 299.682C516.716 296.834 518.461 292.912 519.379 290.152Z"/>
	<path fill="#5475B9" d="M695.526 711.465C715.839 710.968 736.226 711.334 756.546 711.376L756.497 730.015C774.16 730.221 791.852 729.998 809.519 729.974L809.535 730.587C803.084 730.301 758.547 729.785 756.379 731.241C756.675 732.13 756.524 732.14 757.359 732.695C757.096 732.962 756.695 733.142 756.571 733.495C755.769 735.771 756.51 839.641 756.513 848.072C760.692 848.144 765.089 847.937 769.233 848.414C761.251 848.969 753.073 848.22 745.062 848.155L695.464 848.047L695.443 732.586L695.612 730.47C695.072 724.281 695.516 717.696 695.526 711.465Z"/>
	<path fill="#FEFEFE" d="M154.549 252.59L394.836 252.543L394.719 302.508L342.008 302.519L341.934 325.612L316.522 325.595C316.814 317.899 316.627 310.14 316.633 302.436Q296.142 302.47 275.652 302.191C275.52 309.95 275.331 317.808 275.678 325.559L250.633 325.52C250.571 317.983 250.869 310.449 250.73 302.913C240.829 302.863 230.265 302.086 220.456 303.165C215.349 303.759 209.016 304.019 203.955 303.137C197.84 301.605 175.571 302.803 168.028 302.873C168.074 306.934 169.109 322.744 167.528 325.391L154.52 325.391L154.549 252.59Z"/>
	<path fill="#FEFEFE" d="M154.574 459.358C196.224 458.782 237.928 459.067 279.585 459.052C316.927 459.04 354.305 458.679 391.642 459.108C388.774 475.155 385.647 495.498 384.309 511.629C374.757 511.644 365.189 511.772 355.64 511.501L355.006 536.578C345.101 536.602 335.176 536.769 325.273 536.627C323.397 527.85 321.731 518.99 319.676 510.256C301.827 512.033 284.02 516.376 266.206 518.725C267.05 524.68 268.364 530.553 269.598 536.437L258.5 536.43C257.129 532.361 258.287 515.125 258.358 509.793L226.934 509.742C226.326 518.594 226.631 527.644 226.752 536.516L201.635 536.501C201.689 528.19 201.803 519.873 201.755 511.562Q185.86 511.451 169.964 511.524C168.602 554.965 170.519 598.515 169.431 641.958C164.626 641.938 159.808 641.991 155.004 641.879C154.38 633.298 154.628 624.604 154.628 616.001L154.634 577.188L154.574 459.358Z"/>
	<path fill="#FEFEFE" d="M154.889 660.46L297.733 660.27Q335.321 660.132 372.909 660.453C374.955 665.187 376.997 669.127 380.745 672.766Q376.419 734.948 371.175 797.06C369.764 814.015 369.416 831.503 367.022 848.327C358.194 848.294 349.312 848.476 340.492 848.196C330.019 847.932 319.515 848.093 309.038 848.092Q308.88 816.189 309.354 784.29C309.439 769.366 309.092 754.428 309.355 739.507C309.373 738.612 309.231 737.822 309.09 736.941L282.271 736.992Q282.151 725.015 282.205 713.038C263.304 712.552 244.343 713.08 225.431 712.912C225.126 720.885 225.196 728.891 225.136 736.87C217.066 736.044 208.51 736.517 200.384 736.462L200.368 712.583Q177.601 712.758 154.835 712.543C154.989 695.195 154.534 677.798 154.889 660.46Z"/>
	<path fill="#F16E6D" d="M309.207 712.519L340.511 712.828C340.471 757.9 339.635 803.142 340.492 848.196C330.019 847.932 319.515 848.093 309.038 848.092Q308.88 816.189 309.354 784.29C309.439 769.366 309.092 754.428 309.355 739.507C309.373 738.612 309.231 737.822 309.09 736.941L309.207 712.519Z"/>
	<path fill="#FEFEFE" d="M628.014 252.464L870.527 252.621L870.77 441.47L843.993 441.445L843.898 364.053C843.878 350.783 844.239 337.382 843.779 324.131Q829.546 323.984 815.313 324.015C814.82 316.834 815.204 309.507 815.383 302.314C801.031 301.854 786.568 302.165 772.203 302.112C772.165 308.83 773.016 316.613 771.875 323.165L771.037 323.665C762.474 323.238 753.842 323.452 745.268 323.466C745.254 317.156 745.439 310.775 745.18 304.474Q730.277 304.284 715.374 304.366L715.209 323.424L686.483 323.535L686.485 440.962L658.065 440.974L657.74 304.62C647.823 304.607 637.876 304.765 627.963 304.55L628.014 252.464Z"/>
	<path fill="#FEFEFE" d="M642.547 660.511L791.927 660.166L842.09 660.104C851.662 660.097 861.514 659.649 871.063 660.392L870.925 848.121C858.333 849.197 845.168 848.354 832.523 848.155C823.744 848.017 815.008 848.413 806.243 848.465C807.562 848.32 808.61 848.209 809.814 847.587C810.39 842.027 809.863 836.125 809.802 830.513L809.727 801.979L809.685 756.622C809.67 748.62 810.069 740.343 809.443 732.38L809.535 730.587L809.519 729.974C791.852 729.998 774.16 730.221 756.497 730.015L756.546 711.376C736.226 711.334 715.839 710.968 695.526 711.465C695.516 717.696 695.072 724.281 695.612 730.47C687.497 730.333 676.41 729.288 668.611 730.548C667.104 734.455 668.08 834.484 668.1 848.062L657.668 848.085C656.752 830.892 654.799 813.746 653.454 796.582L642.547 660.511Z"/>
	<path fill="#F16E6D" d="M809.926 710.214L840.311 710.435C839.739 736.424 840.336 762.466 840.415 788.461C840.475 808.293 839.944 828.156 840.153 847.978C850.37 847.961 860.726 847.585 870.925 848.121C858.333 849.197 845.168 848.354 832.523 848.155C823.744 848.017 815.008 848.413 806.243 848.465C807.562 848.32 808.61 848.209 809.814 847.587C810.39 842.027 809.863 836.125 809.802 830.513L809.727 801.979L809.685 756.622C809.67 748.62 810.069 740.343 809.443 732.38L809.535 730.587L809.519 729.974C810.262 723.501 809.871 716.733 809.926 710.214Z"/>
	<path fill="#FEFEFE" d="M639.45 459.522L784.882 459.626C813.477 459.576 842.271 458.857 870.847 459.652L871.068 642.069Q852.959 642.162 834.851 642.019C825.954 641.698 771.465 642.922 769.085 641.455L769.234 640.653C778.026 603.544 788.239 566.824 797.531 529.843C788.124 527.258 778.239 524.808 769.102 521.417C767.078 528.646 764.937 535.861 763.037 543.123C757.342 541.813 751.582 540.136 745.848 539.097C747.955 532.601 749.96 526.045 752.255 519.614C742.77 516.222 733.065 513.378 723.637 509.855C720.353 517.381 718.064 525.466 715.526 533.28Q707.792 557.201 700.335 581.211C697.891 589.115 695.849 597.377 692.955 605.117C692.308 597.622 692.497 590.051 692.509 582.534C692.537 565.568 693.251 548.475 692.904 531.534L663.561 531.493L663.533 512.716Q657.055 512.667 650.578 512.76C649.828 494.573 643.224 477.215 639.45 459.522Z"/>
	<path fill="#5475B9" d="M802.668 512.064L834.955 512.049L834.945 598.398C834.918 612.862 834.271 627.586 834.851 642.019C825.954 641.698 771.465 642.922 769.085 641.455L769.234 640.653C770.947 642.364 779.97 641.557 782.559 641.555L802.819 641.529C803.371 608.388 803.035 575.168 802.946 542.02C802.919 532.039 802.517 522.04 802.668 512.064Z"/>
	<path fill="#FEFEFE" d="M501.938 339.744L501.982 318.336Q503.947 319.638 506.085 320.629C512.487 323.639 519.389 323.273 525.87 320.819Q525.894 330.384 526.037 339.948C553.725 344.772 578.756 352.086 599.232 372.4C609.461 382.548 615.788 395.136 621.37 408.269C629.199 426.691 648.558 496.692 648.485 514.82C648.452 523.128 644.754 531.991 638.766 537.766C635.434 540.979 632.314 543.027 627.727 544.102C618.993 546.149 608.677 545.077 599.699 545.094Q577.703 545.194 555.708 545.063C555.651 522.065 555.148 498.899 555.9 475.92C564.959 476.167 582.731 477.081 590.999 475.802L590.616 475.395L591.433 475.529L591.253 474.876C587.524 473.286 582.337 474.034 578.328 473.78C576.956 466.006 577.345 457.873 577.311 450.003L577.266 419.583L568.571 419.486C563.814 396.759 559.254 373.662 553.396 351.201C550.86 354.224 548.392 357.613 545.486 360.28C538.785 366.427 528.331 369.914 519.413 370.705C504.534 372.026 491.694 367.842 480.304 358.217C476.41 354.927 476.375 349.112 474.912 348.48C474.612 348.725 474.189 348.87 474.01 349.215C472.762 351.617 471.51 364.876 470.827 368.701C467.578 386.889 463.997 405.024 461.063 423.267C458.133 441.495 455.835 459.945 453.67 478.276C446.031 483.756 440.238 490.113 438.652 499.755C437.408 507.315 439.318 514.747 443.8 520.904C445.889 523.773 448.411 525.931 451.119 528.181Q447.99 551.438 445.884 574.809C445.23 581.492 445.02 588.357 443.96 594.974C432.134 592.637 384.077 594.107 377.552 590.924L377.222 589.607C381.705 552.513 385.724 515.45 391.011 478.449C393.941 457.944 396.353 436.467 402.512 416.652C406.597 403.507 412.738 390.655 421.042 379.64C442.53 351.138 468.52 344.379 501.938 339.744Z"/>
	<path fill="#D1E1DD" d="M322.72 234.163C322.228 227.512 321.431 220.744 321.53 214.073Q321.555 212.04 321.669 210.01Q321.782 207.98 321.983 205.957Q322.184 203.933 322.472 201.921Q322.76 199.908 323.135 197.909Q323.509 195.911 323.97 193.931Q324.431 191.95 324.977 189.992Q325.523 188.033 326.153 186.1Q326.783 184.167 327.495 182.263Q328.208 180.359 329.003 178.487Q329.797 176.616 330.672 174.78Q331.546 172.944 332.499 171.148Q333.452 169.352 334.482 167.599Q335.512 165.846 336.617 164.139Q337.721 162.432 338.898 160.774Q340.076 159.117 341.323 157.511Q342.571 155.906 343.887 154.356Q344.673 153.43 345.481 152.524Q346.29 151.619 347.121 150.734Q347.953 149.848 348.806 148.985Q349.659 148.121 350.534 147.278Q351.408 146.436 352.304 145.616Q353.2 144.796 354.116 143.999Q355.031 143.202 355.967 142.428Q356.903 141.654 357.858 140.904Q358.813 140.154 359.786 139.428Q360.759 138.702 361.751 138.001Q362.742 137.3 363.751 136.624Q364.76 135.948 365.785 135.298Q366.81 134.647 367.852 134.023Q368.893 133.399 369.95 132.801Q371.007 132.203 372.078 131.631Q373.15 131.06 374.235 130.516Q375.321 129.972 376.419 129.455Q377.518 128.939 378.63 128.45Q379.741 127.961 380.865 127.5Q381.988 127.039 383.123 126.607Q384.258 126.175 385.403 125.771Q386.548 125.367 387.703 124.993Q388.858 124.618 390.022 124.272Q391.186 123.927 392.358 123.611Q393.531 123.295 394.711 123.008Q395.891 122.721 397.077 122.465Q398.264 122.208 399.457 121.981Q400.65 121.754 401.848 121.557Q403.046 121.36 404.249 121.194Q405.452 121.027 406.658 120.891Q407.865 120.754 409.075 120.648Q410.284 120.542 411.496 120.467C436.572 118.822 460.202 126.358 480.575 140.948C490.633 148.151 500.064 156.283 510.539 162.898Q512.222 163.98 513.941 165.005Q515.66 166.03 517.413 166.995Q519.165 167.961 520.95 168.867Q522.734 169.772 524.549 170.617Q526.363 171.461 528.205 172.244Q530.047 173.026 531.914 173.746Q533.781 174.465 535.672 175.121Q537.563 175.776 539.475 176.368Q541.386 176.959 543.317 177.485Q545.248 178.01 547.196 178.47Q549.143 178.93 551.105 179.324Q553.067 179.718 555.042 180.045Q557.016 180.371 559 180.631Q560.984 180.891 562.976 181.083Q564.968 181.275 566.965 181.399Q568.963 181.523 570.963 181.58C595.514 182.224 618.543 175.665 639.449 162.891C650.441 156.174 660.011 146.789 670.512 139.289C698.059 119.613 732.616 113.218 764.657 125.065Q768.902 126.641 773.008 128.55C782.371 132.893 791.176 138.275 798.896 145.153C817.165 161.429 829.698 184.727 830.988 209.293C831.436 217.838 830.618 226.174 828.921 234.543L693.628 234.528L642.253 234.564C631.655 234.584 620.993 234.362 610.41 234.922C608.905 283.659 610.506 332.614 610.469 381.38C594.602 362.036 574.516 349.035 550.329 342.745C543.118 340.87 535.58 339.897 528.453 337.932C527.831 337.05 527.964 337.45 527.805 336.377C527.65 335.333 527.604 335.772 528.293 334.825C532.075 333.468 542.564 334.434 547.236 334.23C553.009 333.979 560.736 333.331 564.743 328.66C571.804 320.429 556.437 303.339 553.628 294.923C551.843 289.575 552.443 283.987 552.144 278.455C551.618 268.701 547.522 259.547 540.187 253.02C530.851 244.711 518.182 242.258 505.971 243.06C495.68 243.736 487.084 248.626 480.345 256.318C472.748 264.989 470.051 274.795 469.186 286.041C468.879 290.03 468.731 294.119 467.229 297.885C464.023 305.927 452.692 314.947 453.581 323.827C455.232 340.328 494.308 330.929 500.22 335.958L500.144 336.696C499.76 337.171 499.54 337.651 498.941 337.855C496.19 338.788 492.5 338.635 489.564 339.037C485.503 339.593 481.432 340.525 477.45 341.503C449.001 348.489 428.122 362.912 412.917 388.061L413.443 291.166C413.482 272.262 413.897 253.247 413.244 234.354C383.147 233.484 352.84 234.15 322.72 234.163Z"/>
	<path fill="#FEFEFE" d="M453.173 529.18C457.293 530.633 461.335 531.693 465.629 532.483Q465.713 547.907 465.62 563.331L580.472 563.293Q580.459 555.22 579.946 547.163C593.876 547.242 619.001 548.97 631.261 545.249Q634.607 591.367 638.549 637.439L651.354 799.297L656.308 860.308C657.096 869.933 658.544 879.935 658.468 889.583C658.44 893.153 657.472 896.468 655.112 899.207C651.851 902.993 647.065 904.68 642.321 905.685C639.388 893.27 633.862 883.039 622.758 876.164Q621.819 875.578 620.851 875.041Q619.884 874.504 618.89 874.016Q617.896 873.528 616.879 873.091Q615.862 872.654 614.825 872.269Q613.787 871.885 612.731 871.553Q611.675 871.221 610.604 870.943Q609.532 870.665 608.448 870.442Q607.364 870.218 606.27 870.05Q605.176 869.882 604.075 869.769Q602.974 869.656 601.869 869.599Q600.763 869.542 599.656 869.542Q598.55 869.541 597.444 869.596Q596.339 869.651 595.237 869.762Q594.136 869.873 593.042 870.04Q591.948 870.206 590.863 870.428Q589.779 870.65 588.707 870.926Q587.918 871.119 587.136 871.336C572.83 876.048 561.567 884.243 550.433 894.17C546.378 897.785 542.425 901.855 537.94 904.926C538.006 903.467 537.961 902.263 537.723 900.823C533.146 899.195 501.052 900.74 492.918 900.393L490.564 900.572C490.526 899.551 490.743 898.906 491.105 897.957C492.361 892.75 491.742 884.915 491.96 879.35Q492.798 856.601 493.971 833.867L443.468 834.04C445.267 837.926 442.935 864.273 441.826 869.511C441.151 870.289 441.555 870.055 440.663 870.293C431.29 868.326 421.94 869.51 413.263 873.574C399.94 879.814 392.015 892.142 387.113 905.552C384.299 905.561 381.555 905.443 378.821 904.692C372.706 903.014 369.109 899.121 366.053 893.819C365.636 884.689 367.132 874.981 367.925 865.88L371.877 818.795L383.076 674.309C386.807 676.478 390.646 678.108 394.897 678.928C402.749 680.443 411.419 678.964 418.014 674.343C432.18 664.417 429.672 647.389 432.34 632.359L432.741 631.77C435.629 631.087 439.273 631.602 442.262 631.718C442.702 624.981 444.043 601.96 445.855 596.608C447.127 590.553 447.205 583.912 447.763 577.734Q449.173 562.87 450.815 548.029C451.489 541.782 451.959 535.345 453.173 529.18Z"/>
	<path fill="#020202" d="M457.987 609.997L573.931 609.921C574.309 628.93 576.056 648.009 577.118 666.998L583.919 786.751C584.747 801.177 586.316 815.753 586.643 830.18C586.672 831.45 586.777 832.486 586.163 833.638L584.926 833.974C583.999 838.468 586.53 864.71 587.136 871.336C572.83 876.048 561.567 884.243 550.433 894.17C546.378 897.785 542.425 901.855 537.94 904.926C538.006 903.467 537.961 902.263 537.723 900.823C533.146 899.195 501.052 900.74 492.918 900.393L490.564 900.572C490.526 899.551 490.743 898.906 491.105 897.957C492.361 892.75 491.742 884.915 491.96 879.35Q492.798 856.601 493.971 833.867L443.468 834.04C441.851 830.176 454.364 660.977 455.473 645.327C456.301 633.633 457.797 621.687 457.987 609.997Z"/>
	<path fill="#FEFEFE" d="M501.388 833.435C502.277 812.746 511.863 649.913 513.632 646.63C514.524 652.396 514.536 658.454 514.84 664.28L516.513 698.255L522.16 792.392L523.376 816.558C523.634 822.307 523.623 828.24 524.574 833.923C527.852 833.948 531.132 834.001 534.409 833.979L584.926 833.974C583.999 838.468 586.53 864.71 587.136 871.336C572.83 876.048 561.567 884.243 550.433 894.17C546.378 897.785 542.425 901.855 537.94 904.926C538.006 903.467 537.961 902.263 537.723 900.823C533.146 899.195 501.052 900.74 492.918 900.393L490.564 900.572C490.526 899.551 490.743 898.906 491.105 897.957C492.361 892.75 491.742 884.915 491.96 879.35Q492.798 856.601 493.971 833.867C496.448 833.785 498.928 833.757 501.388 833.435Z"/>
	<path fill="#F16E6D" d="M534.409 833.979L584.926 833.974C583.999 838.468 586.53 864.71 587.136 871.336C572.83 876.048 561.567 884.243 550.433 894.17C546.378 897.785 542.425 901.855 537.94 904.926C538.006 903.467 537.961 902.263 537.723 900.823C533.146 899.195 501.052 900.74 492.918 900.393L490.564 900.572C490.526 899.551 490.743 898.906 491.105 897.957Q514.418 897.703 537.733 897.736C536.87 891.899 537.192 885.345 536.949 879.414C536.332 864.325 535.93 849.001 534.409 833.979Z"/>
	<path fill="#020202" d="M537.733 897.736L537.713 899.473C535.23 901.17 499.247 899.76 492.918 900.393L490.564 900.572C490.526 899.551 490.743 898.906 491.105 897.957Q514.418 897.703 537.733 897.736Z"/>
	<path fill="#D1E1DD" d="M460.432 612.048C477.912 612.347 495.399 612.017 512.88 612.35L503.874 754.846L500.887 803.281C500.397 811.613 500.267 820.122 499.407 828.418C499.281 829.636 499.286 830.569 498.421 831.511L445.209 831.485Q449.52 761.104 454.778 690.787L458.174 640.26C458.829 630.889 459.182 621.358 460.432 612.048Z"/>
	<path fill="#D1E1DD" d="M514.96 612.405C533.833 612.237 552.729 612.353 571.603 612.468L579.475 747.193Q581.638 789.389 584.568 831.539L526.454 831.523C524.319 805.631 523.689 779.531 522.084 753.585C519.181 706.645 515.756 659.429 514.96 612.405Z"/>
</svg>
