<?xml version="1.0" encoding="utf-8"?>
<svg xmlns="http://www.w3.org/2000/svg" xmlns:xlink="http://www.w3.org/1999/xlink" version= "1.1" width="1459px" height="1043px" viewBox="-190 536 1459 1043">
<g id="layer1">
<g style="fill:rgb(130,210,227); fill-opacity:1.0; stroke-linejoin: miter">
<path d="M-196.74606,504.69873C-196.90924,504.69873,-197.0657,504.76367,-197.18106,504.87903C-197.29642,504.9944,-197.3612,505.151,-197.3612,505.31433L-197.35985,1609.682C-197.35985,1610.0219,-197.08437,1610.2972,-196.74467,1610.2972L1275.7474,1610.2998C1275.9105,1610.2998,1276.067,1610.2346,1276.1825,1610.1194C1276.298,1610.0042,1276.3627,1609.8474,1276.3627,1609.6843L1276.3593,505.31458C1276.3593,504.97473,1276.0839,504.69922,1275.744,504.69922L-196.74606,504.69873 Z"/>
</g>
<g style="fill:rgb(255,255,255); fill-opacity:0.16862746; stroke-linejoin: miter">
<path d="M534.2369,1188.6974L534.03143,1198.9418Q532.4755,1212.764,526.98865,1224.3323Q524.24536,1230.1165,520.5194,1235.3374Q510.34436,1247.8955,507.13,1249.7305Q496.65463,1258.478,484.25046,1262.9666Q481.45087,1264.7549,464.55908,1267.3069Q457.63376,1267.9543,450.22592,1267.5386Q446.31985,1267.7681,430.27258,1263.155Q424.05676,1260.9749,418.42114,1257.8344Q407.15085,1251.5541,398.20193,1241.4354Q378.1269,1216.8782,379.9748,1189.2474Q380.70868,1175.4989,385.68454,1163.6698Q388.1724,1157.7549,391.72104,1152.3208Q392.89078,1149.2402,404.6362,1137.2222Q424.25916,1119.3677,453.37753,1117.2253Q460.67462,1117.049,467.47693,1117.9066Q484.0496,1120.9581,486.77017,1122.8112Q498.89017,1127.6332,509.03058,1136.5968Q519.1712,1145.5597,525.2766,1156.8473Q527.4336,1159.306,532.1657,1175.0858Q533.7056,1181.6012,534.2369,1188.6974"/>
</g>
<g style="fill:rgb(255,255,255); fill-opacity:0.23137255; stroke-linejoin: miter">
<path d="M377.2696,1222.2842L487.19693,1125.3339L530.4381,1154.2628L406.70517,1263.7241L377.2696,1222.2842"/>
</g>
<g style="fill:rgb(60,70,79); fill-opacity:1.0; stroke-linejoin: miter">
<path d="M454.42728,1121.6974C454.98148,1121.7128,455.4393,1121.7299,455.72983,1121.7501C463.114,1122.2765,469.72833,1123.7589,476.47766,1126.4056C484.45987,1129.5399,491.72318,1134.1031,498.0651,1139.9647C499.25662,1141.0741,499.32742,1141.1351,500.56656,1142.4156C503.57257,1145.5157,505.8753,1148.3419,508.29352,1151.8969C514.7137,1161.3672,518.64185,1172.2345,519.7921,1183.756C520.1238,1187.0033,520.2228,1192.0956,520.022,1194.9896C519.427,1203.4174,517.70984,1210.671,514.5626,1218.0553C509.22852,1230.5513,500.01535,1241.4551,488.56357,1248.8164C478.69684,1255.1704,467.4851,1258.8691,455.72702,1259.6562C454.2573,1259.7534,450.0624,1259.8037,448.21695,1259.7534C448.02298,1259.7471,447.85495,1259.7415,447.7186,1259.7336C445.43118,1259.6055,443.1664,1259.4077,441.7262,1259.2024C441.32153,1259.1433,440.63635,1259.0413,440.20813,1258.9829C434.68805,1258.1825,427.98328,1256.1888,422.54974,1253.7325C419.36462,1252.2982,416.62244,1250.8063,413.57266,1248.85C397.11258,1238.3175,385.8504,1221.0591,382.78876,1201.6691C382.19592,1197.9103,382.03796,1195.8126,381.9978,1191.2565C381.95917,1186.786,382.06042,1185.0123,382.5714,1181.2133C384.89395,1163.9381,393.76822,1148.1299,407.34186,1137.0708C412.92438,1132.5273,419.19855,1128.8801,425.94824,1126.2551C432.25674,1123.8052,439.2258,1122.2517,445.85464,1121.8047C446.67075,1121.751,447.52585,1121.6973,447.759,1121.679C448.64322,1121.616,452.26706,1121.6367,454.42728,1121.6974 Z M453.63522,1097.5151C451.12985,1097.4451,448.59354,1097.4451,446.7314,1097.5364C441.0344,1097.8193,434.5496,1098.7393,429.45148,1099.9885C427.27142,1100.5212,424.50983,1101.2839,423.2072,1101.708C415.46106,1104.2163,409.52826,1106.9126,402.6824,1111.0234C400.0986,1112.5776,395.9869,1115.4368,393.40732,1117.4727C388.50357,1121.3408,383.25275,1126.457,379.44385,1131.0625C373.18048,1138.6445,368.3282,1146.6877,364.7343,1155.4438C360.68393,1165.316,358.4766,1175.2494,357.87393,1186.3737C357.76675,1188.381,357.82248,1194.7804,357.9637,1196.7147C358.62442,1205.589,360.1041,1212.9487,362.8165,1220.8555C366.35904,1231.2053,371.65994,1240.7545,378.6482,1249.3717C383.18378,1254.9696,389.02606,1260.6273,394.69318,1264.9089C400.07074,1268.9749,405.00333,1271.9878,410.99252,1274.8594C417.52036,1277.9827,424.14185,1280.2661,431.19275,1281.8057C435.72705,1282.8,440.72522,1283.4954,445.19077,1283.752L445.98422,1283.8003L446.04178,1290.3936L446.0994,1296.9951L444.09348,1297.012C442.56146,1297.0259,441.9787,1297.0623,441.62964,1297.1497C440.03906,1297.5679,438.72833,1298.8074,438.2207,1300.3678C438.01605,1300.9845,438.0163,1301.0077,438.0147,1303.5194C438.01147,1304.9113,438.23468,1334.9471,438.49603,1370.2709C438.9237,1426.487,438.99426,1434.5667,439.09943,1435.0398C439.24493,1435.707,439.7359,1436.6985,440.17584,1437.1921C440.59198,1437.6621,441.21808,1438.1238,441.8426,1438.406C442.3617,1438.6455,442.52545,1438.7605,443.9629,1438.801C445.3573,1438.8389,447.95062,1438.8069,453.2294,1438.7502L463.00278,1438.6412L463.52213,1438.4342C464.2971,1438.1244,464.85367,1437.7545,465.39285,1437.1818C465.93253,1436.6093,466.22403,1436.1486,466.50516,1435.3915L466.69492,1434.8766L466.64053,1422.358C466.60364,1415.4677,466.3791,1385.277,466.13272,1355.2557L465.6881,1300.6727L465.50476,1300.1613C464.98682,1298.7036,463.88843,1297.6245,462.41434,1297.1008C462.0485,1296.971,461.8937,1296.9226,461.22195,1296.9045C460.8765,1296.895,460.3939,1296.8931,459.6755,1296.8911L457.50565,1296.8794L457.55423,1296.179C457.57394,1295.7898,457.57138,1292.8198,457.54288,1289.585L457.49185,1283.7075L458.87515,1283.602C460.46786,1283.487,462.41763,1283.2603,464.833,1282.9045C466.48724,1282.6638,466.95282,1282.582,469.25848,1282.1345C475.72504,1280.8809,482.73483,1278.6418,489.03183,1275.8196C490.5505,1275.1455,494.30576,1273.2776,495.5356,1272.5979C496.9753,1271.7996,497.43967,1271.5312,498.32138,1271.0098C511.10156,1263.4341,521.9503,1252.9048,529.8734,1240.3936C532.98773,1235.4673,535.6943,1230.1482,537.8321,1224.7336C541.2476,1216.0729,543.3525,1206.8395,544.02606,1197.619C544.39386,1192.5231,544.34686,1187.1503,543.88324,1182.1466C542.2071,1163.818,535.07214,1146.3527,523.3996,1132.0145C516.3178,1123.3126,507.70734,1115.9156,498.1564,1110.3065C490.30142,1105.694,482.50528,1102.5035,473.4574,1100.1877C471.45422,1099.6763,468.11285,1099.0056,465.67517,1098.6228C464.06354,1098.3647,463.28497,1098.2627,460.77087,1097.958C459.02637,1097.7468,456.349,1097.5906,453.63522,1097.5151 Z"/>
</g>
<g style="fill:rgb(0,0,0); fill-opacity:1.0; stroke-linejoin: miter">
<path d="M583.5438,1379.3367Q580.5226,1385.5051,579.0657,1393.8799Q577.3186,1404.3651,578.3236,1409.0431Q578.6074,1410.2985,579.3137,1411.2548Q579.5128,1411.7281,582.01904,1413.5472Q582.5724,1414.1266,582.74243,1414.8187Q582.9603,1415.6512,582.92755,1416.9641Q582.3116,1424.3196,582.53973,1425.2019Q582.7115,1427.5315,583.91095,1429.2605Q586.388,1433.0681,596.56055,1434.9817Q615.57776,1438.5281,618.5585,1427.9019Q619.6439,1424.2161,618.3489,1419.1003Q617.30023,1414.5148,612.6834,1404.037L611.1048,1384.3635L583.61926,1379.3506"/>
</g>
<g style="fill:rgb(0,0,0); fill-opacity:1.0; stroke-linejoin: miter">
<path d="M675.393,1348.9319L650.4582,1378.2319Q655.64655,1386.0991,656.5089,1393.3315Q656.9795,1396.6113,656.95703,1401.3855Q657.00806,1403.5068,656.4961,1415.425L656.4551,1418.9141Q656.50024,1422.012,656.9353,1423.7175Q657.4602,1425.8477,658.55396,1426.8157Q659.1543,1427.5442,662.59875,1428.9385Q667.1703,1430.6064,677.67737,1422.3843Q686.6167,1415.0823,687.3275,1408.9578Q687.724,1406.6797,687.36597,1403.531Q687.5155,1403.4983,685.38525,1392.3726L684.62683,1387.4863Q683.8002,1381.4475,683.963,1378.9214Q684.07227,1377.3936,684.5144,1377.0789Q684.57715,1376.7019,686.88367,1376.8425Q687.2822,1376.7849,687.66846,1376.553Q688.5695,1376.0713,689.3221,1374.0092Q691.1744,1368.2072,690.08185,1361.7429Q688.76544,1352.6245,675.4206,1348.9397"/>
</g>
<g style="fill:rgb(255,184,147); fill-opacity:1.0; stroke-linejoin: miter">
<path d="M475.3299,1033.9305L450.7926,1033.9507L451.17593,1085.3713Q443.5463,1094.8015,443.70316,1102.4954Q443.9055,1107.2278,447.84055,1111.136Q452.56827,1115.6902,458.53616,1117.2299Q464.86084,1118.7252,468.5728,1114.8431Q470.56836,1112.8451,472.25513,1109.4208Q472.97375,1107.9667,473.66968,1106.1754Q474.29944,1104.608,475.6552,1100.3918Q475.9947,1099.4893,476.08807,1099.5535Q476.2448,1099.5737,476.28656,1100.1755Q476.47913,1105.34,476.93433,1107.3575Q477.51892,1110.1483,478.53406,1111.9537Q480.91544,1116.0184,482.9313,1111.9323Q484.51224,1108.2784,484.73575,1103.0045Q484.87473,1098.0581,483.5532,1094.7749Q481.61008,1089.1069,471.49957,1083.1084Q471.54572,1072.905,472.16614,1067.3429Q472.22205,1065.3134,474.8094,1051.4015Q475.19794,1048.9198,475.36664,1046.7013Q475.76642,1041.9078,475.3299,1033.9362"/>
</g>
<g style="fill:rgb(0,0,0); fill-opacity:1.0; stroke-linejoin: miter">
<path d="M601.87946,799.5436Q592.752,798.8452,584.0531,803.20874Q574.84906,807.86804,570.0035,815.4404Q561.7847,828.2795,567.06726,855.5473L623.7995,856.5987Q628.15436,851.85077,630.09186,848.7354Q632.5173,844.9738,632.3931,841.33484L631.7502,832.902Q632.33124,822.4309,632.003,821.41345Q631.6578,817.60657,629.9799,814.76843Q626.6608,809.1028,618.58844,804.6947Q610.0809,800.1614,601.9511,799.5486"/>
</g>
<g style="fill:rgb(255,255,255); fill-opacity:1.0; stroke-linejoin: miter">
<path d="M615.30804,881.98334L569.64014,883.7459L562.7478,891.7524C538.00806,900.76355,520.1879,910.79517,509.0501,921.6061C490.94302,939.1813,473.6282,961.701,457.42987,989.46014C448.3864,1004.95825,445.03293,1020.08545,447.282,1034.7917L478.90073,1037.7216C477.21432,1021.5089,478.2462,1012.02893,481.71762,1008.95544C482.61728,1008.1588,483.42636,1007.12415,484.64597,1006.5067C491.03305,1003.27014,494.4238,1001.4508,494.6401,1000.68976C495.27707,1000.7088,496.57773,997.2564,499.19473,990.5749C499.76996,989.10565,500.8753,988.24164,501.82367,987.5932C502.7818,986.9389,504.14838,986.11835,506.10138,985.6174C515.8878,983.10626,521.29236,981.35724,522.6492,980.64166C526.0112,978.86676,530.8617,975.86993,536.85297,970.93146C549.92255,989.8199,557.9841,1006.27234,561.6141,1020.14417C565.05756,1033.3036,566.34814,1052.78,564.9121,1078.7294L617.60406,1084.1173L675.1045,1072.596C668.0444,1040.7173,664.2409,1018.55835,663.13385,1006.16455C661.8974,992.32196,662.1136,975.0109,664.3432,954.17554L710.07874,986.4084L713.81744,1001.69025C721.61237,1009.8351,730.15576,1009.943,730.15576,1009.943C740.2162,1010.07166,751.2742,1002.16705,751.2742,1002.16705C752.50116,992.2299,752.0462,984.03314,750.0047,977.5461C748.19867,971.8088,745.06726,966.34467,740.5155,961.18427C739.65674,959.3329,728.7097,949.0215,707.66003,930.2645C705.0939,927.9778,701.37396,922.1575,695.76624,913.24316C694.30273,910.91626,691.9618,909.1151,689.41833,907.39154C672.4821,895.9183,649.88544,890.0124,621.66876,889.6149L615.52045,882.23773 Z"/>
</g>
<g style="fill:rgb(0,0,0); fill-opacity:1.0; stroke-linejoin: miter">
<path d="M615.3995,1184.3134L611.51013,1226.5414L608.7208,1217.4452L615.2602,1185.0038 M674.579,1069.4226Q632.75024,1088.289,564.9542,1076.7828Q549.55597,1246.8247,593.92267,1296.3589L580.5553,1381.5137L613.01263,1387.917L625.89996,1348.1504L652.0806,1382.5981L677.9456,1349.7461L645.5083,1287.3195Q646.19336,1273.2535,680.094,1120.1765Q683.95337,1091.5999,674.6858,1069.7212 Z"/>
</g>
<g style="fill:rgb(255,184,147); fill-opacity:1.0; stroke-linejoin: miter">
<path d="M589.4788,824.67896Q580.7649,824.19946,576.1561,830.37415Q572.3498,834.8647,570.47144,850.22577L567.83093,848.8288Q567.3106,831.73285,564.8482,833.0672Q563.62286,834.13226,562.2075,839.77075Q561.06885,844.7063,561.3142,848.0328Q561.5487,852.81146,566.8008,855.8244Q566.05237,867.6158,570.1188,878.9233L568.34827,884.6541Q573.7986,894.0236,579.0507,899.71735Q584.6953,906.01215,596.73755,916.2195L609.0625,898.5074Q612.738,888.7856,614.92084,881.2896Q618.79645,874.2945,620.5435,869.66254Q626.259,854.2419,625.429,842.41125Q624.42145,831.5222,618.6169,828.64185Q616.65753,827.672,613.8193,827.30115L603.32184,826.52747Q590.12494,824.4856,589.4858,824.67896"/>
</g>
<g style="fill:rgb(0,0,0); fill-opacity:0.09411765; stroke-linejoin: miter">
<path d="M610.9087,899.8802L604.22095,913.4276L624.5198,914.81824L610.92114,899.8942L610.9087,899.8802L610.90845,899.88116 Z M578.24835,901.8455L569.05835,916.70605L590.4326,912.9828L578.2684,901.86395L578.24835,901.8455L578.24835,901.8465 Z M679.42896,937.57983Q674.2956,941.28455,671.91,944.28577Q670.8077,945.6638,669.8377,947.3545Q668.9462,948.8877,667.6696,951.65845L679.4309,937.58203L679.433,937.57983L679.4287,937.58105 Z M704.9846,933.0669Q702.63995,941.9326,701.58685,948.2345Q700.789,952.84204,699.7989,961.3392L704.9885,933.0669L704.9846,933.0679 Z M526.96265,953.0913L537.59894,968.9593Q537.628,965.3295,535.5682,962.3903Q533.3992,959.1556,526.9769,953.1046L526.96265,953.0913L526.96265,953.0928 Z M744.1372,972.07Q730.6312,976.4904,725.15454,979.45526Q720.5132,981.8649,716.4075,986.1374L744.1305,972.0754L744.14136,972.07L744.1372,972.0705 Z M498.3488,945.43335L507.97174,966.09686Q509.89825,978.9821,510.9228,979.7238Q511.0799,979.89716,511.232,979.9047Q511.6629,979.924,512.05255,978.60394Q512.5545,976.71405,512.5312,973.96967Q512.46234,968.9747,510.7602,964.26996Q507.8051,956.242,498.36453,945.4509L498.3488,945.43335L498.3488,945.4346 Z M481.205,970.9411L494.2726,991.5883Q492.5812,984.5019,490.09525,980.7304Q487.48355,976.58685,481.2195,970.9538L481.205,970.9411L481.205,970.94183 Z M464.35492,998.804Q471.6654,1003.6964,475.34222,1005.3983Q478.7485,1007.04114,482.7822,1007.41516L464.3659,998.80865L464.35693,998.804L464.35492,998.805 Z M594.91406,921.5431Q593.2726,953.4258,599.0547,989.69366Q602.19135,1009.16455,608.4002,1035.6765Q611.9051,1050.625,615.8077,1065.3379Q617.94476,1073.3575,619.3292,1078.037Q620.3185,1081.3844,620.46423,1081.3912Q620.5116,1081.3937,620.4697,1081.0426Q620.3314,1079.881,619.0426,1074.0228L610.6069,1036.1301Q608.66656,1027.1653,606.84467,1018.0242Q602.8094,998.00726,597.55554,965.97455L594.9198,921.59546L594.9169,921.5431L594.91406,921.5436 Z"/>
</g>
<g style="fill:rgb(0,0,0); fill-opacity:0.15686275; stroke-linejoin: miter">
<path d="M615.12714,879.32196Q606.90656,888.57526,602.38416,891.75653Q596.8838,895.7308,592.3096,895.45197Q583.32263,895.03204,570.4784,877.2563L592.3778,908.47314L615.0744,879.38995"/>
</g>
<g style="fill:rgb(0,0,0); fill-opacity:0.45882353; stroke-linejoin: miter">
<path d="M954.99475,1432.1075L951.3711,1433.0939Q925.60657,1436.0726,800.5978,1437.8604Q674.724,1439.6445,504.14832,1439.3075Q341.35648,1438.8352,243.75423,1436.5476Q146.23032,1434.243,164.66277,1431.1212Q190.42667,1428.1407,315.43488,1426.3535Q441.30798,1424.5673,611.88354,1424.9065Q774.6756,1425.3784,872.2798,1427.6664Q903.55255,1428.4061,923.7979,1429.2787L940.81494,1430.1749Q954.83655,1431.1014,954.99475,1432.1075"/>
</g>
<g style="fill:rgb(255,184,147); fill-opacity:1.0; stroke-linejoin: miter">
<path d="M716.94574,1001.58405C723.6414,1007.49036,731.97986,1007.27234,731.97986,1007.27234C740.3174,1007.0543,749.9498,1001.9368,749.9498,1001.9368C751.71857,994.7082,763.27515,966.8422,777.37823,932.1638C783.6026,933.08276,788.2741,932.9518,791.39355,931.77124L820.7883,921.19855C824.80164,919.54535,827.38477,917.9848,827.88416,916.27765C828.551,913.9948,826.22656,913.3045,821.5791,914.33905C818.38416,915.05084,811.72473,917.953,801.6074,923.07654C817.6516,912.7082,825.89526,905.774,826.1123,902.2557C826.19946,900.8403,824.03687,901.11884,819.88403,903.1657C815.34875,905.40106,808.7283,909.4312,799.9889,915.19037C811.8978,906.778,818.9761,900.18585,821.22253,895.41425C821.2936,894.4771,820.1886,894.5523,817.9066,895.6409L797.75793,907.2048C794.6028,908.8575,792.791,909.4378,792.2084,909.14386C791.5725,908.82306,791.8943,907.60187,793.2654,905.2712L803.03564,890.7946C803.9562,889.1204,804.01465,888.0301,803.12537,887.8807C802.1234,887.71173,800.5658,888.71027,798.49243,890.51044C798.48206,890.21893,795.9933,893.22955,790.8042,899.3564C789.6129,900.76276,788.1712,901.90204,786.6822,902.9482C785.52313,903.76227,784.3361,904.487,783.08405,905.0285C776.80365,907.74384,773.2188,909.3621,772.3016,909.8664C770.1689,911.0385,768.222,912.2547,766.43427,913.5142C760.79694,917.48706,754.9936,924.7527,749.06354,935.41736C746.5808,939.8816,743.89795,945.06934,741.0713,951.011 Z"/>
</g>
<g style="fill:rgb(34,43,50); fill-opacity:1.0; stroke-linejoin: miter">
<path d="M434.93512,1297.407L452.119,1297.408L469.30286,1297.4089Q469.30298,1367.7999,469.303,1438.1906Q452.1191,1438.1914,434.93518,1438.1919Q434.93524,1367.7999,434.93512,1297.407"/>
</g>
<g>
<g style="fill:rgb(255,203,40); fill-opacity:1.0; stroke-linejoin: miter">
<path d="M798.6918,792.0462L744.30634,850.51733L853.5361,850.0875L798.6918,792.0462 Z M798.8779,839.2462C792.77136,839.27014,787.80164,834.33887,787.77783,828.23303C787.75354,822.1261,792.6841,817.1575,798.7905,817.1333C804.897,817.1094,809.8666,822.0397,809.891,828.1459C809.9144,834.25195,804.9844,839.2218,798.8779,839.2462 Z"/>
</g>
<g style="fill:rgb(255,203,40); fill-opacity:1.0; stroke-linejoin: miter">
<path d="M743.6589,851.214L743.6419,851.2323L743.8718,909.48834L802.83936,909.25604L802.6509,861.34436L837.66315,861.20667L837.8522,909.118L854.4368,909.05304L854.21857,853.7698L743.67035,854.20557L743.6589,851.214 Z M757.649,898.3776L757.56146,876.26434L757.54706,872.57904L757.5179,865.2078L757.50323,861.5224L761.1889,861.50806L786.98724,861.4065L790.6727,861.3922L790.687,865.07764L790.7163,872.4481L790.73096,876.134L790.818,898.2469L790.8325,901.93195L787.1468,901.94696L761.3487,902.04803L757.6634,902.0634L757.649,898.3776 Z"/>
</g>
<g style="fill:rgb(88,95,113); fill-opacity:1.0; stroke-linejoin: miter">
<path d="M853.5367,850.0873L744.30634,850.5178L743.6589,851.214L743.67035,854.2053L854.2183,853.77026L854.23517,853.76953L854.2237,850.81445 Z"/>
</g>
<g style="fill:rgb(112,97,78); fill-opacity:1.0; stroke-linejoin: miter">
<path d="M867.7353,849.0148L850.45905,830.732L850.3758,809.5588L839.3193,809.60284L839.35626,818.9819L798.6282,775.8808L730.1004,849.55664L738.19684,857.0864L743.64166,851.2323L743.6589,851.214L744.30634,850.51733L798.6918,792.0462L853.5367,850.0873L854.2237,850.81445L859.6984,856.60767 Z"/>
</g>
<g style="fill:rgb(105,90,105); fill-opacity:1.0; stroke-linejoin: miter">
<path d="M798.7905,817.1333C792.6841,817.1575,787.75354,822.1266,787.77783,828.23303C787.80164,834.3391,792.77136,839.27014,798.8779,839.2462C804.9844,839.2218,809.9144,834.25195,809.891,828.1459C809.8666,822.0394,804.897,817.1094,798.7905,817.1333 Z M798.86316,835.5603C794.7921,835.5764,791.47876,832.2892,791.4629,828.2185C791.453,825.55664,792.8546,823.21985,794.96423,821.9155C795.97595,821.2897,797.1504,820.90247,798.41077,820.83093C798.541,820.8236,798.673,820.8191,798.8054,820.8186C802.876,820.80237,806.1892,824.08923,806.2053,828.1604C806.22156,832.2311,802.93396,835.5443,798.86316,835.5603 Z"/>
</g>
<g style="fill:rgb(149,255,255); fill-opacity:1.0; stroke-linejoin: miter">
<path d="M798.8052,820.8186C802.8755,820.80237,806.18896,824.0897,806.2053,828.1604C806.18896,824.08923,802.87573,820.80237,798.8052,820.8186 Z"/>
</g>
<g style="fill:rgb(149,255,255); fill-opacity:1.0; stroke-linejoin: miter">
<path d="M798.4103,820.8307C798.541,820.82336,798.6726,820.81885,798.8052,820.81836C798.6726,820.8191,798.541,820.82385,798.4103,820.8307 Z"/>
</g>
<g style="fill:rgb(178,215,242); fill-opacity:1.0; stroke-linejoin: miter">
<path d="M793.6022,822.99866C794.0105,822.58606,794.46814,822.22253,794.96423,821.9155C792.855,823.21985,791.453,825.55664,791.4629,828.2185C791.479,832.2892,794.79236,835.5764,798.86316,835.5603C802.93396,835.5443,806.2212,832.2311,806.2053,828.1604C806.21313,830.1953,805.39514,832.04175,804.06604,833.3804L793.6022,822.99866 Z"/>
</g>
<g style="fill:rgb(139,181,211); fill-opacity:1.0; stroke-linejoin: miter">
<path d="M798.8052,820.8186C798.6726,820.8191,798.541,820.82385,798.4103,820.83093C797.15015,820.90247,795.97595,821.2897,794.964,821.9155C794.4678,822.22253,794.0105,822.58606,793.6019,822.99866L804.06555,833.3804C805.3949,832.04175,806.21265,830.1953,806.20483,828.1604C806.18896,824.0897,802.8755,820.80237,798.8052,820.8186 Z"/>
</g>
<g style="fill:rgb(178,215,242); fill-opacity:1.0; stroke-linejoin: miter">
<path d="M783.44696,898.2758L761.24677,876.2497L761.3339,898.36285L787.1325,898.26154 Z"/>
</g>
<g style="fill:rgb(139,181,211); fill-opacity:1.0; stroke-linejoin: miter">
<path d="M761.2033,865.1929L787.0019,865.09155L787.03094,872.46277L761.2326,872.5641L761.2033,865.1929 Z M761.2033,865.1929L787.0019,865.09155L787.03094,872.46277L761.2326,872.5641L761.2033,865.1929 Z M761.2033,865.1929L787.0019,865.09155L787.03094,872.46277L761.2326,872.5641L761.2033,865.1929 Z M761.2033,865.1929L787.0019,865.09155L787.03094,872.46277L761.2326,872.5641L761.2033,865.1929 Z"/>
</g>
<g style="fill:rgb(88,95,113); fill-opacity:1.0; stroke-linejoin: miter">
<path d="M787.1468,901.9465L790.8325,901.93243L790.818,898.2469L790.73096,876.134L790.7163,872.4481L790.687,865.07764L790.6727,861.3917L786.98724,861.40674L761.1889,861.5078L757.50323,861.5229L757.5179,865.2078L757.54706,872.57904L757.56146,876.26434L757.649,898.3776L757.6634,902.0629L761.3487,902.04877L787.1468,901.9465 Z M761.2033,865.1929L787.0019,865.09204L787.03094,872.46277L761.2326,872.56433L761.2033,865.1929 Z M761.24677,876.2497L787.04535,876.1485L787.1325,898.2607L761.3339,898.36285L761.24677,876.2497 Z"/>
</g>
<g style="fill:rgb(139,181,211); fill-opacity:1.0; stroke-linejoin: miter">
<path d="M787.1325,898.2609L787.04535,876.14825L761.24677,876.24994L783.44696,898.2758 Z"/>
</g>
<g style="fill:rgb(173,158,127); fill-opacity:1.0; stroke-linejoin: miter">
<path d="M837.8955,920.1744L837.85156,909.118L837.6629,861.2062L802.65063,861.3446L802.8391,909.2558L802.88293,920.3124 Z"/>
</g>
<g style="fill:rgb(112,97,78); fill-opacity:1.0; stroke-linejoin: miter">
<path d="M802.8391,909.2558L743.8712,909.48834L743.91516,920.5449L802.88293,920.31287L802.88293,920.3124 Z"/>
</g>
<g style="fill:rgb(112,97,78); fill-opacity:1.0; stroke-linejoin: miter">
<path d="M837.8955,920.1744L837.8955,920.17487L854.48016,920.1093L854.4366,909.0523L837.85156,909.11847 Z"/>
</g>
</g>
</g>
</svg>